G04 #@! TF.GenerationSoftware,KiCad,Pcbnew,10.0.3*
G04 #@! TF.CreationDate,2026-05-31T23:35:21-04:00*
G04 #@! TF.ProjectId,BattleBot,42617474-6c65-4426-9f74-2e6b69636164,rev?*
G04 #@! TF.SameCoordinates,Original*
G04 #@! TF.FileFunction,Legend,Top*
G04 #@! TF.FilePolarity,Positive*
%FSLAX46Y46*%
G04 Gerber Fmt 4.6, Leading zero omitted, Abs format (unit mm)*
G04 Created by KiCad (PCBNEW 10.0.3) date 2026-05-31 23:35:21*
%MOMM*%
%LPD*%
G01*
G04 APERTURE LIST*
G04 Aperture macros list*
%AMRoundRect*
0 Rectangle with rounded corners*
0 $1 Rounding radius*
0 $2 $3 $4 $5 $6 $7 $8 $9 X,Y pos of 4 corners*
0 Add a 4 corners polygon primitive as box body*
4,1,4,$2,$3,$4,$5,$6,$7,$8,$9,$2,$3,0*
0 Add four circle primitives for the rounded corners*
1,1,$1+$1,$2,$3*
1,1,$1+$1,$4,$5*
1,1,$1+$1,$6,$7*
1,1,$1+$1,$8,$9*
0 Add four rect primitives between the rounded corners*
20,1,$1+$1,$2,$3,$4,$5,0*
20,1,$1+$1,$4,$5,$6,$7,0*
20,1,$1+$1,$6,$7,$8,$9,0*
20,1,$1+$1,$8,$9,$2,$3,0*%
G04 Aperture macros list end*
%ADD10C,0.100000*%
%ADD11C,0.000000*%
%ADD12C,1.800000*%
%ADD13O,1.800000X1.800000*%
%ADD14RoundRect,0.381000X-0.889000X-0.889000X0.889000X-0.889000X0.889000X0.889000X-0.889000X0.889000X0*%
G04 APERTURE END LIST*
D10*
X176705009Y-117819843D02*
X176705009Y-117486510D01*
X177228819Y-117343653D02*
X177228819Y-117819843D01*
X177228819Y-117819843D02*
X176228819Y-117819843D01*
X176228819Y-117819843D02*
X176228819Y-117343653D01*
X177181200Y-116962700D02*
X177228819Y-116819843D01*
X177228819Y-116819843D02*
X177228819Y-116581748D01*
X177228819Y-116581748D02*
X177181200Y-116486510D01*
X177181200Y-116486510D02*
X177133580Y-116438891D01*
X177133580Y-116438891D02*
X177038342Y-116391272D01*
X177038342Y-116391272D02*
X176943104Y-116391272D01*
X176943104Y-116391272D02*
X176847866Y-116438891D01*
X176847866Y-116438891D02*
X176800247Y-116486510D01*
X176800247Y-116486510D02*
X176752628Y-116581748D01*
X176752628Y-116581748D02*
X176705009Y-116772224D01*
X176705009Y-116772224D02*
X176657390Y-116867462D01*
X176657390Y-116867462D02*
X176609771Y-116915081D01*
X176609771Y-116915081D02*
X176514533Y-116962700D01*
X176514533Y-116962700D02*
X176419295Y-116962700D01*
X176419295Y-116962700D02*
X176324057Y-116915081D01*
X176324057Y-116915081D02*
X176276438Y-116867462D01*
X176276438Y-116867462D02*
X176228819Y-116772224D01*
X176228819Y-116772224D02*
X176228819Y-116534129D01*
X176228819Y-116534129D02*
X176276438Y-116391272D01*
X177228819Y-115962700D02*
X176228819Y-115962700D01*
X176228819Y-115962700D02*
X176228819Y-115581748D01*
X176228819Y-115581748D02*
X176276438Y-115486510D01*
X176276438Y-115486510D02*
X176324057Y-115438891D01*
X176324057Y-115438891D02*
X176419295Y-115391272D01*
X176419295Y-115391272D02*
X176562152Y-115391272D01*
X176562152Y-115391272D02*
X176657390Y-115438891D01*
X176657390Y-115438891D02*
X176705009Y-115486510D01*
X176705009Y-115486510D02*
X176752628Y-115581748D01*
X176752628Y-115581748D02*
X176752628Y-115962700D01*
X176228819Y-115057938D02*
X176228819Y-114438891D01*
X176228819Y-114438891D02*
X176609771Y-114772224D01*
X176609771Y-114772224D02*
X176609771Y-114629367D01*
X176609771Y-114629367D02*
X176657390Y-114534129D01*
X176657390Y-114534129D02*
X176705009Y-114486510D01*
X176705009Y-114486510D02*
X176800247Y-114438891D01*
X176800247Y-114438891D02*
X177038342Y-114438891D01*
X177038342Y-114438891D02*
X177133580Y-114486510D01*
X177133580Y-114486510D02*
X177181200Y-114534129D01*
X177181200Y-114534129D02*
X177228819Y-114629367D01*
X177228819Y-114629367D02*
X177228819Y-114915081D01*
X177228819Y-114915081D02*
X177181200Y-115010319D01*
X177181200Y-115010319D02*
X177133580Y-115057938D01*
X176324057Y-114057938D02*
X176276438Y-114010319D01*
X176276438Y-114010319D02*
X176228819Y-113915081D01*
X176228819Y-113915081D02*
X176228819Y-113676986D01*
X176228819Y-113676986D02*
X176276438Y-113581748D01*
X176276438Y-113581748D02*
X176324057Y-113534129D01*
X176324057Y-113534129D02*
X176419295Y-113486510D01*
X176419295Y-113486510D02*
X176514533Y-113486510D01*
X176514533Y-113486510D02*
X176657390Y-113534129D01*
X176657390Y-113534129D02*
X177228819Y-114105557D01*
X177228819Y-114105557D02*
X177228819Y-113486510D01*
X176847866Y-113057938D02*
X176847866Y-112296034D01*
X176228819Y-111915081D02*
X177228819Y-111676986D01*
X177228819Y-111676986D02*
X176514533Y-111486510D01*
X176514533Y-111486510D02*
X177228819Y-111296034D01*
X177228819Y-111296034D02*
X176228819Y-111057939D01*
X177228819Y-110105558D02*
X176752628Y-110438891D01*
X177228819Y-110676986D02*
X176228819Y-110676986D01*
X176228819Y-110676986D02*
X176228819Y-110296034D01*
X176228819Y-110296034D02*
X176276438Y-110200796D01*
X176276438Y-110200796D02*
X176324057Y-110153177D01*
X176324057Y-110153177D02*
X176419295Y-110105558D01*
X176419295Y-110105558D02*
X176562152Y-110105558D01*
X176562152Y-110105558D02*
X176657390Y-110153177D01*
X176657390Y-110153177D02*
X176705009Y-110200796D01*
X176705009Y-110200796D02*
X176752628Y-110296034D01*
X176752628Y-110296034D02*
X176752628Y-110676986D01*
X176228819Y-109486510D02*
X176228819Y-109296034D01*
X176228819Y-109296034D02*
X176276438Y-109200796D01*
X176276438Y-109200796D02*
X176371676Y-109105558D01*
X176371676Y-109105558D02*
X176562152Y-109057939D01*
X176562152Y-109057939D02*
X176895485Y-109057939D01*
X176895485Y-109057939D02*
X177085961Y-109105558D01*
X177085961Y-109105558D02*
X177181200Y-109200796D01*
X177181200Y-109200796D02*
X177228819Y-109296034D01*
X177228819Y-109296034D02*
X177228819Y-109486510D01*
X177228819Y-109486510D02*
X177181200Y-109581748D01*
X177181200Y-109581748D02*
X177085961Y-109676986D01*
X177085961Y-109676986D02*
X176895485Y-109724605D01*
X176895485Y-109724605D02*
X176562152Y-109724605D01*
X176562152Y-109724605D02*
X176371676Y-109676986D01*
X176371676Y-109676986D02*
X176276438Y-109581748D01*
X176276438Y-109581748D02*
X176228819Y-109486510D01*
X176228819Y-108772224D02*
X177228819Y-108438891D01*
X177228819Y-108438891D02*
X176228819Y-108105558D01*
X176705009Y-107772224D02*
X176705009Y-107438891D01*
X177228819Y-107296034D02*
X177228819Y-107772224D01*
X177228819Y-107772224D02*
X176228819Y-107772224D01*
X176228819Y-107772224D02*
X176228819Y-107296034D01*
X177228819Y-106296034D02*
X176752628Y-106629367D01*
X177228819Y-106867462D02*
X176228819Y-106867462D01*
X176228819Y-106867462D02*
X176228819Y-106486510D01*
X176228819Y-106486510D02*
X176276438Y-106391272D01*
X176276438Y-106391272D02*
X176324057Y-106343653D01*
X176324057Y-106343653D02*
X176419295Y-106296034D01*
X176419295Y-106296034D02*
X176562152Y-106296034D01*
X176562152Y-106296034D02*
X176657390Y-106343653D01*
X176657390Y-106343653D02*
X176705009Y-106391272D01*
X176705009Y-106391272D02*
X176752628Y-106486510D01*
X176752628Y-106486510D02*
X176752628Y-106867462D01*
X176847866Y-105867462D02*
X176847866Y-105105558D01*
X176705009Y-104629367D02*
X176705009Y-104296034D01*
X177228819Y-104153177D02*
X177228819Y-104629367D01*
X177228819Y-104629367D02*
X176228819Y-104629367D01*
X176228819Y-104629367D02*
X176228819Y-104153177D01*
X128346638Y-121334634D02*
X128299019Y-121429872D01*
X128299019Y-121429872D02*
X128299019Y-121572729D01*
X128299019Y-121572729D02*
X128346638Y-121715586D01*
X128346638Y-121715586D02*
X128441876Y-121810824D01*
X128441876Y-121810824D02*
X128537114Y-121858443D01*
X128537114Y-121858443D02*
X128727590Y-121906062D01*
X128727590Y-121906062D02*
X128870447Y-121906062D01*
X128870447Y-121906062D02*
X129060923Y-121858443D01*
X129060923Y-121858443D02*
X129156161Y-121810824D01*
X129156161Y-121810824D02*
X129251400Y-121715586D01*
X129251400Y-121715586D02*
X129299019Y-121572729D01*
X129299019Y-121572729D02*
X129299019Y-121477491D01*
X129299019Y-121477491D02*
X129251400Y-121334634D01*
X129251400Y-121334634D02*
X129203780Y-121287015D01*
X129203780Y-121287015D02*
X128870447Y-121287015D01*
X128870447Y-121287015D02*
X128870447Y-121477491D01*
X129299019Y-120858443D02*
X128299019Y-120858443D01*
X128299019Y-120858443D02*
X129299019Y-120287015D01*
X129299019Y-120287015D02*
X128299019Y-120287015D01*
X129299019Y-119810824D02*
X128299019Y-119810824D01*
X128299019Y-119810824D02*
X128299019Y-119572729D01*
X128299019Y-119572729D02*
X128346638Y-119429872D01*
X128346638Y-119429872D02*
X128441876Y-119334634D01*
X128441876Y-119334634D02*
X128537114Y-119287015D01*
X128537114Y-119287015D02*
X128727590Y-119239396D01*
X128727590Y-119239396D02*
X128870447Y-119239396D01*
X128870447Y-119239396D02*
X129060923Y-119287015D01*
X129060923Y-119287015D02*
X129156161Y-119334634D01*
X129156161Y-119334634D02*
X129251400Y-119429872D01*
X129251400Y-119429872D02*
X129299019Y-119572729D01*
X129299019Y-119572729D02*
X129299019Y-119810824D01*
X130937438Y-121258434D02*
X130889819Y-121353672D01*
X130889819Y-121353672D02*
X130889819Y-121496529D01*
X130889819Y-121496529D02*
X130937438Y-121639386D01*
X130937438Y-121639386D02*
X131032676Y-121734624D01*
X131032676Y-121734624D02*
X131127914Y-121782243D01*
X131127914Y-121782243D02*
X131318390Y-121829862D01*
X131318390Y-121829862D02*
X131461247Y-121829862D01*
X131461247Y-121829862D02*
X131651723Y-121782243D01*
X131651723Y-121782243D02*
X131746961Y-121734624D01*
X131746961Y-121734624D02*
X131842200Y-121639386D01*
X131842200Y-121639386D02*
X131889819Y-121496529D01*
X131889819Y-121496529D02*
X131889819Y-121401291D01*
X131889819Y-121401291D02*
X131842200Y-121258434D01*
X131842200Y-121258434D02*
X131794580Y-121210815D01*
X131794580Y-121210815D02*
X131461247Y-121210815D01*
X131461247Y-121210815D02*
X131461247Y-121401291D01*
X131889819Y-120782243D02*
X130889819Y-120782243D01*
X130889819Y-120782243D02*
X131889819Y-120210815D01*
X131889819Y-120210815D02*
X130889819Y-120210815D01*
X131889819Y-119734624D02*
X130889819Y-119734624D01*
X130889819Y-119734624D02*
X130889819Y-119496529D01*
X130889819Y-119496529D02*
X130937438Y-119353672D01*
X130937438Y-119353672D02*
X131032676Y-119258434D01*
X131032676Y-119258434D02*
X131127914Y-119210815D01*
X131127914Y-119210815D02*
X131318390Y-119163196D01*
X131318390Y-119163196D02*
X131461247Y-119163196D01*
X131461247Y-119163196D02*
X131651723Y-119210815D01*
X131651723Y-119210815D02*
X131746961Y-119258434D01*
X131746961Y-119258434D02*
X131842200Y-119353672D01*
X131842200Y-119353672D02*
X131889819Y-119496529D01*
X131889819Y-119496529D02*
X131889819Y-119734624D01*
X133401238Y-121233034D02*
X133353619Y-121328272D01*
X133353619Y-121328272D02*
X133353619Y-121471129D01*
X133353619Y-121471129D02*
X133401238Y-121613986D01*
X133401238Y-121613986D02*
X133496476Y-121709224D01*
X133496476Y-121709224D02*
X133591714Y-121756843D01*
X133591714Y-121756843D02*
X133782190Y-121804462D01*
X133782190Y-121804462D02*
X133925047Y-121804462D01*
X133925047Y-121804462D02*
X134115523Y-121756843D01*
X134115523Y-121756843D02*
X134210761Y-121709224D01*
X134210761Y-121709224D02*
X134306000Y-121613986D01*
X134306000Y-121613986D02*
X134353619Y-121471129D01*
X134353619Y-121471129D02*
X134353619Y-121375891D01*
X134353619Y-121375891D02*
X134306000Y-121233034D01*
X134306000Y-121233034D02*
X134258380Y-121185415D01*
X134258380Y-121185415D02*
X133925047Y-121185415D01*
X133925047Y-121185415D02*
X133925047Y-121375891D01*
X134353619Y-120756843D02*
X133353619Y-120756843D01*
X133353619Y-120756843D02*
X134353619Y-120185415D01*
X134353619Y-120185415D02*
X133353619Y-120185415D01*
X134353619Y-119709224D02*
X133353619Y-119709224D01*
X133353619Y-119709224D02*
X133353619Y-119471129D01*
X133353619Y-119471129D02*
X133401238Y-119328272D01*
X133401238Y-119328272D02*
X133496476Y-119233034D01*
X133496476Y-119233034D02*
X133591714Y-119185415D01*
X133591714Y-119185415D02*
X133782190Y-119137796D01*
X133782190Y-119137796D02*
X133925047Y-119137796D01*
X133925047Y-119137796D02*
X134115523Y-119185415D01*
X134115523Y-119185415D02*
X134210761Y-119233034D01*
X134210761Y-119233034D02*
X134306000Y-119328272D01*
X134306000Y-119328272D02*
X134353619Y-119471129D01*
X134353619Y-119471129D02*
X134353619Y-119709224D01*
X136068238Y-121207634D02*
X136020619Y-121302872D01*
X136020619Y-121302872D02*
X136020619Y-121445729D01*
X136020619Y-121445729D02*
X136068238Y-121588586D01*
X136068238Y-121588586D02*
X136163476Y-121683824D01*
X136163476Y-121683824D02*
X136258714Y-121731443D01*
X136258714Y-121731443D02*
X136449190Y-121779062D01*
X136449190Y-121779062D02*
X136592047Y-121779062D01*
X136592047Y-121779062D02*
X136782523Y-121731443D01*
X136782523Y-121731443D02*
X136877761Y-121683824D01*
X136877761Y-121683824D02*
X136973000Y-121588586D01*
X136973000Y-121588586D02*
X137020619Y-121445729D01*
X137020619Y-121445729D02*
X137020619Y-121350491D01*
X137020619Y-121350491D02*
X136973000Y-121207634D01*
X136973000Y-121207634D02*
X136925380Y-121160015D01*
X136925380Y-121160015D02*
X136592047Y-121160015D01*
X136592047Y-121160015D02*
X136592047Y-121350491D01*
X137020619Y-120731443D02*
X136020619Y-120731443D01*
X136020619Y-120731443D02*
X137020619Y-120160015D01*
X137020619Y-120160015D02*
X136020619Y-120160015D01*
X137020619Y-119683824D02*
X136020619Y-119683824D01*
X136020619Y-119683824D02*
X136020619Y-119445729D01*
X136020619Y-119445729D02*
X136068238Y-119302872D01*
X136068238Y-119302872D02*
X136163476Y-119207634D01*
X136163476Y-119207634D02*
X136258714Y-119160015D01*
X136258714Y-119160015D02*
X136449190Y-119112396D01*
X136449190Y-119112396D02*
X136592047Y-119112396D01*
X136592047Y-119112396D02*
X136782523Y-119160015D01*
X136782523Y-119160015D02*
X136877761Y-119207634D01*
X136877761Y-119207634D02*
X136973000Y-119302872D01*
X136973000Y-119302872D02*
X137020619Y-119445729D01*
X137020619Y-119445729D02*
X137020619Y-119683824D01*
X139611419Y-121106034D02*
X139611419Y-121677462D01*
X139611419Y-121391748D02*
X138611419Y-121391748D01*
X138611419Y-121391748D02*
X138754276Y-121486986D01*
X138754276Y-121486986D02*
X138849514Y-121582224D01*
X138849514Y-121582224D02*
X138897133Y-121677462D01*
X138611419Y-120201272D02*
X138611419Y-120677462D01*
X138611419Y-120677462D02*
X139087609Y-120725081D01*
X139087609Y-120725081D02*
X139039990Y-120677462D01*
X139039990Y-120677462D02*
X138992371Y-120582224D01*
X138992371Y-120582224D02*
X138992371Y-120344129D01*
X138992371Y-120344129D02*
X139039990Y-120248891D01*
X139039990Y-120248891D02*
X139087609Y-120201272D01*
X139087609Y-120201272D02*
X139182847Y-120153653D01*
X139182847Y-120153653D02*
X139420942Y-120153653D01*
X139420942Y-120153653D02*
X139516180Y-120201272D01*
X139516180Y-120201272D02*
X139563800Y-120248891D01*
X139563800Y-120248891D02*
X139611419Y-120344129D01*
X139611419Y-120344129D02*
X139611419Y-120582224D01*
X139611419Y-120582224D02*
X139563800Y-120677462D01*
X139563800Y-120677462D02*
X139516180Y-120725081D01*
X141246657Y-121525062D02*
X141199038Y-121477443D01*
X141199038Y-121477443D02*
X141151419Y-121382205D01*
X141151419Y-121382205D02*
X141151419Y-121144110D01*
X141151419Y-121144110D02*
X141199038Y-121048872D01*
X141199038Y-121048872D02*
X141246657Y-121001253D01*
X141246657Y-121001253D02*
X141341895Y-120953634D01*
X141341895Y-120953634D02*
X141437133Y-120953634D01*
X141437133Y-120953634D02*
X141579990Y-121001253D01*
X141579990Y-121001253D02*
X142151419Y-121572681D01*
X142151419Y-121572681D02*
X142151419Y-120953634D01*
X143691419Y-121286967D02*
X143691419Y-121191729D01*
X143691419Y-121191729D02*
X143739038Y-121096491D01*
X143739038Y-121096491D02*
X143786657Y-121048872D01*
X143786657Y-121048872D02*
X143881895Y-121001253D01*
X143881895Y-121001253D02*
X144072371Y-120953634D01*
X144072371Y-120953634D02*
X144310466Y-120953634D01*
X144310466Y-120953634D02*
X144500942Y-121001253D01*
X144500942Y-121001253D02*
X144596180Y-121048872D01*
X144596180Y-121048872D02*
X144643800Y-121096491D01*
X144643800Y-121096491D02*
X144691419Y-121191729D01*
X144691419Y-121191729D02*
X144691419Y-121286967D01*
X144691419Y-121286967D02*
X144643800Y-121382205D01*
X144643800Y-121382205D02*
X144596180Y-121429824D01*
X144596180Y-121429824D02*
X144500942Y-121477443D01*
X144500942Y-121477443D02*
X144310466Y-121525062D01*
X144310466Y-121525062D02*
X144072371Y-121525062D01*
X144072371Y-121525062D02*
X143881895Y-121477443D01*
X143881895Y-121477443D02*
X143786657Y-121429824D01*
X143786657Y-121429824D02*
X143739038Y-121382205D01*
X143739038Y-121382205D02*
X143691419Y-121286967D01*
X146564752Y-120998072D02*
X147231419Y-120998072D01*
X146183800Y-121236167D02*
X146898085Y-121474262D01*
X146898085Y-121474262D02*
X146898085Y-120855215D01*
X148742838Y-121106034D02*
X148695219Y-121201272D01*
X148695219Y-121201272D02*
X148695219Y-121344129D01*
X148695219Y-121344129D02*
X148742838Y-121486986D01*
X148742838Y-121486986D02*
X148838076Y-121582224D01*
X148838076Y-121582224D02*
X148933314Y-121629843D01*
X148933314Y-121629843D02*
X149123790Y-121677462D01*
X149123790Y-121677462D02*
X149266647Y-121677462D01*
X149266647Y-121677462D02*
X149457123Y-121629843D01*
X149457123Y-121629843D02*
X149552361Y-121582224D01*
X149552361Y-121582224D02*
X149647600Y-121486986D01*
X149647600Y-121486986D02*
X149695219Y-121344129D01*
X149695219Y-121344129D02*
X149695219Y-121248891D01*
X149695219Y-121248891D02*
X149647600Y-121106034D01*
X149647600Y-121106034D02*
X149599980Y-121058415D01*
X149599980Y-121058415D02*
X149266647Y-121058415D01*
X149266647Y-121058415D02*
X149266647Y-121248891D01*
X149695219Y-120629843D02*
X148695219Y-120629843D01*
X148695219Y-120629843D02*
X149695219Y-120058415D01*
X149695219Y-120058415D02*
X148695219Y-120058415D01*
X149695219Y-119582224D02*
X148695219Y-119582224D01*
X148695219Y-119582224D02*
X148695219Y-119344129D01*
X148695219Y-119344129D02*
X148742838Y-119201272D01*
X148742838Y-119201272D02*
X148838076Y-119106034D01*
X148838076Y-119106034D02*
X148933314Y-119058415D01*
X148933314Y-119058415D02*
X149123790Y-119010796D01*
X149123790Y-119010796D02*
X149266647Y-119010796D01*
X149266647Y-119010796D02*
X149457123Y-119058415D01*
X149457123Y-119058415D02*
X149552361Y-119106034D01*
X149552361Y-119106034D02*
X149647600Y-119201272D01*
X149647600Y-119201272D02*
X149695219Y-119344129D01*
X149695219Y-119344129D02*
X149695219Y-119582224D01*
X151613038Y-121029834D02*
X151565419Y-121125072D01*
X151565419Y-121125072D02*
X151565419Y-121267929D01*
X151565419Y-121267929D02*
X151613038Y-121410786D01*
X151613038Y-121410786D02*
X151708276Y-121506024D01*
X151708276Y-121506024D02*
X151803514Y-121553643D01*
X151803514Y-121553643D02*
X151993990Y-121601262D01*
X151993990Y-121601262D02*
X152136847Y-121601262D01*
X152136847Y-121601262D02*
X152327323Y-121553643D01*
X152327323Y-121553643D02*
X152422561Y-121506024D01*
X152422561Y-121506024D02*
X152517800Y-121410786D01*
X152517800Y-121410786D02*
X152565419Y-121267929D01*
X152565419Y-121267929D02*
X152565419Y-121172691D01*
X152565419Y-121172691D02*
X152517800Y-121029834D01*
X152517800Y-121029834D02*
X152470180Y-120982215D01*
X152470180Y-120982215D02*
X152136847Y-120982215D01*
X152136847Y-120982215D02*
X152136847Y-121172691D01*
X152565419Y-120553643D02*
X151565419Y-120553643D01*
X151565419Y-120553643D02*
X152565419Y-119982215D01*
X152565419Y-119982215D02*
X151565419Y-119982215D01*
X152565419Y-119506024D02*
X151565419Y-119506024D01*
X151565419Y-119506024D02*
X151565419Y-119267929D01*
X151565419Y-119267929D02*
X151613038Y-119125072D01*
X151613038Y-119125072D02*
X151708276Y-119029834D01*
X151708276Y-119029834D02*
X151803514Y-118982215D01*
X151803514Y-118982215D02*
X151993990Y-118934596D01*
X151993990Y-118934596D02*
X152136847Y-118934596D01*
X152136847Y-118934596D02*
X152327323Y-118982215D01*
X152327323Y-118982215D02*
X152422561Y-119029834D01*
X152422561Y-119029834D02*
X152517800Y-119125072D01*
X152517800Y-119125072D02*
X152565419Y-119267929D01*
X152565419Y-119267929D02*
X152565419Y-119506024D01*
X153851419Y-121128253D02*
X153851419Y-121604443D01*
X153851419Y-121604443D02*
X154327609Y-121652062D01*
X154327609Y-121652062D02*
X154279990Y-121604443D01*
X154279990Y-121604443D02*
X154232371Y-121509205D01*
X154232371Y-121509205D02*
X154232371Y-121271110D01*
X154232371Y-121271110D02*
X154279990Y-121175872D01*
X154279990Y-121175872D02*
X154327609Y-121128253D01*
X154327609Y-121128253D02*
X154422847Y-121080634D01*
X154422847Y-121080634D02*
X154660942Y-121080634D01*
X154660942Y-121080634D02*
X154756180Y-121128253D01*
X154756180Y-121128253D02*
X154803800Y-121175872D01*
X154803800Y-121175872D02*
X154851419Y-121271110D01*
X154851419Y-121271110D02*
X154851419Y-121509205D01*
X154851419Y-121509205D02*
X154803800Y-121604443D01*
X154803800Y-121604443D02*
X154756180Y-121652062D01*
X157264419Y-121055234D02*
X157264419Y-121626662D01*
X157264419Y-121340948D02*
X156264419Y-121340948D01*
X156264419Y-121340948D02*
X156407276Y-121436186D01*
X156407276Y-121436186D02*
X156502514Y-121531424D01*
X156502514Y-121531424D02*
X156550133Y-121626662D01*
X156692990Y-120483805D02*
X156645371Y-120579043D01*
X156645371Y-120579043D02*
X156597752Y-120626662D01*
X156597752Y-120626662D02*
X156502514Y-120674281D01*
X156502514Y-120674281D02*
X156454895Y-120674281D01*
X156454895Y-120674281D02*
X156359657Y-120626662D01*
X156359657Y-120626662D02*
X156312038Y-120579043D01*
X156312038Y-120579043D02*
X156264419Y-120483805D01*
X156264419Y-120483805D02*
X156264419Y-120293329D01*
X156264419Y-120293329D02*
X156312038Y-120198091D01*
X156312038Y-120198091D02*
X156359657Y-120150472D01*
X156359657Y-120150472D02*
X156454895Y-120102853D01*
X156454895Y-120102853D02*
X156502514Y-120102853D01*
X156502514Y-120102853D02*
X156597752Y-120150472D01*
X156597752Y-120150472D02*
X156645371Y-120198091D01*
X156645371Y-120198091D02*
X156692990Y-120293329D01*
X156692990Y-120293329D02*
X156692990Y-120483805D01*
X156692990Y-120483805D02*
X156740609Y-120579043D01*
X156740609Y-120579043D02*
X156788228Y-120626662D01*
X156788228Y-120626662D02*
X156883466Y-120674281D01*
X156883466Y-120674281D02*
X157073942Y-120674281D01*
X157073942Y-120674281D02*
X157169180Y-120626662D01*
X157169180Y-120626662D02*
X157216800Y-120579043D01*
X157216800Y-120579043D02*
X157264419Y-120483805D01*
X157264419Y-120483805D02*
X157264419Y-120293329D01*
X157264419Y-120293329D02*
X157216800Y-120198091D01*
X157216800Y-120198091D02*
X157169180Y-120150472D01*
X157169180Y-120150472D02*
X157073942Y-120102853D01*
X157073942Y-120102853D02*
X156883466Y-120102853D01*
X156883466Y-120102853D02*
X156788228Y-120150472D01*
X156788228Y-120150472D02*
X156740609Y-120198091D01*
X156740609Y-120198091D02*
X156692990Y-120293329D01*
X159753619Y-121055234D02*
X159753619Y-121626662D01*
X159753619Y-121340948D02*
X158753619Y-121340948D01*
X158753619Y-121340948D02*
X158896476Y-121436186D01*
X158896476Y-121436186D02*
X158991714Y-121531424D01*
X158991714Y-121531424D02*
X159039333Y-121626662D01*
X159753619Y-120579043D02*
X159753619Y-120388567D01*
X159753619Y-120388567D02*
X159706000Y-120293329D01*
X159706000Y-120293329D02*
X159658380Y-120245710D01*
X159658380Y-120245710D02*
X159515523Y-120150472D01*
X159515523Y-120150472D02*
X159325047Y-120102853D01*
X159325047Y-120102853D02*
X158944095Y-120102853D01*
X158944095Y-120102853D02*
X158848857Y-120150472D01*
X158848857Y-120150472D02*
X158801238Y-120198091D01*
X158801238Y-120198091D02*
X158753619Y-120293329D01*
X158753619Y-120293329D02*
X158753619Y-120483805D01*
X158753619Y-120483805D02*
X158801238Y-120579043D01*
X158801238Y-120579043D02*
X158848857Y-120626662D01*
X158848857Y-120626662D02*
X158944095Y-120674281D01*
X158944095Y-120674281D02*
X159182190Y-120674281D01*
X159182190Y-120674281D02*
X159277428Y-120626662D01*
X159277428Y-120626662D02*
X159325047Y-120579043D01*
X159325047Y-120579043D02*
X159372666Y-120483805D01*
X159372666Y-120483805D02*
X159372666Y-120293329D01*
X159372666Y-120293329D02*
X159325047Y-120198091D01*
X159325047Y-120198091D02*
X159277428Y-120150472D01*
X159277428Y-120150472D02*
X159182190Y-120102853D01*
X161417438Y-121080634D02*
X161369819Y-121175872D01*
X161369819Y-121175872D02*
X161369819Y-121318729D01*
X161369819Y-121318729D02*
X161417438Y-121461586D01*
X161417438Y-121461586D02*
X161512676Y-121556824D01*
X161512676Y-121556824D02*
X161607914Y-121604443D01*
X161607914Y-121604443D02*
X161798390Y-121652062D01*
X161798390Y-121652062D02*
X161941247Y-121652062D01*
X161941247Y-121652062D02*
X162131723Y-121604443D01*
X162131723Y-121604443D02*
X162226961Y-121556824D01*
X162226961Y-121556824D02*
X162322200Y-121461586D01*
X162322200Y-121461586D02*
X162369819Y-121318729D01*
X162369819Y-121318729D02*
X162369819Y-121223491D01*
X162369819Y-121223491D02*
X162322200Y-121080634D01*
X162322200Y-121080634D02*
X162274580Y-121033015D01*
X162274580Y-121033015D02*
X161941247Y-121033015D01*
X161941247Y-121033015D02*
X161941247Y-121223491D01*
X162369819Y-120604443D02*
X161369819Y-120604443D01*
X161369819Y-120604443D02*
X162369819Y-120033015D01*
X162369819Y-120033015D02*
X161369819Y-120033015D01*
X162369819Y-119556824D02*
X161369819Y-119556824D01*
X161369819Y-119556824D02*
X161369819Y-119318729D01*
X161369819Y-119318729D02*
X161417438Y-119175872D01*
X161417438Y-119175872D02*
X161512676Y-119080634D01*
X161512676Y-119080634D02*
X161607914Y-119033015D01*
X161607914Y-119033015D02*
X161798390Y-118985396D01*
X161798390Y-118985396D02*
X161941247Y-118985396D01*
X161941247Y-118985396D02*
X162131723Y-119033015D01*
X162131723Y-119033015D02*
X162226961Y-119080634D01*
X162226961Y-119080634D02*
X162322200Y-119175872D01*
X162322200Y-119175872D02*
X162369819Y-119318729D01*
X162369819Y-119318729D02*
X162369819Y-119556824D01*
X164055857Y-121575862D02*
X164008238Y-121528243D01*
X164008238Y-121528243D02*
X163960619Y-121433005D01*
X163960619Y-121433005D02*
X163960619Y-121194910D01*
X163960619Y-121194910D02*
X164008238Y-121099672D01*
X164008238Y-121099672D02*
X164055857Y-121052053D01*
X164055857Y-121052053D02*
X164151095Y-121004434D01*
X164151095Y-121004434D02*
X164246333Y-121004434D01*
X164246333Y-121004434D02*
X164389190Y-121052053D01*
X164389190Y-121052053D02*
X164960619Y-121623481D01*
X164960619Y-121623481D02*
X164960619Y-121004434D01*
X164960619Y-120052053D02*
X164960619Y-120623481D01*
X164960619Y-120337767D02*
X163960619Y-120337767D01*
X163960619Y-120337767D02*
X164103476Y-120433005D01*
X164103476Y-120433005D02*
X164198714Y-120528243D01*
X164198714Y-120528243D02*
X164246333Y-120623481D01*
X167475219Y-121033015D02*
X166999028Y-121366348D01*
X167475219Y-121604443D02*
X166475219Y-121604443D01*
X166475219Y-121604443D02*
X166475219Y-121223491D01*
X166475219Y-121223491D02*
X166522838Y-121128253D01*
X166522838Y-121128253D02*
X166570457Y-121080634D01*
X166570457Y-121080634D02*
X166665695Y-121033015D01*
X166665695Y-121033015D02*
X166808552Y-121033015D01*
X166808552Y-121033015D02*
X166903790Y-121080634D01*
X166903790Y-121080634D02*
X166951409Y-121128253D01*
X166951409Y-121128253D02*
X166999028Y-121223491D01*
X166999028Y-121223491D02*
X166999028Y-121604443D01*
X166475219Y-120699681D02*
X167475219Y-120033015D01*
X166475219Y-120033015D02*
X167475219Y-120699681D01*
X168939019Y-121696500D02*
X168939019Y-121125072D01*
X169939019Y-121410786D02*
X168939019Y-121410786D01*
X168939019Y-120886976D02*
X169939019Y-120220310D01*
X168939019Y-120220310D02*
X169939019Y-120886976D01*
X171675857Y-121423462D02*
X171628238Y-121375843D01*
X171628238Y-121375843D02*
X171580619Y-121280605D01*
X171580619Y-121280605D02*
X171580619Y-121042510D01*
X171580619Y-121042510D02*
X171628238Y-120947272D01*
X171628238Y-120947272D02*
X171675857Y-120899653D01*
X171675857Y-120899653D02*
X171771095Y-120852034D01*
X171771095Y-120852034D02*
X171866333Y-120852034D01*
X171866333Y-120852034D02*
X172009190Y-120899653D01*
X172009190Y-120899653D02*
X172580619Y-121471081D01*
X172580619Y-121471081D02*
X172580619Y-120852034D01*
X171675857Y-120471081D02*
X171628238Y-120423462D01*
X171628238Y-120423462D02*
X171580619Y-120328224D01*
X171580619Y-120328224D02*
X171580619Y-120090129D01*
X171580619Y-120090129D02*
X171628238Y-119994891D01*
X171628238Y-119994891D02*
X171675857Y-119947272D01*
X171675857Y-119947272D02*
X171771095Y-119899653D01*
X171771095Y-119899653D02*
X171866333Y-119899653D01*
X171866333Y-119899653D02*
X172009190Y-119947272D01*
X172009190Y-119947272D02*
X172580619Y-120518700D01*
X172580619Y-120518700D02*
X172580619Y-119899653D01*
X174088857Y-121271062D02*
X174041238Y-121223443D01*
X174041238Y-121223443D02*
X173993619Y-121128205D01*
X173993619Y-121128205D02*
X173993619Y-120890110D01*
X173993619Y-120890110D02*
X174041238Y-120794872D01*
X174041238Y-120794872D02*
X174088857Y-120747253D01*
X174088857Y-120747253D02*
X174184095Y-120699634D01*
X174184095Y-120699634D02*
X174279333Y-120699634D01*
X174279333Y-120699634D02*
X174422190Y-120747253D01*
X174422190Y-120747253D02*
X174993619Y-121318681D01*
X174993619Y-121318681D02*
X174993619Y-120699634D01*
X173993619Y-120366300D02*
X173993619Y-119747253D01*
X173993619Y-119747253D02*
X174374571Y-120080586D01*
X174374571Y-120080586D02*
X174374571Y-119937729D01*
X174374571Y-119937729D02*
X174422190Y-119842491D01*
X174422190Y-119842491D02*
X174469809Y-119794872D01*
X174469809Y-119794872D02*
X174565047Y-119747253D01*
X174565047Y-119747253D02*
X174803142Y-119747253D01*
X174803142Y-119747253D02*
X174898380Y-119794872D01*
X174898380Y-119794872D02*
X174946000Y-119842491D01*
X174946000Y-119842491D02*
X174993619Y-119937729D01*
X174993619Y-119937729D02*
X174993619Y-120223443D01*
X174993619Y-120223443D02*
X174946000Y-120318681D01*
X174946000Y-120318681D02*
X174898380Y-120366300D01*
X176606638Y-121233034D02*
X176559019Y-121328272D01*
X176559019Y-121328272D02*
X176559019Y-121471129D01*
X176559019Y-121471129D02*
X176606638Y-121613986D01*
X176606638Y-121613986D02*
X176701876Y-121709224D01*
X176701876Y-121709224D02*
X176797114Y-121756843D01*
X176797114Y-121756843D02*
X176987590Y-121804462D01*
X176987590Y-121804462D02*
X177130447Y-121804462D01*
X177130447Y-121804462D02*
X177320923Y-121756843D01*
X177320923Y-121756843D02*
X177416161Y-121709224D01*
X177416161Y-121709224D02*
X177511400Y-121613986D01*
X177511400Y-121613986D02*
X177559019Y-121471129D01*
X177559019Y-121471129D02*
X177559019Y-121375891D01*
X177559019Y-121375891D02*
X177511400Y-121233034D01*
X177511400Y-121233034D02*
X177463780Y-121185415D01*
X177463780Y-121185415D02*
X177130447Y-121185415D01*
X177130447Y-121185415D02*
X177130447Y-121375891D01*
X177559019Y-120756843D02*
X176559019Y-120756843D01*
X176559019Y-120756843D02*
X177559019Y-120185415D01*
X177559019Y-120185415D02*
X176559019Y-120185415D01*
X177559019Y-119709224D02*
X176559019Y-119709224D01*
X176559019Y-119709224D02*
X176559019Y-119471129D01*
X176559019Y-119471129D02*
X176606638Y-119328272D01*
X176606638Y-119328272D02*
X176701876Y-119233034D01*
X176701876Y-119233034D02*
X176797114Y-119185415D01*
X176797114Y-119185415D02*
X176987590Y-119137796D01*
X176987590Y-119137796D02*
X177130447Y-119137796D01*
X177130447Y-119137796D02*
X177320923Y-119185415D01*
X177320923Y-119185415D02*
X177416161Y-119233034D01*
X177416161Y-119233034D02*
X177511400Y-119328272D01*
X177511400Y-119328272D02*
X177559019Y-119471129D01*
X177559019Y-119471129D02*
X177559019Y-119709224D01*
X128375219Y-100833653D02*
X128375219Y-101309843D01*
X128375219Y-101309843D02*
X128851409Y-101357462D01*
X128851409Y-101357462D02*
X128803790Y-101309843D01*
X128803790Y-101309843D02*
X128756171Y-101214605D01*
X128756171Y-101214605D02*
X128756171Y-100976510D01*
X128756171Y-100976510D02*
X128803790Y-100881272D01*
X128803790Y-100881272D02*
X128851409Y-100833653D01*
X128851409Y-100833653D02*
X128946647Y-100786034D01*
X128946647Y-100786034D02*
X129184742Y-100786034D01*
X129184742Y-100786034D02*
X129279980Y-100833653D01*
X129279980Y-100833653D02*
X129327600Y-100881272D01*
X129327600Y-100881272D02*
X129375219Y-100976510D01*
X129375219Y-100976510D02*
X129375219Y-101214605D01*
X129375219Y-101214605D02*
X129327600Y-101309843D01*
X129327600Y-101309843D02*
X129279980Y-101357462D01*
X128375219Y-100500319D02*
X129375219Y-100166986D01*
X129375219Y-100166986D02*
X128375219Y-99833653D01*
X131194619Y-100630453D02*
X131194619Y-101106643D01*
X131194619Y-101106643D02*
X131670809Y-101154262D01*
X131670809Y-101154262D02*
X131623190Y-101106643D01*
X131623190Y-101106643D02*
X131575571Y-101011405D01*
X131575571Y-101011405D02*
X131575571Y-100773310D01*
X131575571Y-100773310D02*
X131623190Y-100678072D01*
X131623190Y-100678072D02*
X131670809Y-100630453D01*
X131670809Y-100630453D02*
X131766047Y-100582834D01*
X131766047Y-100582834D02*
X132004142Y-100582834D01*
X132004142Y-100582834D02*
X132099380Y-100630453D01*
X132099380Y-100630453D02*
X132147000Y-100678072D01*
X132147000Y-100678072D02*
X132194619Y-100773310D01*
X132194619Y-100773310D02*
X132194619Y-101011405D01*
X132194619Y-101011405D02*
X132147000Y-101106643D01*
X132147000Y-101106643D02*
X132099380Y-101154262D01*
X131194619Y-100297119D02*
X132194619Y-99963786D01*
X132194619Y-99963786D02*
X131194619Y-99630453D01*
X133633019Y-102522681D02*
X133633019Y-101903634D01*
X133633019Y-101903634D02*
X134013971Y-102236967D01*
X134013971Y-102236967D02*
X134013971Y-102094110D01*
X134013971Y-102094110D02*
X134061590Y-101998872D01*
X134061590Y-101998872D02*
X134109209Y-101951253D01*
X134109209Y-101951253D02*
X134204447Y-101903634D01*
X134204447Y-101903634D02*
X134442542Y-101903634D01*
X134442542Y-101903634D02*
X134537780Y-101951253D01*
X134537780Y-101951253D02*
X134585400Y-101998872D01*
X134585400Y-101998872D02*
X134633019Y-102094110D01*
X134633019Y-102094110D02*
X134633019Y-102379824D01*
X134633019Y-102379824D02*
X134585400Y-102475062D01*
X134585400Y-102475062D02*
X134537780Y-102522681D01*
X134537780Y-101475062D02*
X134585400Y-101427443D01*
X134585400Y-101427443D02*
X134633019Y-101475062D01*
X134633019Y-101475062D02*
X134585400Y-101522681D01*
X134585400Y-101522681D02*
X134537780Y-101475062D01*
X134537780Y-101475062D02*
X134633019Y-101475062D01*
X133633019Y-101094110D02*
X133633019Y-100475063D01*
X133633019Y-100475063D02*
X134013971Y-100808396D01*
X134013971Y-100808396D02*
X134013971Y-100665539D01*
X134013971Y-100665539D02*
X134061590Y-100570301D01*
X134061590Y-100570301D02*
X134109209Y-100522682D01*
X134109209Y-100522682D02*
X134204447Y-100475063D01*
X134204447Y-100475063D02*
X134442542Y-100475063D01*
X134442542Y-100475063D02*
X134537780Y-100522682D01*
X134537780Y-100522682D02*
X134585400Y-100570301D01*
X134585400Y-100570301D02*
X134633019Y-100665539D01*
X134633019Y-100665539D02*
X134633019Y-100951253D01*
X134633019Y-100951253D02*
X134585400Y-101046491D01*
X134585400Y-101046491D02*
X134537780Y-101094110D01*
X133633019Y-100189348D02*
X134633019Y-99856015D01*
X134633019Y-99856015D02*
X133633019Y-99522682D01*
X136071419Y-102522681D02*
X136071419Y-101903634D01*
X136071419Y-101903634D02*
X136452371Y-102236967D01*
X136452371Y-102236967D02*
X136452371Y-102094110D01*
X136452371Y-102094110D02*
X136499990Y-101998872D01*
X136499990Y-101998872D02*
X136547609Y-101951253D01*
X136547609Y-101951253D02*
X136642847Y-101903634D01*
X136642847Y-101903634D02*
X136880942Y-101903634D01*
X136880942Y-101903634D02*
X136976180Y-101951253D01*
X136976180Y-101951253D02*
X137023800Y-101998872D01*
X137023800Y-101998872D02*
X137071419Y-102094110D01*
X137071419Y-102094110D02*
X137071419Y-102379824D01*
X137071419Y-102379824D02*
X137023800Y-102475062D01*
X137023800Y-102475062D02*
X136976180Y-102522681D01*
X136976180Y-101475062D02*
X137023800Y-101427443D01*
X137023800Y-101427443D02*
X137071419Y-101475062D01*
X137071419Y-101475062D02*
X137023800Y-101522681D01*
X137023800Y-101522681D02*
X136976180Y-101475062D01*
X136976180Y-101475062D02*
X137071419Y-101475062D01*
X136071419Y-101094110D02*
X136071419Y-100475063D01*
X136071419Y-100475063D02*
X136452371Y-100808396D01*
X136452371Y-100808396D02*
X136452371Y-100665539D01*
X136452371Y-100665539D02*
X136499990Y-100570301D01*
X136499990Y-100570301D02*
X136547609Y-100522682D01*
X136547609Y-100522682D02*
X136642847Y-100475063D01*
X136642847Y-100475063D02*
X136880942Y-100475063D01*
X136880942Y-100475063D02*
X136976180Y-100522682D01*
X136976180Y-100522682D02*
X137023800Y-100570301D01*
X137023800Y-100570301D02*
X137071419Y-100665539D01*
X137071419Y-100665539D02*
X137071419Y-100951253D01*
X137071419Y-100951253D02*
X137023800Y-101046491D01*
X137023800Y-101046491D02*
X136976180Y-101094110D01*
X136071419Y-100189348D02*
X137071419Y-99856015D01*
X137071419Y-99856015D02*
X136071419Y-99522682D01*
X138611419Y-102675081D02*
X138611419Y-102056034D01*
X138611419Y-102056034D02*
X138992371Y-102389367D01*
X138992371Y-102389367D02*
X138992371Y-102246510D01*
X138992371Y-102246510D02*
X139039990Y-102151272D01*
X139039990Y-102151272D02*
X139087609Y-102103653D01*
X139087609Y-102103653D02*
X139182847Y-102056034D01*
X139182847Y-102056034D02*
X139420942Y-102056034D01*
X139420942Y-102056034D02*
X139516180Y-102103653D01*
X139516180Y-102103653D02*
X139563800Y-102151272D01*
X139563800Y-102151272D02*
X139611419Y-102246510D01*
X139611419Y-102246510D02*
X139611419Y-102532224D01*
X139611419Y-102532224D02*
X139563800Y-102627462D01*
X139563800Y-102627462D02*
X139516180Y-102675081D01*
X139516180Y-101627462D02*
X139563800Y-101579843D01*
X139563800Y-101579843D02*
X139611419Y-101627462D01*
X139611419Y-101627462D02*
X139563800Y-101675081D01*
X139563800Y-101675081D02*
X139516180Y-101627462D01*
X139516180Y-101627462D02*
X139611419Y-101627462D01*
X138611419Y-101246510D02*
X138611419Y-100627463D01*
X138611419Y-100627463D02*
X138992371Y-100960796D01*
X138992371Y-100960796D02*
X138992371Y-100817939D01*
X138992371Y-100817939D02*
X139039990Y-100722701D01*
X139039990Y-100722701D02*
X139087609Y-100675082D01*
X139087609Y-100675082D02*
X139182847Y-100627463D01*
X139182847Y-100627463D02*
X139420942Y-100627463D01*
X139420942Y-100627463D02*
X139516180Y-100675082D01*
X139516180Y-100675082D02*
X139563800Y-100722701D01*
X139563800Y-100722701D02*
X139611419Y-100817939D01*
X139611419Y-100817939D02*
X139611419Y-101103653D01*
X139611419Y-101103653D02*
X139563800Y-101198891D01*
X139563800Y-101198891D02*
X139516180Y-101246510D01*
X138611419Y-100341748D02*
X139611419Y-100008415D01*
X139611419Y-100008415D02*
X138611419Y-99675082D01*
X141922819Y-100684434D02*
X141922819Y-101255862D01*
X141922819Y-100970148D02*
X140922819Y-100970148D01*
X140922819Y-100970148D02*
X141065676Y-101065386D01*
X141065676Y-101065386D02*
X141160914Y-101160624D01*
X141160914Y-101160624D02*
X141208533Y-101255862D01*
X140922819Y-100351100D02*
X140922819Y-99732053D01*
X140922819Y-99732053D02*
X141303771Y-100065386D01*
X141303771Y-100065386D02*
X141303771Y-99922529D01*
X141303771Y-99922529D02*
X141351390Y-99827291D01*
X141351390Y-99827291D02*
X141399009Y-99779672D01*
X141399009Y-99779672D02*
X141494247Y-99732053D01*
X141494247Y-99732053D02*
X141732342Y-99732053D01*
X141732342Y-99732053D02*
X141827580Y-99779672D01*
X141827580Y-99779672D02*
X141875200Y-99827291D01*
X141875200Y-99827291D02*
X141922819Y-99922529D01*
X141922819Y-99922529D02*
X141922819Y-100208243D01*
X141922819Y-100208243D02*
X141875200Y-100303481D01*
X141875200Y-100303481D02*
X141827580Y-100351100D01*
X143662838Y-101649634D02*
X143615219Y-101744872D01*
X143615219Y-101744872D02*
X143615219Y-101887729D01*
X143615219Y-101887729D02*
X143662838Y-102030586D01*
X143662838Y-102030586D02*
X143758076Y-102125824D01*
X143758076Y-102125824D02*
X143853314Y-102173443D01*
X143853314Y-102173443D02*
X144043790Y-102221062D01*
X144043790Y-102221062D02*
X144186647Y-102221062D01*
X144186647Y-102221062D02*
X144377123Y-102173443D01*
X144377123Y-102173443D02*
X144472361Y-102125824D01*
X144472361Y-102125824D02*
X144567600Y-102030586D01*
X144567600Y-102030586D02*
X144615219Y-101887729D01*
X144615219Y-101887729D02*
X144615219Y-101792491D01*
X144615219Y-101792491D02*
X144567600Y-101649634D01*
X144567600Y-101649634D02*
X144519980Y-101602015D01*
X144519980Y-101602015D02*
X144186647Y-101602015D01*
X144186647Y-101602015D02*
X144186647Y-101792491D01*
X144615219Y-101173443D02*
X143615219Y-101173443D01*
X143615219Y-101173443D02*
X144615219Y-100602015D01*
X144615219Y-100602015D02*
X143615219Y-100602015D01*
X144615219Y-100125824D02*
X143615219Y-100125824D01*
X143615219Y-100125824D02*
X143615219Y-99887729D01*
X143615219Y-99887729D02*
X143662838Y-99744872D01*
X143662838Y-99744872D02*
X143758076Y-99649634D01*
X143758076Y-99649634D02*
X143853314Y-99602015D01*
X143853314Y-99602015D02*
X144043790Y-99554396D01*
X144043790Y-99554396D02*
X144186647Y-99554396D01*
X144186647Y-99554396D02*
X144377123Y-99602015D01*
X144377123Y-99602015D02*
X144472361Y-99649634D01*
X144472361Y-99649634D02*
X144567600Y-99744872D01*
X144567600Y-99744872D02*
X144615219Y-99887729D01*
X144615219Y-99887729D02*
X144615219Y-100125824D01*
X147104419Y-100684434D02*
X147104419Y-101255862D01*
X147104419Y-100970148D02*
X146104419Y-100970148D01*
X146104419Y-100970148D02*
X146247276Y-101065386D01*
X146247276Y-101065386D02*
X146342514Y-101160624D01*
X146342514Y-101160624D02*
X146390133Y-101255862D01*
X146199657Y-100303481D02*
X146152038Y-100255862D01*
X146152038Y-100255862D02*
X146104419Y-100160624D01*
X146104419Y-100160624D02*
X146104419Y-99922529D01*
X146104419Y-99922529D02*
X146152038Y-99827291D01*
X146152038Y-99827291D02*
X146199657Y-99779672D01*
X146199657Y-99779672D02*
X146294895Y-99732053D01*
X146294895Y-99732053D02*
X146390133Y-99732053D01*
X146390133Y-99732053D02*
X146532990Y-99779672D01*
X146532990Y-99779672D02*
X147104419Y-100351100D01*
X147104419Y-100351100D02*
X147104419Y-99732053D01*
X149695219Y-100684434D02*
X149695219Y-101255862D01*
X149695219Y-100970148D02*
X148695219Y-100970148D01*
X148695219Y-100970148D02*
X148838076Y-101065386D01*
X148838076Y-101065386D02*
X148933314Y-101160624D01*
X148933314Y-101160624D02*
X148980933Y-101255862D01*
X149028552Y-99827291D02*
X149695219Y-99827291D01*
X148647600Y-100065386D02*
X149361885Y-100303481D01*
X149361885Y-100303481D02*
X149361885Y-99684434D01*
X151355857Y-101154262D02*
X151308238Y-101106643D01*
X151308238Y-101106643D02*
X151260619Y-101011405D01*
X151260619Y-101011405D02*
X151260619Y-100773310D01*
X151260619Y-100773310D02*
X151308238Y-100678072D01*
X151308238Y-100678072D02*
X151355857Y-100630453D01*
X151355857Y-100630453D02*
X151451095Y-100582834D01*
X151451095Y-100582834D02*
X151546333Y-100582834D01*
X151546333Y-100582834D02*
X151689190Y-100630453D01*
X151689190Y-100630453D02*
X152260619Y-101201881D01*
X152260619Y-101201881D02*
X152260619Y-100582834D01*
X151260619Y-100249500D02*
X151260619Y-99582834D01*
X151260619Y-99582834D02*
X152260619Y-100011405D01*
X153997457Y-101103462D02*
X153949838Y-101055843D01*
X153949838Y-101055843D02*
X153902219Y-100960605D01*
X153902219Y-100960605D02*
X153902219Y-100722510D01*
X153902219Y-100722510D02*
X153949838Y-100627272D01*
X153949838Y-100627272D02*
X153997457Y-100579653D01*
X153997457Y-100579653D02*
X154092695Y-100532034D01*
X154092695Y-100532034D02*
X154187933Y-100532034D01*
X154187933Y-100532034D02*
X154330790Y-100579653D01*
X154330790Y-100579653D02*
X154902219Y-101151081D01*
X154902219Y-101151081D02*
X154902219Y-100532034D01*
X153902219Y-99674891D02*
X153902219Y-99865367D01*
X153902219Y-99865367D02*
X153949838Y-99960605D01*
X153949838Y-99960605D02*
X153997457Y-100008224D01*
X153997457Y-100008224D02*
X154140314Y-100103462D01*
X154140314Y-100103462D02*
X154330790Y-100151081D01*
X154330790Y-100151081D02*
X154711742Y-100151081D01*
X154711742Y-100151081D02*
X154806980Y-100103462D01*
X154806980Y-100103462D02*
X154854600Y-100055843D01*
X154854600Y-100055843D02*
X154902219Y-99960605D01*
X154902219Y-99960605D02*
X154902219Y-99770129D01*
X154902219Y-99770129D02*
X154854600Y-99674891D01*
X154854600Y-99674891D02*
X154806980Y-99627272D01*
X154806980Y-99627272D02*
X154711742Y-99579653D01*
X154711742Y-99579653D02*
X154473647Y-99579653D01*
X154473647Y-99579653D02*
X154378409Y-99627272D01*
X154378409Y-99627272D02*
X154330790Y-99674891D01*
X154330790Y-99674891D02*
X154283171Y-99770129D01*
X154283171Y-99770129D02*
X154283171Y-99960605D01*
X154283171Y-99960605D02*
X154330790Y-100055843D01*
X154330790Y-100055843D02*
X154378409Y-100103462D01*
X154378409Y-100103462D02*
X154473647Y-100151081D01*
X156385057Y-101103462D02*
X156337438Y-101055843D01*
X156337438Y-101055843D02*
X156289819Y-100960605D01*
X156289819Y-100960605D02*
X156289819Y-100722510D01*
X156289819Y-100722510D02*
X156337438Y-100627272D01*
X156337438Y-100627272D02*
X156385057Y-100579653D01*
X156385057Y-100579653D02*
X156480295Y-100532034D01*
X156480295Y-100532034D02*
X156575533Y-100532034D01*
X156575533Y-100532034D02*
X156718390Y-100579653D01*
X156718390Y-100579653D02*
X157289819Y-101151081D01*
X157289819Y-101151081D02*
X157289819Y-100532034D01*
X156289819Y-99627272D02*
X156289819Y-100103462D01*
X156289819Y-100103462D02*
X156766009Y-100151081D01*
X156766009Y-100151081D02*
X156718390Y-100103462D01*
X156718390Y-100103462D02*
X156670771Y-100008224D01*
X156670771Y-100008224D02*
X156670771Y-99770129D01*
X156670771Y-99770129D02*
X156718390Y-99674891D01*
X156718390Y-99674891D02*
X156766009Y-99627272D01*
X156766009Y-99627272D02*
X156861247Y-99579653D01*
X156861247Y-99579653D02*
X157099342Y-99579653D01*
X157099342Y-99579653D02*
X157194580Y-99627272D01*
X157194580Y-99627272D02*
X157242200Y-99674891D01*
X157242200Y-99674891D02*
X157289819Y-99770129D01*
X157289819Y-99770129D02*
X157289819Y-100008224D01*
X157289819Y-100008224D02*
X157242200Y-100103462D01*
X157242200Y-100103462D02*
X157194580Y-100151081D01*
X158880619Y-101049481D02*
X158880619Y-100430434D01*
X158880619Y-100430434D02*
X159261571Y-100763767D01*
X159261571Y-100763767D02*
X159261571Y-100620910D01*
X159261571Y-100620910D02*
X159309190Y-100525672D01*
X159309190Y-100525672D02*
X159356809Y-100478053D01*
X159356809Y-100478053D02*
X159452047Y-100430434D01*
X159452047Y-100430434D02*
X159690142Y-100430434D01*
X159690142Y-100430434D02*
X159785380Y-100478053D01*
X159785380Y-100478053D02*
X159833000Y-100525672D01*
X159833000Y-100525672D02*
X159880619Y-100620910D01*
X159880619Y-100620910D02*
X159880619Y-100906624D01*
X159880619Y-100906624D02*
X159833000Y-101001862D01*
X159833000Y-101001862D02*
X159785380Y-101049481D01*
X158880619Y-100097100D02*
X158880619Y-99478053D01*
X158880619Y-99478053D02*
X159261571Y-99811386D01*
X159261571Y-99811386D02*
X159261571Y-99668529D01*
X159261571Y-99668529D02*
X159309190Y-99573291D01*
X159309190Y-99573291D02*
X159356809Y-99525672D01*
X159356809Y-99525672D02*
X159452047Y-99478053D01*
X159452047Y-99478053D02*
X159690142Y-99478053D01*
X159690142Y-99478053D02*
X159785380Y-99525672D01*
X159785380Y-99525672D02*
X159833000Y-99573291D01*
X159833000Y-99573291D02*
X159880619Y-99668529D01*
X159880619Y-99668529D02*
X159880619Y-99954243D01*
X159880619Y-99954243D02*
X159833000Y-100049481D01*
X159833000Y-100049481D02*
X159785380Y-100097100D01*
X161344419Y-101100281D02*
X161344419Y-100481234D01*
X161344419Y-100481234D02*
X161725371Y-100814567D01*
X161725371Y-100814567D02*
X161725371Y-100671710D01*
X161725371Y-100671710D02*
X161772990Y-100576472D01*
X161772990Y-100576472D02*
X161820609Y-100528853D01*
X161820609Y-100528853D02*
X161915847Y-100481234D01*
X161915847Y-100481234D02*
X162153942Y-100481234D01*
X162153942Y-100481234D02*
X162249180Y-100528853D01*
X162249180Y-100528853D02*
X162296800Y-100576472D01*
X162296800Y-100576472D02*
X162344419Y-100671710D01*
X162344419Y-100671710D02*
X162344419Y-100957424D01*
X162344419Y-100957424D02*
X162296800Y-101052662D01*
X162296800Y-101052662D02*
X162249180Y-101100281D01*
X161439657Y-100100281D02*
X161392038Y-100052662D01*
X161392038Y-100052662D02*
X161344419Y-99957424D01*
X161344419Y-99957424D02*
X161344419Y-99719329D01*
X161344419Y-99719329D02*
X161392038Y-99624091D01*
X161392038Y-99624091D02*
X161439657Y-99576472D01*
X161439657Y-99576472D02*
X161534895Y-99528853D01*
X161534895Y-99528853D02*
X161630133Y-99528853D01*
X161630133Y-99528853D02*
X161772990Y-99576472D01*
X161772990Y-99576472D02*
X162344419Y-100147900D01*
X162344419Y-100147900D02*
X162344419Y-99528853D01*
X163884419Y-101049481D02*
X163884419Y-100430434D01*
X163884419Y-100430434D02*
X164265371Y-100763767D01*
X164265371Y-100763767D02*
X164265371Y-100620910D01*
X164265371Y-100620910D02*
X164312990Y-100525672D01*
X164312990Y-100525672D02*
X164360609Y-100478053D01*
X164360609Y-100478053D02*
X164455847Y-100430434D01*
X164455847Y-100430434D02*
X164693942Y-100430434D01*
X164693942Y-100430434D02*
X164789180Y-100478053D01*
X164789180Y-100478053D02*
X164836800Y-100525672D01*
X164836800Y-100525672D02*
X164884419Y-100620910D01*
X164884419Y-100620910D02*
X164884419Y-100906624D01*
X164884419Y-100906624D02*
X164836800Y-101001862D01*
X164836800Y-101001862D02*
X164789180Y-101049481D01*
X163884419Y-99525672D02*
X163884419Y-100001862D01*
X163884419Y-100001862D02*
X164360609Y-100049481D01*
X164360609Y-100049481D02*
X164312990Y-100001862D01*
X164312990Y-100001862D02*
X164265371Y-99906624D01*
X164265371Y-99906624D02*
X164265371Y-99668529D01*
X164265371Y-99668529D02*
X164312990Y-99573291D01*
X164312990Y-99573291D02*
X164360609Y-99525672D01*
X164360609Y-99525672D02*
X164455847Y-99478053D01*
X164455847Y-99478053D02*
X164693942Y-99478053D01*
X164693942Y-99478053D02*
X164789180Y-99525672D01*
X164789180Y-99525672D02*
X164836800Y-99573291D01*
X164836800Y-99573291D02*
X164884419Y-99668529D01*
X164884419Y-99668529D02*
X164884419Y-99906624D01*
X164884419Y-99906624D02*
X164836800Y-100001862D01*
X164836800Y-100001862D02*
X164789180Y-100049481D01*
X166322819Y-101100281D02*
X166322819Y-100481234D01*
X166322819Y-100481234D02*
X166703771Y-100814567D01*
X166703771Y-100814567D02*
X166703771Y-100671710D01*
X166703771Y-100671710D02*
X166751390Y-100576472D01*
X166751390Y-100576472D02*
X166799009Y-100528853D01*
X166799009Y-100528853D02*
X166894247Y-100481234D01*
X166894247Y-100481234D02*
X167132342Y-100481234D01*
X167132342Y-100481234D02*
X167227580Y-100528853D01*
X167227580Y-100528853D02*
X167275200Y-100576472D01*
X167275200Y-100576472D02*
X167322819Y-100671710D01*
X167322819Y-100671710D02*
X167322819Y-100957424D01*
X167322819Y-100957424D02*
X167275200Y-101052662D01*
X167275200Y-101052662D02*
X167227580Y-101100281D01*
X166656152Y-99624091D02*
X167322819Y-99624091D01*
X166275200Y-99862186D02*
X166989485Y-100100281D01*
X166989485Y-100100281D02*
X166989485Y-99481234D01*
X168989819Y-100944700D02*
X169989819Y-100611367D01*
X169989819Y-100611367D02*
X168989819Y-100278034D01*
X169323152Y-99944700D02*
X169989819Y-99944700D01*
X169418390Y-99944700D02*
X169370771Y-99897081D01*
X169370771Y-99897081D02*
X169323152Y-99801843D01*
X169323152Y-99801843D02*
X169323152Y-99658986D01*
X169323152Y-99658986D02*
X169370771Y-99563748D01*
X169370771Y-99563748D02*
X169466009Y-99516129D01*
X169466009Y-99516129D02*
X169989819Y-99516129D01*
X171479019Y-100893900D02*
X172479019Y-100560567D01*
X172479019Y-100560567D02*
X171479019Y-100227234D01*
X171812352Y-99893900D02*
X172812352Y-99893900D01*
X171859971Y-99893900D02*
X171812352Y-99798662D01*
X171812352Y-99798662D02*
X171812352Y-99608186D01*
X171812352Y-99608186D02*
X171859971Y-99512948D01*
X171859971Y-99512948D02*
X171907590Y-99465329D01*
X171907590Y-99465329D02*
X172002828Y-99417710D01*
X172002828Y-99417710D02*
X172288542Y-99417710D01*
X172288542Y-99417710D02*
X172383780Y-99465329D01*
X172383780Y-99465329D02*
X172431400Y-99512948D01*
X172431400Y-99512948D02*
X172479019Y-99608186D01*
X172479019Y-99608186D02*
X172479019Y-99798662D01*
X172479019Y-99798662D02*
X172431400Y-99893900D01*
X174495209Y-100852643D02*
X174495209Y-100519310D01*
X175019019Y-100376453D02*
X175019019Y-100852643D01*
X175019019Y-100852643D02*
X174019019Y-100852643D01*
X174019019Y-100852643D02*
X174019019Y-100376453D01*
X175019019Y-99947881D02*
X174019019Y-99947881D01*
X174019019Y-99947881D02*
X175019019Y-99376453D01*
X175019019Y-99376453D02*
X174019019Y-99376453D01*
X176660619Y-102421081D02*
X176660619Y-101802034D01*
X176660619Y-101802034D02*
X177041571Y-102135367D01*
X177041571Y-102135367D02*
X177041571Y-101992510D01*
X177041571Y-101992510D02*
X177089190Y-101897272D01*
X177089190Y-101897272D02*
X177136809Y-101849653D01*
X177136809Y-101849653D02*
X177232047Y-101802034D01*
X177232047Y-101802034D02*
X177470142Y-101802034D01*
X177470142Y-101802034D02*
X177565380Y-101849653D01*
X177565380Y-101849653D02*
X177613000Y-101897272D01*
X177613000Y-101897272D02*
X177660619Y-101992510D01*
X177660619Y-101992510D02*
X177660619Y-102278224D01*
X177660619Y-102278224D02*
X177613000Y-102373462D01*
X177613000Y-102373462D02*
X177565380Y-102421081D01*
X177565380Y-101373462D02*
X177613000Y-101325843D01*
X177613000Y-101325843D02*
X177660619Y-101373462D01*
X177660619Y-101373462D02*
X177613000Y-101421081D01*
X177613000Y-101421081D02*
X177565380Y-101373462D01*
X177565380Y-101373462D02*
X177660619Y-101373462D01*
X176660619Y-100992510D02*
X176660619Y-100373463D01*
X176660619Y-100373463D02*
X177041571Y-100706796D01*
X177041571Y-100706796D02*
X177041571Y-100563939D01*
X177041571Y-100563939D02*
X177089190Y-100468701D01*
X177089190Y-100468701D02*
X177136809Y-100421082D01*
X177136809Y-100421082D02*
X177232047Y-100373463D01*
X177232047Y-100373463D02*
X177470142Y-100373463D01*
X177470142Y-100373463D02*
X177565380Y-100421082D01*
X177565380Y-100421082D02*
X177613000Y-100468701D01*
X177613000Y-100468701D02*
X177660619Y-100563939D01*
X177660619Y-100563939D02*
X177660619Y-100849653D01*
X177660619Y-100849653D02*
X177613000Y-100944891D01*
X177613000Y-100944891D02*
X177565380Y-100992510D01*
X176660619Y-100087748D02*
X177660619Y-99754415D01*
X177660619Y-99754415D02*
X176660619Y-99421082D01*
X202906019Y-105386515D02*
X201906019Y-105386515D01*
X202906019Y-104910325D02*
X201906019Y-104910325D01*
X201906019Y-104910325D02*
X202906019Y-104338897D01*
X202906019Y-104338897D02*
X201906019Y-104338897D01*
X202906019Y-103338897D02*
X202906019Y-103910325D01*
X202906019Y-103624611D02*
X201906019Y-103624611D01*
X201906019Y-103624611D02*
X202048876Y-103719849D01*
X202048876Y-103719849D02*
X202144114Y-103815087D01*
X202144114Y-103815087D02*
X202191733Y-103910325D01*
X200416819Y-105640515D02*
X199416819Y-105640515D01*
X200416819Y-105164325D02*
X199416819Y-105164325D01*
X199416819Y-105164325D02*
X200416819Y-104592897D01*
X200416819Y-104592897D02*
X199416819Y-104592897D01*
X199512057Y-104164325D02*
X199464438Y-104116706D01*
X199464438Y-104116706D02*
X199416819Y-104021468D01*
X199416819Y-104021468D02*
X199416819Y-103783373D01*
X199416819Y-103783373D02*
X199464438Y-103688135D01*
X199464438Y-103688135D02*
X199512057Y-103640516D01*
X199512057Y-103640516D02*
X199607295Y-103592897D01*
X199607295Y-103592897D02*
X199702533Y-103592897D01*
X199702533Y-103592897D02*
X199845390Y-103640516D01*
X199845390Y-103640516D02*
X200416819Y-104211944D01*
X200416819Y-104211944D02*
X200416819Y-103592897D01*
X196826019Y-105910372D02*
X197826019Y-105577039D01*
X197826019Y-105577039D02*
X196826019Y-105243706D01*
X197778400Y-104481801D02*
X197826019Y-104577039D01*
X197826019Y-104577039D02*
X197826019Y-104767515D01*
X197826019Y-104767515D02*
X197778400Y-104862753D01*
X197778400Y-104862753D02*
X197730780Y-104910372D01*
X197730780Y-104910372D02*
X197635542Y-104957991D01*
X197635542Y-104957991D02*
X197349828Y-104957991D01*
X197349828Y-104957991D02*
X197254590Y-104910372D01*
X197254590Y-104910372D02*
X197206971Y-104862753D01*
X197206971Y-104862753D02*
X197159352Y-104767515D01*
X197159352Y-104767515D02*
X197159352Y-104577039D01*
X197159352Y-104577039D02*
X197206971Y-104481801D01*
X197778400Y-103624658D02*
X197826019Y-103719896D01*
X197826019Y-103719896D02*
X197826019Y-103910372D01*
X197826019Y-103910372D02*
X197778400Y-104005610D01*
X197778400Y-104005610D02*
X197730780Y-104053229D01*
X197730780Y-104053229D02*
X197635542Y-104100848D01*
X197635542Y-104100848D02*
X197349828Y-104100848D01*
X197349828Y-104100848D02*
X197254590Y-104053229D01*
X197254590Y-104053229D02*
X197206971Y-104005610D01*
X197206971Y-104005610D02*
X197159352Y-103910372D01*
X197159352Y-103910372D02*
X197159352Y-103719896D01*
X197159352Y-103719896D02*
X197206971Y-103624658D01*
X194435238Y-105523106D02*
X194387619Y-105618344D01*
X194387619Y-105618344D02*
X194387619Y-105761201D01*
X194387619Y-105761201D02*
X194435238Y-105904058D01*
X194435238Y-105904058D02*
X194530476Y-105999296D01*
X194530476Y-105999296D02*
X194625714Y-106046915D01*
X194625714Y-106046915D02*
X194816190Y-106094534D01*
X194816190Y-106094534D02*
X194959047Y-106094534D01*
X194959047Y-106094534D02*
X195149523Y-106046915D01*
X195149523Y-106046915D02*
X195244761Y-105999296D01*
X195244761Y-105999296D02*
X195340000Y-105904058D01*
X195340000Y-105904058D02*
X195387619Y-105761201D01*
X195387619Y-105761201D02*
X195387619Y-105665963D01*
X195387619Y-105665963D02*
X195340000Y-105523106D01*
X195340000Y-105523106D02*
X195292380Y-105475487D01*
X195292380Y-105475487D02*
X194959047Y-105475487D01*
X194959047Y-105475487D02*
X194959047Y-105665963D01*
X195387619Y-105046915D02*
X194387619Y-105046915D01*
X194387619Y-105046915D02*
X195387619Y-104475487D01*
X195387619Y-104475487D02*
X194387619Y-104475487D01*
X195387619Y-103999296D02*
X194387619Y-103999296D01*
X194387619Y-103999296D02*
X194387619Y-103761201D01*
X194387619Y-103761201D02*
X194435238Y-103618344D01*
X194435238Y-103618344D02*
X194530476Y-103523106D01*
X194530476Y-103523106D02*
X194625714Y-103475487D01*
X194625714Y-103475487D02*
X194816190Y-103427868D01*
X194816190Y-103427868D02*
X194959047Y-103427868D01*
X194959047Y-103427868D02*
X195149523Y-103475487D01*
X195149523Y-103475487D02*
X195244761Y-103523106D01*
X195244761Y-103523106D02*
X195340000Y-103618344D01*
X195340000Y-103618344D02*
X195387619Y-103761201D01*
X195387619Y-103761201D02*
X195387619Y-103999296D01*
X192873019Y-105615115D02*
X191873019Y-105615115D01*
X192873019Y-105138925D02*
X191873019Y-105138925D01*
X191873019Y-105138925D02*
X192873019Y-104567497D01*
X192873019Y-104567497D02*
X191873019Y-104567497D01*
X191873019Y-104186544D02*
X191873019Y-103567497D01*
X191873019Y-103567497D02*
X192253971Y-103900830D01*
X192253971Y-103900830D02*
X192253971Y-103757973D01*
X192253971Y-103757973D02*
X192301590Y-103662735D01*
X192301590Y-103662735D02*
X192349209Y-103615116D01*
X192349209Y-103615116D02*
X192444447Y-103567497D01*
X192444447Y-103567497D02*
X192682542Y-103567497D01*
X192682542Y-103567497D02*
X192777780Y-103615116D01*
X192777780Y-103615116D02*
X192825400Y-103662735D01*
X192825400Y-103662735D02*
X192873019Y-103757973D01*
X192873019Y-103757973D02*
X192873019Y-104043687D01*
X192873019Y-104043687D02*
X192825400Y-104138925D01*
X192825400Y-104138925D02*
X192777780Y-104186544D01*
X190256819Y-105716715D02*
X189256819Y-105716715D01*
X190256819Y-105240525D02*
X189256819Y-105240525D01*
X189256819Y-105240525D02*
X190256819Y-104669097D01*
X190256819Y-104669097D02*
X189256819Y-104669097D01*
X189590152Y-103764335D02*
X190256819Y-103764335D01*
X189209200Y-104002430D02*
X189923485Y-104240525D01*
X189923485Y-104240525D02*
X189923485Y-103621478D01*
X201982219Y-116257715D02*
X202791742Y-116257715D01*
X202791742Y-116257715D02*
X202886980Y-116210096D01*
X202886980Y-116210096D02*
X202934600Y-116162477D01*
X202934600Y-116162477D02*
X202982219Y-116067239D01*
X202982219Y-116067239D02*
X202982219Y-115876763D01*
X202982219Y-115876763D02*
X202934600Y-115781525D01*
X202934600Y-115781525D02*
X202886980Y-115733906D01*
X202886980Y-115733906D02*
X202791742Y-115686287D01*
X202791742Y-115686287D02*
X201982219Y-115686287D01*
X202982219Y-114733906D02*
X202982219Y-115210096D01*
X202982219Y-115210096D02*
X201982219Y-115210096D01*
X201982219Y-114543429D02*
X201982219Y-113972001D01*
X202982219Y-114257715D02*
X201982219Y-114257715D01*
X199416819Y-115940239D02*
X199416819Y-115749763D01*
X199416819Y-115749763D02*
X199464438Y-115654525D01*
X199464438Y-115654525D02*
X199559676Y-115559287D01*
X199559676Y-115559287D02*
X199750152Y-115511668D01*
X199750152Y-115511668D02*
X200083485Y-115511668D01*
X200083485Y-115511668D02*
X200273961Y-115559287D01*
X200273961Y-115559287D02*
X200369200Y-115654525D01*
X200369200Y-115654525D02*
X200416819Y-115749763D01*
X200416819Y-115749763D02*
X200416819Y-115940239D01*
X200416819Y-115940239D02*
X200369200Y-116035477D01*
X200369200Y-116035477D02*
X200273961Y-116130715D01*
X200273961Y-116130715D02*
X200083485Y-116178334D01*
X200083485Y-116178334D02*
X199750152Y-116178334D01*
X199750152Y-116178334D02*
X199559676Y-116130715D01*
X199559676Y-116130715D02*
X199464438Y-116035477D01*
X199464438Y-116035477D02*
X199416819Y-115940239D01*
X199416819Y-115083096D02*
X200226342Y-115083096D01*
X200226342Y-115083096D02*
X200321580Y-115035477D01*
X200321580Y-115035477D02*
X200369200Y-114987858D01*
X200369200Y-114987858D02*
X200416819Y-114892620D01*
X200416819Y-114892620D02*
X200416819Y-114702144D01*
X200416819Y-114702144D02*
X200369200Y-114606906D01*
X200369200Y-114606906D02*
X200321580Y-114559287D01*
X200321580Y-114559287D02*
X200226342Y-114511668D01*
X200226342Y-114511668D02*
X199416819Y-114511668D01*
X199416819Y-114178334D02*
X199416819Y-113606906D01*
X200416819Y-113892620D02*
X199416819Y-113892620D01*
X199750152Y-112845001D02*
X200416819Y-112845001D01*
X199369200Y-113083096D02*
X200083485Y-113321191D01*
X200083485Y-113321191D02*
X200083485Y-112702144D01*
X196724419Y-115940239D02*
X196724419Y-115749763D01*
X196724419Y-115749763D02*
X196772038Y-115654525D01*
X196772038Y-115654525D02*
X196867276Y-115559287D01*
X196867276Y-115559287D02*
X197057752Y-115511668D01*
X197057752Y-115511668D02*
X197391085Y-115511668D01*
X197391085Y-115511668D02*
X197581561Y-115559287D01*
X197581561Y-115559287D02*
X197676800Y-115654525D01*
X197676800Y-115654525D02*
X197724419Y-115749763D01*
X197724419Y-115749763D02*
X197724419Y-115940239D01*
X197724419Y-115940239D02*
X197676800Y-116035477D01*
X197676800Y-116035477D02*
X197581561Y-116130715D01*
X197581561Y-116130715D02*
X197391085Y-116178334D01*
X197391085Y-116178334D02*
X197057752Y-116178334D01*
X197057752Y-116178334D02*
X196867276Y-116130715D01*
X196867276Y-116130715D02*
X196772038Y-116035477D01*
X196772038Y-116035477D02*
X196724419Y-115940239D01*
X196724419Y-115083096D02*
X197533942Y-115083096D01*
X197533942Y-115083096D02*
X197629180Y-115035477D01*
X197629180Y-115035477D02*
X197676800Y-114987858D01*
X197676800Y-114987858D02*
X197724419Y-114892620D01*
X197724419Y-114892620D02*
X197724419Y-114702144D01*
X197724419Y-114702144D02*
X197676800Y-114606906D01*
X197676800Y-114606906D02*
X197629180Y-114559287D01*
X197629180Y-114559287D02*
X197533942Y-114511668D01*
X197533942Y-114511668D02*
X196724419Y-114511668D01*
X196724419Y-114178334D02*
X196724419Y-113606906D01*
X197724419Y-113892620D02*
X196724419Y-113892620D01*
X196724419Y-113368810D02*
X196724419Y-112749763D01*
X196724419Y-112749763D02*
X197105371Y-113083096D01*
X197105371Y-113083096D02*
X197105371Y-112940239D01*
X197105371Y-112940239D02*
X197152990Y-112845001D01*
X197152990Y-112845001D02*
X197200609Y-112797382D01*
X197200609Y-112797382D02*
X197295847Y-112749763D01*
X197295847Y-112749763D02*
X197533942Y-112749763D01*
X197533942Y-112749763D02*
X197629180Y-112797382D01*
X197629180Y-112797382D02*
X197676800Y-112845001D01*
X197676800Y-112845001D02*
X197724419Y-112940239D01*
X197724419Y-112940239D02*
X197724419Y-113225953D01*
X197724419Y-113225953D02*
X197676800Y-113321191D01*
X197676800Y-113321191D02*
X197629180Y-113368810D01*
X194362219Y-115965639D02*
X194362219Y-115775163D01*
X194362219Y-115775163D02*
X194409838Y-115679925D01*
X194409838Y-115679925D02*
X194505076Y-115584687D01*
X194505076Y-115584687D02*
X194695552Y-115537068D01*
X194695552Y-115537068D02*
X195028885Y-115537068D01*
X195028885Y-115537068D02*
X195219361Y-115584687D01*
X195219361Y-115584687D02*
X195314600Y-115679925D01*
X195314600Y-115679925D02*
X195362219Y-115775163D01*
X195362219Y-115775163D02*
X195362219Y-115965639D01*
X195362219Y-115965639D02*
X195314600Y-116060877D01*
X195314600Y-116060877D02*
X195219361Y-116156115D01*
X195219361Y-116156115D02*
X195028885Y-116203734D01*
X195028885Y-116203734D02*
X194695552Y-116203734D01*
X194695552Y-116203734D02*
X194505076Y-116156115D01*
X194505076Y-116156115D02*
X194409838Y-116060877D01*
X194409838Y-116060877D02*
X194362219Y-115965639D01*
X194362219Y-115108496D02*
X195171742Y-115108496D01*
X195171742Y-115108496D02*
X195266980Y-115060877D01*
X195266980Y-115060877D02*
X195314600Y-115013258D01*
X195314600Y-115013258D02*
X195362219Y-114918020D01*
X195362219Y-114918020D02*
X195362219Y-114727544D01*
X195362219Y-114727544D02*
X195314600Y-114632306D01*
X195314600Y-114632306D02*
X195266980Y-114584687D01*
X195266980Y-114584687D02*
X195171742Y-114537068D01*
X195171742Y-114537068D02*
X194362219Y-114537068D01*
X194362219Y-114203734D02*
X194362219Y-113632306D01*
X195362219Y-113918020D02*
X194362219Y-113918020D01*
X194457457Y-113346591D02*
X194409838Y-113298972D01*
X194409838Y-113298972D02*
X194362219Y-113203734D01*
X194362219Y-113203734D02*
X194362219Y-112965639D01*
X194362219Y-112965639D02*
X194409838Y-112870401D01*
X194409838Y-112870401D02*
X194457457Y-112822782D01*
X194457457Y-112822782D02*
X194552695Y-112775163D01*
X194552695Y-112775163D02*
X194647933Y-112775163D01*
X194647933Y-112775163D02*
X194790790Y-112822782D01*
X194790790Y-112822782D02*
X195362219Y-113394210D01*
X195362219Y-113394210D02*
X195362219Y-112775163D01*
X191746019Y-116016439D02*
X191746019Y-115825963D01*
X191746019Y-115825963D02*
X191793638Y-115730725D01*
X191793638Y-115730725D02*
X191888876Y-115635487D01*
X191888876Y-115635487D02*
X192079352Y-115587868D01*
X192079352Y-115587868D02*
X192412685Y-115587868D01*
X192412685Y-115587868D02*
X192603161Y-115635487D01*
X192603161Y-115635487D02*
X192698400Y-115730725D01*
X192698400Y-115730725D02*
X192746019Y-115825963D01*
X192746019Y-115825963D02*
X192746019Y-116016439D01*
X192746019Y-116016439D02*
X192698400Y-116111677D01*
X192698400Y-116111677D02*
X192603161Y-116206915D01*
X192603161Y-116206915D02*
X192412685Y-116254534D01*
X192412685Y-116254534D02*
X192079352Y-116254534D01*
X192079352Y-116254534D02*
X191888876Y-116206915D01*
X191888876Y-116206915D02*
X191793638Y-116111677D01*
X191793638Y-116111677D02*
X191746019Y-116016439D01*
X191746019Y-115159296D02*
X192555542Y-115159296D01*
X192555542Y-115159296D02*
X192650780Y-115111677D01*
X192650780Y-115111677D02*
X192698400Y-115064058D01*
X192698400Y-115064058D02*
X192746019Y-114968820D01*
X192746019Y-114968820D02*
X192746019Y-114778344D01*
X192746019Y-114778344D02*
X192698400Y-114683106D01*
X192698400Y-114683106D02*
X192650780Y-114635487D01*
X192650780Y-114635487D02*
X192555542Y-114587868D01*
X192555542Y-114587868D02*
X191746019Y-114587868D01*
X191746019Y-114254534D02*
X191746019Y-113683106D01*
X192746019Y-113968820D02*
X191746019Y-113968820D01*
X192746019Y-112825963D02*
X192746019Y-113397391D01*
X192746019Y-113111677D02*
X191746019Y-113111677D01*
X191746019Y-113111677D02*
X191888876Y-113206915D01*
X191888876Y-113206915D02*
X191984114Y-113302153D01*
X191984114Y-113302153D02*
X192031733Y-113397391D01*
X189682209Y-116156115D02*
X189682209Y-115822782D01*
X190206019Y-115679925D02*
X190206019Y-116156115D01*
X190206019Y-116156115D02*
X189206019Y-116156115D01*
X189206019Y-116156115D02*
X189206019Y-115679925D01*
X189682209Y-115251353D02*
X189682209Y-114918020D01*
X190206019Y-114775163D02*
X190206019Y-115251353D01*
X190206019Y-115251353D02*
X189206019Y-115251353D01*
X189206019Y-115251353D02*
X189206019Y-114775163D01*
X190206019Y-114346591D02*
X189206019Y-114346591D01*
X189206019Y-114346591D02*
X189206019Y-113965639D01*
X189206019Y-113965639D02*
X189253638Y-113870401D01*
X189253638Y-113870401D02*
X189301257Y-113822782D01*
X189301257Y-113822782D02*
X189396495Y-113775163D01*
X189396495Y-113775163D02*
X189539352Y-113775163D01*
X189539352Y-113775163D02*
X189634590Y-113822782D01*
X189634590Y-113822782D02*
X189682209Y-113870401D01*
X189682209Y-113870401D02*
X189729828Y-113965639D01*
X189729828Y-113965639D02*
X189729828Y-114346591D01*
X203464819Y-112879515D02*
X202464819Y-112879515D01*
X202464819Y-112879515D02*
X202464819Y-112641420D01*
X202464819Y-112641420D02*
X202512438Y-112498563D01*
X202512438Y-112498563D02*
X202607676Y-112403325D01*
X202607676Y-112403325D02*
X202702914Y-112355706D01*
X202702914Y-112355706D02*
X202893390Y-112308087D01*
X202893390Y-112308087D02*
X203036247Y-112308087D01*
X203036247Y-112308087D02*
X203226723Y-112355706D01*
X203226723Y-112355706D02*
X203321961Y-112403325D01*
X203321961Y-112403325D02*
X203417200Y-112498563D01*
X203417200Y-112498563D02*
X203464819Y-112641420D01*
X203464819Y-112641420D02*
X203464819Y-112879515D01*
X203464819Y-111308087D02*
X202988628Y-111641420D01*
X203464819Y-111879515D02*
X202464819Y-111879515D01*
X202464819Y-111879515D02*
X202464819Y-111498563D01*
X202464819Y-111498563D02*
X202512438Y-111403325D01*
X202512438Y-111403325D02*
X202560057Y-111355706D01*
X202560057Y-111355706D02*
X202655295Y-111308087D01*
X202655295Y-111308087D02*
X202798152Y-111308087D01*
X202798152Y-111308087D02*
X202893390Y-111355706D01*
X202893390Y-111355706D02*
X202941009Y-111403325D01*
X202941009Y-111403325D02*
X202988628Y-111498563D01*
X202988628Y-111498563D02*
X202988628Y-111879515D01*
X202464819Y-111022372D02*
X203464819Y-110689039D01*
X203464819Y-110689039D02*
X202464819Y-110355706D01*
X202893390Y-109879515D02*
X202845771Y-109974753D01*
X202845771Y-109974753D02*
X202798152Y-110022372D01*
X202798152Y-110022372D02*
X202702914Y-110069991D01*
X202702914Y-110069991D02*
X202655295Y-110069991D01*
X202655295Y-110069991D02*
X202560057Y-110022372D01*
X202560057Y-110022372D02*
X202512438Y-109974753D01*
X202512438Y-109974753D02*
X202464819Y-109879515D01*
X202464819Y-109879515D02*
X202464819Y-109689039D01*
X202464819Y-109689039D02*
X202512438Y-109593801D01*
X202512438Y-109593801D02*
X202560057Y-109546182D01*
X202560057Y-109546182D02*
X202655295Y-109498563D01*
X202655295Y-109498563D02*
X202702914Y-109498563D01*
X202702914Y-109498563D02*
X202798152Y-109546182D01*
X202798152Y-109546182D02*
X202845771Y-109593801D01*
X202845771Y-109593801D02*
X202893390Y-109689039D01*
X202893390Y-109689039D02*
X202893390Y-109879515D01*
X202893390Y-109879515D02*
X202941009Y-109974753D01*
X202941009Y-109974753D02*
X202988628Y-110022372D01*
X202988628Y-110022372D02*
X203083866Y-110069991D01*
X203083866Y-110069991D02*
X203274342Y-110069991D01*
X203274342Y-110069991D02*
X203369580Y-110022372D01*
X203369580Y-110022372D02*
X203417200Y-109974753D01*
X203417200Y-109974753D02*
X203464819Y-109879515D01*
X203464819Y-109879515D02*
X203464819Y-109689039D01*
X203464819Y-109689039D02*
X203417200Y-109593801D01*
X203417200Y-109593801D02*
X203369580Y-109546182D01*
X203369580Y-109546182D02*
X203274342Y-109498563D01*
X203274342Y-109498563D02*
X203083866Y-109498563D01*
X203083866Y-109498563D02*
X202988628Y-109546182D01*
X202988628Y-109546182D02*
X202941009Y-109593801D01*
X202941009Y-109593801D02*
X202893390Y-109689039D01*
X202893390Y-108927134D02*
X202845771Y-109022372D01*
X202845771Y-109022372D02*
X202798152Y-109069991D01*
X202798152Y-109069991D02*
X202702914Y-109117610D01*
X202702914Y-109117610D02*
X202655295Y-109117610D01*
X202655295Y-109117610D02*
X202560057Y-109069991D01*
X202560057Y-109069991D02*
X202512438Y-109022372D01*
X202512438Y-109022372D02*
X202464819Y-108927134D01*
X202464819Y-108927134D02*
X202464819Y-108736658D01*
X202464819Y-108736658D02*
X202512438Y-108641420D01*
X202512438Y-108641420D02*
X202560057Y-108593801D01*
X202560057Y-108593801D02*
X202655295Y-108546182D01*
X202655295Y-108546182D02*
X202702914Y-108546182D01*
X202702914Y-108546182D02*
X202798152Y-108593801D01*
X202798152Y-108593801D02*
X202845771Y-108641420D01*
X202845771Y-108641420D02*
X202893390Y-108736658D01*
X202893390Y-108736658D02*
X202893390Y-108927134D01*
X202893390Y-108927134D02*
X202941009Y-109022372D01*
X202941009Y-109022372D02*
X202988628Y-109069991D01*
X202988628Y-109069991D02*
X203083866Y-109117610D01*
X203083866Y-109117610D02*
X203274342Y-109117610D01*
X203274342Y-109117610D02*
X203369580Y-109069991D01*
X203369580Y-109069991D02*
X203417200Y-109022372D01*
X203417200Y-109022372D02*
X203464819Y-108927134D01*
X203464819Y-108927134D02*
X203464819Y-108736658D01*
X203464819Y-108736658D02*
X203417200Y-108641420D01*
X203417200Y-108641420D02*
X203369580Y-108593801D01*
X203369580Y-108593801D02*
X203274342Y-108546182D01*
X203274342Y-108546182D02*
X203083866Y-108546182D01*
X203083866Y-108546182D02*
X202988628Y-108593801D01*
X202988628Y-108593801D02*
X202941009Y-108641420D01*
X202941009Y-108641420D02*
X202893390Y-108736658D01*
X202464819Y-108212848D02*
X202464819Y-107593801D01*
X202464819Y-107593801D02*
X202845771Y-107927134D01*
X202845771Y-107927134D02*
X202845771Y-107784277D01*
X202845771Y-107784277D02*
X202893390Y-107689039D01*
X202893390Y-107689039D02*
X202941009Y-107641420D01*
X202941009Y-107641420D02*
X203036247Y-107593801D01*
X203036247Y-107593801D02*
X203274342Y-107593801D01*
X203274342Y-107593801D02*
X203369580Y-107641420D01*
X203369580Y-107641420D02*
X203417200Y-107689039D01*
X203417200Y-107689039D02*
X203464819Y-107784277D01*
X203464819Y-107784277D02*
X203464819Y-108069991D01*
X203464819Y-108069991D02*
X203417200Y-108165229D01*
X203417200Y-108165229D02*
X203369580Y-108212848D01*
X202464819Y-107260467D02*
X202464819Y-106641420D01*
X202464819Y-106641420D02*
X202845771Y-106974753D01*
X202845771Y-106974753D02*
X202845771Y-106831896D01*
X202845771Y-106831896D02*
X202893390Y-106736658D01*
X202893390Y-106736658D02*
X202941009Y-106689039D01*
X202941009Y-106689039D02*
X203036247Y-106641420D01*
X203036247Y-106641420D02*
X203274342Y-106641420D01*
X203274342Y-106641420D02*
X203369580Y-106689039D01*
X203369580Y-106689039D02*
X203417200Y-106736658D01*
X203417200Y-106736658D02*
X203464819Y-106831896D01*
X203464819Y-106831896D02*
X203464819Y-107117610D01*
X203464819Y-107117610D02*
X203417200Y-107212848D01*
X203417200Y-107212848D02*
X203369580Y-107260467D01*
X181799380Y-75479255D02*
X180799380Y-75812588D01*
X180799380Y-75812588D02*
X181799380Y-76145921D01*
X180847000Y-76907826D02*
X180799380Y-76812588D01*
X180799380Y-76812588D02*
X180799380Y-76622112D01*
X180799380Y-76622112D02*
X180847000Y-76526874D01*
X180847000Y-76526874D02*
X180894619Y-76479255D01*
X180894619Y-76479255D02*
X180989857Y-76431636D01*
X180989857Y-76431636D02*
X181275571Y-76431636D01*
X181275571Y-76431636D02*
X181370809Y-76479255D01*
X181370809Y-76479255D02*
X181418428Y-76526874D01*
X181418428Y-76526874D02*
X181466047Y-76622112D01*
X181466047Y-76622112D02*
X181466047Y-76812588D01*
X181466047Y-76812588D02*
X181418428Y-76907826D01*
X180847000Y-77764969D02*
X180799380Y-77669731D01*
X180799380Y-77669731D02*
X180799380Y-77479255D01*
X180799380Y-77479255D02*
X180847000Y-77384017D01*
X180847000Y-77384017D02*
X180894619Y-77336398D01*
X180894619Y-77336398D02*
X180989857Y-77288779D01*
X180989857Y-77288779D02*
X181275571Y-77288779D01*
X181275571Y-77288779D02*
X181370809Y-77336398D01*
X181370809Y-77336398D02*
X181418428Y-77384017D01*
X181418428Y-77384017D02*
X181466047Y-77479255D01*
X181466047Y-77479255D02*
X181466047Y-77669731D01*
X181466047Y-77669731D02*
X181418428Y-77764969D01*
X189828961Y-75942721D02*
X189876580Y-75847483D01*
X189876580Y-75847483D02*
X189876580Y-75704626D01*
X189876580Y-75704626D02*
X189828961Y-75561769D01*
X189828961Y-75561769D02*
X189733723Y-75466531D01*
X189733723Y-75466531D02*
X189638485Y-75418912D01*
X189638485Y-75418912D02*
X189448009Y-75371293D01*
X189448009Y-75371293D02*
X189305152Y-75371293D01*
X189305152Y-75371293D02*
X189114676Y-75418912D01*
X189114676Y-75418912D02*
X189019438Y-75466531D01*
X189019438Y-75466531D02*
X188924200Y-75561769D01*
X188924200Y-75561769D02*
X188876580Y-75704626D01*
X188876580Y-75704626D02*
X188876580Y-75799864D01*
X188876580Y-75799864D02*
X188924200Y-75942721D01*
X188924200Y-75942721D02*
X188971819Y-75990340D01*
X188971819Y-75990340D02*
X189305152Y-75990340D01*
X189305152Y-75990340D02*
X189305152Y-75799864D01*
X188876580Y-76418912D02*
X189876580Y-76418912D01*
X189876580Y-76418912D02*
X188876580Y-76990340D01*
X188876580Y-76990340D02*
X189876580Y-76990340D01*
X188876580Y-77466531D02*
X189876580Y-77466531D01*
X189876580Y-77466531D02*
X189876580Y-77704626D01*
X189876580Y-77704626D02*
X189828961Y-77847483D01*
X189828961Y-77847483D02*
X189733723Y-77942721D01*
X189733723Y-77942721D02*
X189638485Y-77990340D01*
X189638485Y-77990340D02*
X189448009Y-78037959D01*
X189448009Y-78037959D02*
X189305152Y-78037959D01*
X189305152Y-78037959D02*
X189114676Y-77990340D01*
X189114676Y-77990340D02*
X189019438Y-77942721D01*
X189019438Y-77942721D02*
X188924200Y-77847483D01*
X188924200Y-77847483D02*
X188876580Y-77704626D01*
X188876580Y-77704626D02*
X188876580Y-77466531D01*
X186028647Y-75631607D02*
X187457219Y-75631607D01*
X183691847Y-75606207D02*
X185120419Y-75606207D01*
X133991480Y-83069102D02*
X133991480Y-82592912D01*
X133991480Y-82592912D02*
X134991480Y-82592912D01*
X133991480Y-83402436D02*
X134991480Y-83402436D01*
X134991480Y-83402436D02*
X134277195Y-83735769D01*
X134277195Y-83735769D02*
X134991480Y-84069102D01*
X134991480Y-84069102D02*
X133991480Y-84069102D01*
X134896242Y-84497674D02*
X134943861Y-84545293D01*
X134943861Y-84545293D02*
X134991480Y-84640531D01*
X134991480Y-84640531D02*
X134991480Y-84878626D01*
X134991480Y-84878626D02*
X134943861Y-84973864D01*
X134943861Y-84973864D02*
X134896242Y-85021483D01*
X134896242Y-85021483D02*
X134801004Y-85069102D01*
X134801004Y-85069102D02*
X134705766Y-85069102D01*
X134705766Y-85069102D02*
X134562909Y-85021483D01*
X134562909Y-85021483D02*
X133991480Y-84450055D01*
X133991480Y-84450055D02*
X133991480Y-85069102D01*
X134991480Y-85973864D02*
X134991480Y-85497674D01*
X134991480Y-85497674D02*
X134515290Y-85450055D01*
X134515290Y-85450055D02*
X134562909Y-85497674D01*
X134562909Y-85497674D02*
X134610528Y-85592912D01*
X134610528Y-85592912D02*
X134610528Y-85831007D01*
X134610528Y-85831007D02*
X134562909Y-85926245D01*
X134562909Y-85926245D02*
X134515290Y-85973864D01*
X134515290Y-85973864D02*
X134420052Y-86021483D01*
X134420052Y-86021483D02*
X134181957Y-86021483D01*
X134181957Y-86021483D02*
X134086719Y-85973864D01*
X134086719Y-85973864D02*
X134039100Y-85926245D01*
X134039100Y-85926245D02*
X133991480Y-85831007D01*
X133991480Y-85831007D02*
X133991480Y-85592912D01*
X133991480Y-85592912D02*
X134039100Y-85497674D01*
X134039100Y-85497674D02*
X134086719Y-85450055D01*
X133991480Y-86497674D02*
X133991480Y-86688150D01*
X133991480Y-86688150D02*
X134039100Y-86783388D01*
X134039100Y-86783388D02*
X134086719Y-86831007D01*
X134086719Y-86831007D02*
X134229576Y-86926245D01*
X134229576Y-86926245D02*
X134420052Y-86973864D01*
X134420052Y-86973864D02*
X134801004Y-86973864D01*
X134801004Y-86973864D02*
X134896242Y-86926245D01*
X134896242Y-86926245D02*
X134943861Y-86878626D01*
X134943861Y-86878626D02*
X134991480Y-86783388D01*
X134991480Y-86783388D02*
X134991480Y-86592912D01*
X134991480Y-86592912D02*
X134943861Y-86497674D01*
X134943861Y-86497674D02*
X134896242Y-86450055D01*
X134896242Y-86450055D02*
X134801004Y-86402436D01*
X134801004Y-86402436D02*
X134562909Y-86402436D01*
X134562909Y-86402436D02*
X134467671Y-86450055D01*
X134467671Y-86450055D02*
X134420052Y-86497674D01*
X134420052Y-86497674D02*
X134372433Y-86592912D01*
X134372433Y-86592912D02*
X134372433Y-86783388D01*
X134372433Y-86783388D02*
X134420052Y-86878626D01*
X134420052Y-86878626D02*
X134467671Y-86926245D01*
X134467671Y-86926245D02*
X134562909Y-86973864D01*
X134991480Y-87831007D02*
X134991480Y-87640531D01*
X134991480Y-87640531D02*
X134943861Y-87545293D01*
X134943861Y-87545293D02*
X134896242Y-87497674D01*
X134896242Y-87497674D02*
X134753385Y-87402436D01*
X134753385Y-87402436D02*
X134562909Y-87354817D01*
X134562909Y-87354817D02*
X134181957Y-87354817D01*
X134181957Y-87354817D02*
X134086719Y-87402436D01*
X134086719Y-87402436D02*
X134039100Y-87450055D01*
X134039100Y-87450055D02*
X133991480Y-87545293D01*
X133991480Y-87545293D02*
X133991480Y-87735769D01*
X133991480Y-87735769D02*
X134039100Y-87831007D01*
X134039100Y-87831007D02*
X134086719Y-87878626D01*
X134086719Y-87878626D02*
X134181957Y-87926245D01*
X134181957Y-87926245D02*
X134420052Y-87926245D01*
X134420052Y-87926245D02*
X134515290Y-87878626D01*
X134515290Y-87878626D02*
X134562909Y-87831007D01*
X134562909Y-87831007D02*
X134610528Y-87735769D01*
X134610528Y-87735769D02*
X134610528Y-87545293D01*
X134610528Y-87545293D02*
X134562909Y-87450055D01*
X134562909Y-87450055D02*
X134515290Y-87402436D01*
X134515290Y-87402436D02*
X134420052Y-87354817D01*
X172701080Y-92803712D02*
X173701080Y-92803712D01*
X172701080Y-93279902D02*
X173701080Y-93279902D01*
X173701080Y-93279902D02*
X172701080Y-93851330D01*
X172701080Y-93851330D02*
X173701080Y-93851330D01*
X173082033Y-94327521D02*
X173082033Y-95089426D01*
X172701080Y-94708473D02*
X173462985Y-94708473D01*
X172675680Y-75176112D02*
X173675680Y-75176112D01*
X172675680Y-75652302D02*
X173675680Y-75652302D01*
X173675680Y-75652302D02*
X172675680Y-76223730D01*
X172675680Y-76223730D02*
X173675680Y-76223730D01*
X173009014Y-76604683D02*
X173009014Y-77461826D01*
X136820280Y-91724188D02*
X136820280Y-91914664D01*
X136820280Y-91914664D02*
X136772661Y-92009902D01*
X136772661Y-92009902D02*
X136677423Y-92105140D01*
X136677423Y-92105140D02*
X136486947Y-92152759D01*
X136486947Y-92152759D02*
X136153614Y-92152759D01*
X136153614Y-92152759D02*
X135963138Y-92105140D01*
X135963138Y-92105140D02*
X135867900Y-92009902D01*
X135867900Y-92009902D02*
X135820280Y-91914664D01*
X135820280Y-91914664D02*
X135820280Y-91724188D01*
X135820280Y-91724188D02*
X135867900Y-91628950D01*
X135867900Y-91628950D02*
X135963138Y-91533712D01*
X135963138Y-91533712D02*
X136153614Y-91486093D01*
X136153614Y-91486093D02*
X136486947Y-91486093D01*
X136486947Y-91486093D02*
X136677423Y-91533712D01*
X136677423Y-91533712D02*
X136772661Y-91628950D01*
X136772661Y-91628950D02*
X136820280Y-91724188D01*
X136820280Y-92581331D02*
X136010757Y-92581331D01*
X136010757Y-92581331D02*
X135915519Y-92628950D01*
X135915519Y-92628950D02*
X135867900Y-92676569D01*
X135867900Y-92676569D02*
X135820280Y-92771807D01*
X135820280Y-92771807D02*
X135820280Y-92962283D01*
X135820280Y-92962283D02*
X135867900Y-93057521D01*
X135867900Y-93057521D02*
X135915519Y-93105140D01*
X135915519Y-93105140D02*
X136010757Y-93152759D01*
X136010757Y-93152759D02*
X136820280Y-93152759D01*
X136820280Y-93486093D02*
X136820280Y-94057521D01*
X135820280Y-93771807D02*
X136820280Y-93771807D01*
X136201233Y-94390855D02*
X136201233Y-95152760D01*
X135820280Y-94771807D02*
X136582185Y-94771807D01*
X136972680Y-75188788D02*
X136972680Y-75379264D01*
X136972680Y-75379264D02*
X136925061Y-75474502D01*
X136925061Y-75474502D02*
X136829823Y-75569740D01*
X136829823Y-75569740D02*
X136639347Y-75617359D01*
X136639347Y-75617359D02*
X136306014Y-75617359D01*
X136306014Y-75617359D02*
X136115538Y-75569740D01*
X136115538Y-75569740D02*
X136020300Y-75474502D01*
X136020300Y-75474502D02*
X135972680Y-75379264D01*
X135972680Y-75379264D02*
X135972680Y-75188788D01*
X135972680Y-75188788D02*
X136020300Y-75093550D01*
X136020300Y-75093550D02*
X136115538Y-74998312D01*
X136115538Y-74998312D02*
X136306014Y-74950693D01*
X136306014Y-74950693D02*
X136639347Y-74950693D01*
X136639347Y-74950693D02*
X136829823Y-74998312D01*
X136829823Y-74998312D02*
X136925061Y-75093550D01*
X136925061Y-75093550D02*
X136972680Y-75188788D01*
X136972680Y-76045931D02*
X136163157Y-76045931D01*
X136163157Y-76045931D02*
X136067919Y-76093550D01*
X136067919Y-76093550D02*
X136020300Y-76141169D01*
X136020300Y-76141169D02*
X135972680Y-76236407D01*
X135972680Y-76236407D02*
X135972680Y-76426883D01*
X135972680Y-76426883D02*
X136020300Y-76522121D01*
X136020300Y-76522121D02*
X136067919Y-76569740D01*
X136067919Y-76569740D02*
X136163157Y-76617359D01*
X136163157Y-76617359D02*
X136972680Y-76617359D01*
X136972680Y-76950693D02*
X136972680Y-77522121D01*
X135972680Y-77236407D02*
X136972680Y-77236407D01*
X136306014Y-77760217D02*
X136306014Y-78617360D01*
X120799380Y-73429255D02*
X119799380Y-73762588D01*
X119799380Y-73762588D02*
X120799380Y-74095921D01*
X119847000Y-74857826D02*
X119799380Y-74762588D01*
X119799380Y-74762588D02*
X119799380Y-74572112D01*
X119799380Y-74572112D02*
X119847000Y-74476874D01*
X119847000Y-74476874D02*
X119894619Y-74429255D01*
X119894619Y-74429255D02*
X119989857Y-74381636D01*
X119989857Y-74381636D02*
X120275571Y-74381636D01*
X120275571Y-74381636D02*
X120370809Y-74429255D01*
X120370809Y-74429255D02*
X120418428Y-74476874D01*
X120418428Y-74476874D02*
X120466047Y-74572112D01*
X120466047Y-74572112D02*
X120466047Y-74762588D01*
X120466047Y-74762588D02*
X120418428Y-74857826D01*
X119847000Y-75714969D02*
X119799380Y-75619731D01*
X119799380Y-75619731D02*
X119799380Y-75429255D01*
X119799380Y-75429255D02*
X119847000Y-75334017D01*
X119847000Y-75334017D02*
X119894619Y-75286398D01*
X119894619Y-75286398D02*
X119989857Y-75238779D01*
X119989857Y-75238779D02*
X120275571Y-75238779D01*
X120275571Y-75238779D02*
X120370809Y-75286398D01*
X120370809Y-75286398D02*
X120418428Y-75334017D01*
X120418428Y-75334017D02*
X120466047Y-75429255D01*
X120466047Y-75429255D02*
X120466047Y-75619731D01*
X120466047Y-75619731D02*
X120418428Y-75714969D01*
X128828961Y-73892721D02*
X128876580Y-73797483D01*
X128876580Y-73797483D02*
X128876580Y-73654626D01*
X128876580Y-73654626D02*
X128828961Y-73511769D01*
X128828961Y-73511769D02*
X128733723Y-73416531D01*
X128733723Y-73416531D02*
X128638485Y-73368912D01*
X128638485Y-73368912D02*
X128448009Y-73321293D01*
X128448009Y-73321293D02*
X128305152Y-73321293D01*
X128305152Y-73321293D02*
X128114676Y-73368912D01*
X128114676Y-73368912D02*
X128019438Y-73416531D01*
X128019438Y-73416531D02*
X127924200Y-73511769D01*
X127924200Y-73511769D02*
X127876580Y-73654626D01*
X127876580Y-73654626D02*
X127876580Y-73749864D01*
X127876580Y-73749864D02*
X127924200Y-73892721D01*
X127924200Y-73892721D02*
X127971819Y-73940340D01*
X127971819Y-73940340D02*
X128305152Y-73940340D01*
X128305152Y-73940340D02*
X128305152Y-73749864D01*
X127876580Y-74368912D02*
X128876580Y-74368912D01*
X128876580Y-74368912D02*
X127876580Y-74940340D01*
X127876580Y-74940340D02*
X128876580Y-74940340D01*
X127876580Y-75416531D02*
X128876580Y-75416531D01*
X128876580Y-75416531D02*
X128876580Y-75654626D01*
X128876580Y-75654626D02*
X128828961Y-75797483D01*
X128828961Y-75797483D02*
X128733723Y-75892721D01*
X128733723Y-75892721D02*
X128638485Y-75940340D01*
X128638485Y-75940340D02*
X128448009Y-75987959D01*
X128448009Y-75987959D02*
X128305152Y-75987959D01*
X128305152Y-75987959D02*
X128114676Y-75940340D01*
X128114676Y-75940340D02*
X128019438Y-75892721D01*
X128019438Y-75892721D02*
X127924200Y-75797483D01*
X127924200Y-75797483D02*
X127876580Y-75654626D01*
X127876580Y-75654626D02*
X127876580Y-75416531D01*
X125028647Y-73581607D02*
X126457219Y-73581607D01*
X122691847Y-73556207D02*
X124120419Y-73556207D01*
X122612019Y-126874580D02*
X123612019Y-126541247D01*
X123612019Y-126541247D02*
X122612019Y-126207914D01*
X123564400Y-125446009D02*
X123612019Y-125541247D01*
X123612019Y-125541247D02*
X123612019Y-125731723D01*
X123612019Y-125731723D02*
X123564400Y-125826961D01*
X123564400Y-125826961D02*
X123516780Y-125874580D01*
X123516780Y-125874580D02*
X123421542Y-125922199D01*
X123421542Y-125922199D02*
X123135828Y-125922199D01*
X123135828Y-125922199D02*
X123040590Y-125874580D01*
X123040590Y-125874580D02*
X122992971Y-125826961D01*
X122992971Y-125826961D02*
X122945352Y-125731723D01*
X122945352Y-125731723D02*
X122945352Y-125541247D01*
X122945352Y-125541247D02*
X122992971Y-125446009D01*
X123564400Y-124588866D02*
X123612019Y-124684104D01*
X123612019Y-124684104D02*
X123612019Y-124874580D01*
X123612019Y-124874580D02*
X123564400Y-124969818D01*
X123564400Y-124969818D02*
X123516780Y-125017437D01*
X123516780Y-125017437D02*
X123421542Y-125065056D01*
X123421542Y-125065056D02*
X123135828Y-125065056D01*
X123135828Y-125065056D02*
X123040590Y-125017437D01*
X123040590Y-125017437D02*
X122992971Y-124969818D01*
X122992971Y-124969818D02*
X122945352Y-124874580D01*
X122945352Y-124874580D02*
X122945352Y-124684104D01*
X122945352Y-124684104D02*
X122992971Y-124588866D01*
X114582438Y-126411114D02*
X114534819Y-126506352D01*
X114534819Y-126506352D02*
X114534819Y-126649209D01*
X114534819Y-126649209D02*
X114582438Y-126792066D01*
X114582438Y-126792066D02*
X114677676Y-126887304D01*
X114677676Y-126887304D02*
X114772914Y-126934923D01*
X114772914Y-126934923D02*
X114963390Y-126982542D01*
X114963390Y-126982542D02*
X115106247Y-126982542D01*
X115106247Y-126982542D02*
X115296723Y-126934923D01*
X115296723Y-126934923D02*
X115391961Y-126887304D01*
X115391961Y-126887304D02*
X115487200Y-126792066D01*
X115487200Y-126792066D02*
X115534819Y-126649209D01*
X115534819Y-126649209D02*
X115534819Y-126553971D01*
X115534819Y-126553971D02*
X115487200Y-126411114D01*
X115487200Y-126411114D02*
X115439580Y-126363495D01*
X115439580Y-126363495D02*
X115106247Y-126363495D01*
X115106247Y-126363495D02*
X115106247Y-126553971D01*
X115534819Y-125934923D02*
X114534819Y-125934923D01*
X114534819Y-125934923D02*
X115534819Y-125363495D01*
X115534819Y-125363495D02*
X114534819Y-125363495D01*
X115534819Y-124887304D02*
X114534819Y-124887304D01*
X114534819Y-124887304D02*
X114534819Y-124649209D01*
X114534819Y-124649209D02*
X114582438Y-124506352D01*
X114582438Y-124506352D02*
X114677676Y-124411114D01*
X114677676Y-124411114D02*
X114772914Y-124363495D01*
X114772914Y-124363495D02*
X114963390Y-124315876D01*
X114963390Y-124315876D02*
X115106247Y-124315876D01*
X115106247Y-124315876D02*
X115296723Y-124363495D01*
X115296723Y-124363495D02*
X115391961Y-124411114D01*
X115391961Y-124411114D02*
X115487200Y-124506352D01*
X115487200Y-124506352D02*
X115534819Y-124649209D01*
X115534819Y-124649209D02*
X115534819Y-124887304D01*
X118382752Y-126722228D02*
X116954180Y-126722228D01*
X120719552Y-126747628D02*
X119290980Y-126747628D01*
X202620619Y-126437372D02*
X203620619Y-126104039D01*
X203620619Y-126104039D02*
X202620619Y-125770706D01*
X203573000Y-125008801D02*
X203620619Y-125104039D01*
X203620619Y-125104039D02*
X203620619Y-125294515D01*
X203620619Y-125294515D02*
X203573000Y-125389753D01*
X203573000Y-125389753D02*
X203525380Y-125437372D01*
X203525380Y-125437372D02*
X203430142Y-125484991D01*
X203430142Y-125484991D02*
X203144428Y-125484991D01*
X203144428Y-125484991D02*
X203049190Y-125437372D01*
X203049190Y-125437372D02*
X203001571Y-125389753D01*
X203001571Y-125389753D02*
X202953952Y-125294515D01*
X202953952Y-125294515D02*
X202953952Y-125104039D01*
X202953952Y-125104039D02*
X203001571Y-125008801D01*
X203573000Y-124151658D02*
X203620619Y-124246896D01*
X203620619Y-124246896D02*
X203620619Y-124437372D01*
X203620619Y-124437372D02*
X203573000Y-124532610D01*
X203573000Y-124532610D02*
X203525380Y-124580229D01*
X203525380Y-124580229D02*
X203430142Y-124627848D01*
X203430142Y-124627848D02*
X203144428Y-124627848D01*
X203144428Y-124627848D02*
X203049190Y-124580229D01*
X203049190Y-124580229D02*
X203001571Y-124532610D01*
X203001571Y-124532610D02*
X202953952Y-124437372D01*
X202953952Y-124437372D02*
X202953952Y-124246896D01*
X202953952Y-124246896D02*
X203001571Y-124151658D01*
X194591038Y-125973906D02*
X194543419Y-126069144D01*
X194543419Y-126069144D02*
X194543419Y-126212001D01*
X194543419Y-126212001D02*
X194591038Y-126354858D01*
X194591038Y-126354858D02*
X194686276Y-126450096D01*
X194686276Y-126450096D02*
X194781514Y-126497715D01*
X194781514Y-126497715D02*
X194971990Y-126545334D01*
X194971990Y-126545334D02*
X195114847Y-126545334D01*
X195114847Y-126545334D02*
X195305323Y-126497715D01*
X195305323Y-126497715D02*
X195400561Y-126450096D01*
X195400561Y-126450096D02*
X195495800Y-126354858D01*
X195495800Y-126354858D02*
X195543419Y-126212001D01*
X195543419Y-126212001D02*
X195543419Y-126116763D01*
X195543419Y-126116763D02*
X195495800Y-125973906D01*
X195495800Y-125973906D02*
X195448180Y-125926287D01*
X195448180Y-125926287D02*
X195114847Y-125926287D01*
X195114847Y-125926287D02*
X195114847Y-126116763D01*
X195543419Y-125497715D02*
X194543419Y-125497715D01*
X194543419Y-125497715D02*
X195543419Y-124926287D01*
X195543419Y-124926287D02*
X194543419Y-124926287D01*
X195543419Y-124450096D02*
X194543419Y-124450096D01*
X194543419Y-124450096D02*
X194543419Y-124212001D01*
X194543419Y-124212001D02*
X194591038Y-124069144D01*
X194591038Y-124069144D02*
X194686276Y-123973906D01*
X194686276Y-123973906D02*
X194781514Y-123926287D01*
X194781514Y-123926287D02*
X194971990Y-123878668D01*
X194971990Y-123878668D02*
X195114847Y-123878668D01*
X195114847Y-123878668D02*
X195305323Y-123926287D01*
X195305323Y-123926287D02*
X195400561Y-123973906D01*
X195400561Y-123973906D02*
X195495800Y-124069144D01*
X195495800Y-124069144D02*
X195543419Y-124212001D01*
X195543419Y-124212001D02*
X195543419Y-124450096D01*
X198391352Y-126285020D02*
X196962780Y-126285020D01*
X200728152Y-126310420D02*
X199299580Y-126310420D01*
X109799380Y-73429255D02*
X108799380Y-73762588D01*
X108799380Y-73762588D02*
X109799380Y-74095921D01*
X108847000Y-74857826D02*
X108799380Y-74762588D01*
X108799380Y-74762588D02*
X108799380Y-74572112D01*
X108799380Y-74572112D02*
X108847000Y-74476874D01*
X108847000Y-74476874D02*
X108894619Y-74429255D01*
X108894619Y-74429255D02*
X108989857Y-74381636D01*
X108989857Y-74381636D02*
X109275571Y-74381636D01*
X109275571Y-74381636D02*
X109370809Y-74429255D01*
X109370809Y-74429255D02*
X109418428Y-74476874D01*
X109418428Y-74476874D02*
X109466047Y-74572112D01*
X109466047Y-74572112D02*
X109466047Y-74762588D01*
X109466047Y-74762588D02*
X109418428Y-74857826D01*
X108847000Y-75714969D02*
X108799380Y-75619731D01*
X108799380Y-75619731D02*
X108799380Y-75429255D01*
X108799380Y-75429255D02*
X108847000Y-75334017D01*
X108847000Y-75334017D02*
X108894619Y-75286398D01*
X108894619Y-75286398D02*
X108989857Y-75238779D01*
X108989857Y-75238779D02*
X109275571Y-75238779D01*
X109275571Y-75238779D02*
X109370809Y-75286398D01*
X109370809Y-75286398D02*
X109418428Y-75334017D01*
X109418428Y-75334017D02*
X109466047Y-75429255D01*
X109466047Y-75429255D02*
X109466047Y-75619731D01*
X109466047Y-75619731D02*
X109418428Y-75714969D01*
X117828961Y-73892721D02*
X117876580Y-73797483D01*
X117876580Y-73797483D02*
X117876580Y-73654626D01*
X117876580Y-73654626D02*
X117828961Y-73511769D01*
X117828961Y-73511769D02*
X117733723Y-73416531D01*
X117733723Y-73416531D02*
X117638485Y-73368912D01*
X117638485Y-73368912D02*
X117448009Y-73321293D01*
X117448009Y-73321293D02*
X117305152Y-73321293D01*
X117305152Y-73321293D02*
X117114676Y-73368912D01*
X117114676Y-73368912D02*
X117019438Y-73416531D01*
X117019438Y-73416531D02*
X116924200Y-73511769D01*
X116924200Y-73511769D02*
X116876580Y-73654626D01*
X116876580Y-73654626D02*
X116876580Y-73749864D01*
X116876580Y-73749864D02*
X116924200Y-73892721D01*
X116924200Y-73892721D02*
X116971819Y-73940340D01*
X116971819Y-73940340D02*
X117305152Y-73940340D01*
X117305152Y-73940340D02*
X117305152Y-73749864D01*
X116876580Y-74368912D02*
X117876580Y-74368912D01*
X117876580Y-74368912D02*
X116876580Y-74940340D01*
X116876580Y-74940340D02*
X117876580Y-74940340D01*
X116876580Y-75416531D02*
X117876580Y-75416531D01*
X117876580Y-75416531D02*
X117876580Y-75654626D01*
X117876580Y-75654626D02*
X117828961Y-75797483D01*
X117828961Y-75797483D02*
X117733723Y-75892721D01*
X117733723Y-75892721D02*
X117638485Y-75940340D01*
X117638485Y-75940340D02*
X117448009Y-75987959D01*
X117448009Y-75987959D02*
X117305152Y-75987959D01*
X117305152Y-75987959D02*
X117114676Y-75940340D01*
X117114676Y-75940340D02*
X117019438Y-75892721D01*
X117019438Y-75892721D02*
X116924200Y-75797483D01*
X116924200Y-75797483D02*
X116876580Y-75654626D01*
X116876580Y-75654626D02*
X116876580Y-75416531D01*
X114028647Y-73581607D02*
X115457219Y-73581607D01*
X111691847Y-73556207D02*
X113120419Y-73556207D01*
X123326219Y-113766723D02*
X122326219Y-113766723D01*
X122326219Y-113766723D02*
X122326219Y-113528628D01*
X122326219Y-113528628D02*
X122373838Y-113385771D01*
X122373838Y-113385771D02*
X122469076Y-113290533D01*
X122469076Y-113290533D02*
X122564314Y-113242914D01*
X122564314Y-113242914D02*
X122754790Y-113195295D01*
X122754790Y-113195295D02*
X122897647Y-113195295D01*
X122897647Y-113195295D02*
X123088123Y-113242914D01*
X123088123Y-113242914D02*
X123183361Y-113290533D01*
X123183361Y-113290533D02*
X123278600Y-113385771D01*
X123278600Y-113385771D02*
X123326219Y-113528628D01*
X123326219Y-113528628D02*
X123326219Y-113766723D01*
X123326219Y-112195295D02*
X122850028Y-112528628D01*
X123326219Y-112766723D02*
X122326219Y-112766723D01*
X122326219Y-112766723D02*
X122326219Y-112385771D01*
X122326219Y-112385771D02*
X122373838Y-112290533D01*
X122373838Y-112290533D02*
X122421457Y-112242914D01*
X122421457Y-112242914D02*
X122516695Y-112195295D01*
X122516695Y-112195295D02*
X122659552Y-112195295D01*
X122659552Y-112195295D02*
X122754790Y-112242914D01*
X122754790Y-112242914D02*
X122802409Y-112290533D01*
X122802409Y-112290533D02*
X122850028Y-112385771D01*
X122850028Y-112385771D02*
X122850028Y-112766723D01*
X122326219Y-111909580D02*
X123326219Y-111576247D01*
X123326219Y-111576247D02*
X122326219Y-111242914D01*
X122754790Y-110766723D02*
X122707171Y-110861961D01*
X122707171Y-110861961D02*
X122659552Y-110909580D01*
X122659552Y-110909580D02*
X122564314Y-110957199D01*
X122564314Y-110957199D02*
X122516695Y-110957199D01*
X122516695Y-110957199D02*
X122421457Y-110909580D01*
X122421457Y-110909580D02*
X122373838Y-110861961D01*
X122373838Y-110861961D02*
X122326219Y-110766723D01*
X122326219Y-110766723D02*
X122326219Y-110576247D01*
X122326219Y-110576247D02*
X122373838Y-110481009D01*
X122373838Y-110481009D02*
X122421457Y-110433390D01*
X122421457Y-110433390D02*
X122516695Y-110385771D01*
X122516695Y-110385771D02*
X122564314Y-110385771D01*
X122564314Y-110385771D02*
X122659552Y-110433390D01*
X122659552Y-110433390D02*
X122707171Y-110481009D01*
X122707171Y-110481009D02*
X122754790Y-110576247D01*
X122754790Y-110576247D02*
X122754790Y-110766723D01*
X122754790Y-110766723D02*
X122802409Y-110861961D01*
X122802409Y-110861961D02*
X122850028Y-110909580D01*
X122850028Y-110909580D02*
X122945266Y-110957199D01*
X122945266Y-110957199D02*
X123135742Y-110957199D01*
X123135742Y-110957199D02*
X123230980Y-110909580D01*
X123230980Y-110909580D02*
X123278600Y-110861961D01*
X123278600Y-110861961D02*
X123326219Y-110766723D01*
X123326219Y-110766723D02*
X123326219Y-110576247D01*
X123326219Y-110576247D02*
X123278600Y-110481009D01*
X123278600Y-110481009D02*
X123230980Y-110433390D01*
X123230980Y-110433390D02*
X123135742Y-110385771D01*
X123135742Y-110385771D02*
X122945266Y-110385771D01*
X122945266Y-110385771D02*
X122850028Y-110433390D01*
X122850028Y-110433390D02*
X122802409Y-110481009D01*
X122802409Y-110481009D02*
X122754790Y-110576247D01*
X122754790Y-109814342D02*
X122707171Y-109909580D01*
X122707171Y-109909580D02*
X122659552Y-109957199D01*
X122659552Y-109957199D02*
X122564314Y-110004818D01*
X122564314Y-110004818D02*
X122516695Y-110004818D01*
X122516695Y-110004818D02*
X122421457Y-109957199D01*
X122421457Y-109957199D02*
X122373838Y-109909580D01*
X122373838Y-109909580D02*
X122326219Y-109814342D01*
X122326219Y-109814342D02*
X122326219Y-109623866D01*
X122326219Y-109623866D02*
X122373838Y-109528628D01*
X122373838Y-109528628D02*
X122421457Y-109481009D01*
X122421457Y-109481009D02*
X122516695Y-109433390D01*
X122516695Y-109433390D02*
X122564314Y-109433390D01*
X122564314Y-109433390D02*
X122659552Y-109481009D01*
X122659552Y-109481009D02*
X122707171Y-109528628D01*
X122707171Y-109528628D02*
X122754790Y-109623866D01*
X122754790Y-109623866D02*
X122754790Y-109814342D01*
X122754790Y-109814342D02*
X122802409Y-109909580D01*
X122802409Y-109909580D02*
X122850028Y-109957199D01*
X122850028Y-109957199D02*
X122945266Y-110004818D01*
X122945266Y-110004818D02*
X123135742Y-110004818D01*
X123135742Y-110004818D02*
X123230980Y-109957199D01*
X123230980Y-109957199D02*
X123278600Y-109909580D01*
X123278600Y-109909580D02*
X123326219Y-109814342D01*
X123326219Y-109814342D02*
X123326219Y-109623866D01*
X123326219Y-109623866D02*
X123278600Y-109528628D01*
X123278600Y-109528628D02*
X123230980Y-109481009D01*
X123230980Y-109481009D02*
X123135742Y-109433390D01*
X123135742Y-109433390D02*
X122945266Y-109433390D01*
X122945266Y-109433390D02*
X122850028Y-109481009D01*
X122850028Y-109481009D02*
X122802409Y-109528628D01*
X122802409Y-109528628D02*
X122754790Y-109623866D01*
X122326219Y-109100056D02*
X122326219Y-108481009D01*
X122326219Y-108481009D02*
X122707171Y-108814342D01*
X122707171Y-108814342D02*
X122707171Y-108671485D01*
X122707171Y-108671485D02*
X122754790Y-108576247D01*
X122754790Y-108576247D02*
X122802409Y-108528628D01*
X122802409Y-108528628D02*
X122897647Y-108481009D01*
X122897647Y-108481009D02*
X123135742Y-108481009D01*
X123135742Y-108481009D02*
X123230980Y-108528628D01*
X123230980Y-108528628D02*
X123278600Y-108576247D01*
X123278600Y-108576247D02*
X123326219Y-108671485D01*
X123326219Y-108671485D02*
X123326219Y-108957199D01*
X123326219Y-108957199D02*
X123278600Y-109052437D01*
X123278600Y-109052437D02*
X123230980Y-109100056D01*
X122326219Y-108147675D02*
X122326219Y-107528628D01*
X122326219Y-107528628D02*
X122707171Y-107861961D01*
X122707171Y-107861961D02*
X122707171Y-107719104D01*
X122707171Y-107719104D02*
X122754790Y-107623866D01*
X122754790Y-107623866D02*
X122802409Y-107576247D01*
X122802409Y-107576247D02*
X122897647Y-107528628D01*
X122897647Y-107528628D02*
X123135742Y-107528628D01*
X123135742Y-107528628D02*
X123230980Y-107576247D01*
X123230980Y-107576247D02*
X123278600Y-107623866D01*
X123278600Y-107623866D02*
X123326219Y-107719104D01*
X123326219Y-107719104D02*
X123326219Y-108004818D01*
X123326219Y-108004818D02*
X123278600Y-108100056D01*
X123278600Y-108100056D02*
X123230980Y-108147675D01*
X109543609Y-117043323D02*
X109543609Y-116709990D01*
X110067419Y-116567133D02*
X110067419Y-117043323D01*
X110067419Y-117043323D02*
X109067419Y-117043323D01*
X109067419Y-117043323D02*
X109067419Y-116567133D01*
X109543609Y-116138561D02*
X109543609Y-115805228D01*
X110067419Y-115662371D02*
X110067419Y-116138561D01*
X110067419Y-116138561D02*
X109067419Y-116138561D01*
X109067419Y-116138561D02*
X109067419Y-115662371D01*
X110067419Y-115233799D02*
X109067419Y-115233799D01*
X109067419Y-115233799D02*
X109067419Y-114852847D01*
X109067419Y-114852847D02*
X109115038Y-114757609D01*
X109115038Y-114757609D02*
X109162657Y-114709990D01*
X109162657Y-114709990D02*
X109257895Y-114662371D01*
X109257895Y-114662371D02*
X109400752Y-114662371D01*
X109400752Y-114662371D02*
X109495990Y-114709990D01*
X109495990Y-114709990D02*
X109543609Y-114757609D01*
X109543609Y-114757609D02*
X109591228Y-114852847D01*
X109591228Y-114852847D02*
X109591228Y-115233799D01*
X111607419Y-116903647D02*
X111607419Y-116713171D01*
X111607419Y-116713171D02*
X111655038Y-116617933D01*
X111655038Y-116617933D02*
X111750276Y-116522695D01*
X111750276Y-116522695D02*
X111940752Y-116475076D01*
X111940752Y-116475076D02*
X112274085Y-116475076D01*
X112274085Y-116475076D02*
X112464561Y-116522695D01*
X112464561Y-116522695D02*
X112559800Y-116617933D01*
X112559800Y-116617933D02*
X112607419Y-116713171D01*
X112607419Y-116713171D02*
X112607419Y-116903647D01*
X112607419Y-116903647D02*
X112559800Y-116998885D01*
X112559800Y-116998885D02*
X112464561Y-117094123D01*
X112464561Y-117094123D02*
X112274085Y-117141742D01*
X112274085Y-117141742D02*
X111940752Y-117141742D01*
X111940752Y-117141742D02*
X111750276Y-117094123D01*
X111750276Y-117094123D02*
X111655038Y-116998885D01*
X111655038Y-116998885D02*
X111607419Y-116903647D01*
X111607419Y-116046504D02*
X112416942Y-116046504D01*
X112416942Y-116046504D02*
X112512180Y-115998885D01*
X112512180Y-115998885D02*
X112559800Y-115951266D01*
X112559800Y-115951266D02*
X112607419Y-115856028D01*
X112607419Y-115856028D02*
X112607419Y-115665552D01*
X112607419Y-115665552D02*
X112559800Y-115570314D01*
X112559800Y-115570314D02*
X112512180Y-115522695D01*
X112512180Y-115522695D02*
X112416942Y-115475076D01*
X112416942Y-115475076D02*
X111607419Y-115475076D01*
X111607419Y-115141742D02*
X111607419Y-114570314D01*
X112607419Y-114856028D02*
X111607419Y-114856028D01*
X112607419Y-113713171D02*
X112607419Y-114284599D01*
X112607419Y-113998885D02*
X111607419Y-113998885D01*
X111607419Y-113998885D02*
X111750276Y-114094123D01*
X111750276Y-114094123D02*
X111845514Y-114189361D01*
X111845514Y-114189361D02*
X111893133Y-114284599D01*
X114223619Y-116852847D02*
X114223619Y-116662371D01*
X114223619Y-116662371D02*
X114271238Y-116567133D01*
X114271238Y-116567133D02*
X114366476Y-116471895D01*
X114366476Y-116471895D02*
X114556952Y-116424276D01*
X114556952Y-116424276D02*
X114890285Y-116424276D01*
X114890285Y-116424276D02*
X115080761Y-116471895D01*
X115080761Y-116471895D02*
X115176000Y-116567133D01*
X115176000Y-116567133D02*
X115223619Y-116662371D01*
X115223619Y-116662371D02*
X115223619Y-116852847D01*
X115223619Y-116852847D02*
X115176000Y-116948085D01*
X115176000Y-116948085D02*
X115080761Y-117043323D01*
X115080761Y-117043323D02*
X114890285Y-117090942D01*
X114890285Y-117090942D02*
X114556952Y-117090942D01*
X114556952Y-117090942D02*
X114366476Y-117043323D01*
X114366476Y-117043323D02*
X114271238Y-116948085D01*
X114271238Y-116948085D02*
X114223619Y-116852847D01*
X114223619Y-115995704D02*
X115033142Y-115995704D01*
X115033142Y-115995704D02*
X115128380Y-115948085D01*
X115128380Y-115948085D02*
X115176000Y-115900466D01*
X115176000Y-115900466D02*
X115223619Y-115805228D01*
X115223619Y-115805228D02*
X115223619Y-115614752D01*
X115223619Y-115614752D02*
X115176000Y-115519514D01*
X115176000Y-115519514D02*
X115128380Y-115471895D01*
X115128380Y-115471895D02*
X115033142Y-115424276D01*
X115033142Y-115424276D02*
X114223619Y-115424276D01*
X114223619Y-115090942D02*
X114223619Y-114519514D01*
X115223619Y-114805228D02*
X114223619Y-114805228D01*
X114318857Y-114233799D02*
X114271238Y-114186180D01*
X114271238Y-114186180D02*
X114223619Y-114090942D01*
X114223619Y-114090942D02*
X114223619Y-113852847D01*
X114223619Y-113852847D02*
X114271238Y-113757609D01*
X114271238Y-113757609D02*
X114318857Y-113709990D01*
X114318857Y-113709990D02*
X114414095Y-113662371D01*
X114414095Y-113662371D02*
X114509333Y-113662371D01*
X114509333Y-113662371D02*
X114652190Y-113709990D01*
X114652190Y-113709990D02*
X115223619Y-114281418D01*
X115223619Y-114281418D02*
X115223619Y-113662371D01*
X116585819Y-116827447D02*
X116585819Y-116636971D01*
X116585819Y-116636971D02*
X116633438Y-116541733D01*
X116633438Y-116541733D02*
X116728676Y-116446495D01*
X116728676Y-116446495D02*
X116919152Y-116398876D01*
X116919152Y-116398876D02*
X117252485Y-116398876D01*
X117252485Y-116398876D02*
X117442961Y-116446495D01*
X117442961Y-116446495D02*
X117538200Y-116541733D01*
X117538200Y-116541733D02*
X117585819Y-116636971D01*
X117585819Y-116636971D02*
X117585819Y-116827447D01*
X117585819Y-116827447D02*
X117538200Y-116922685D01*
X117538200Y-116922685D02*
X117442961Y-117017923D01*
X117442961Y-117017923D02*
X117252485Y-117065542D01*
X117252485Y-117065542D02*
X116919152Y-117065542D01*
X116919152Y-117065542D02*
X116728676Y-117017923D01*
X116728676Y-117017923D02*
X116633438Y-116922685D01*
X116633438Y-116922685D02*
X116585819Y-116827447D01*
X116585819Y-115970304D02*
X117395342Y-115970304D01*
X117395342Y-115970304D02*
X117490580Y-115922685D01*
X117490580Y-115922685D02*
X117538200Y-115875066D01*
X117538200Y-115875066D02*
X117585819Y-115779828D01*
X117585819Y-115779828D02*
X117585819Y-115589352D01*
X117585819Y-115589352D02*
X117538200Y-115494114D01*
X117538200Y-115494114D02*
X117490580Y-115446495D01*
X117490580Y-115446495D02*
X117395342Y-115398876D01*
X117395342Y-115398876D02*
X116585819Y-115398876D01*
X116585819Y-115065542D02*
X116585819Y-114494114D01*
X117585819Y-114779828D02*
X116585819Y-114779828D01*
X116585819Y-114256018D02*
X116585819Y-113636971D01*
X116585819Y-113636971D02*
X116966771Y-113970304D01*
X116966771Y-113970304D02*
X116966771Y-113827447D01*
X116966771Y-113827447D02*
X117014390Y-113732209D01*
X117014390Y-113732209D02*
X117062009Y-113684590D01*
X117062009Y-113684590D02*
X117157247Y-113636971D01*
X117157247Y-113636971D02*
X117395342Y-113636971D01*
X117395342Y-113636971D02*
X117490580Y-113684590D01*
X117490580Y-113684590D02*
X117538200Y-113732209D01*
X117538200Y-113732209D02*
X117585819Y-113827447D01*
X117585819Y-113827447D02*
X117585819Y-114113161D01*
X117585819Y-114113161D02*
X117538200Y-114208399D01*
X117538200Y-114208399D02*
X117490580Y-114256018D01*
X119278219Y-116827447D02*
X119278219Y-116636971D01*
X119278219Y-116636971D02*
X119325838Y-116541733D01*
X119325838Y-116541733D02*
X119421076Y-116446495D01*
X119421076Y-116446495D02*
X119611552Y-116398876D01*
X119611552Y-116398876D02*
X119944885Y-116398876D01*
X119944885Y-116398876D02*
X120135361Y-116446495D01*
X120135361Y-116446495D02*
X120230600Y-116541733D01*
X120230600Y-116541733D02*
X120278219Y-116636971D01*
X120278219Y-116636971D02*
X120278219Y-116827447D01*
X120278219Y-116827447D02*
X120230600Y-116922685D01*
X120230600Y-116922685D02*
X120135361Y-117017923D01*
X120135361Y-117017923D02*
X119944885Y-117065542D01*
X119944885Y-117065542D02*
X119611552Y-117065542D01*
X119611552Y-117065542D02*
X119421076Y-117017923D01*
X119421076Y-117017923D02*
X119325838Y-116922685D01*
X119325838Y-116922685D02*
X119278219Y-116827447D01*
X119278219Y-115970304D02*
X120087742Y-115970304D01*
X120087742Y-115970304D02*
X120182980Y-115922685D01*
X120182980Y-115922685D02*
X120230600Y-115875066D01*
X120230600Y-115875066D02*
X120278219Y-115779828D01*
X120278219Y-115779828D02*
X120278219Y-115589352D01*
X120278219Y-115589352D02*
X120230600Y-115494114D01*
X120230600Y-115494114D02*
X120182980Y-115446495D01*
X120182980Y-115446495D02*
X120087742Y-115398876D01*
X120087742Y-115398876D02*
X119278219Y-115398876D01*
X119278219Y-115065542D02*
X119278219Y-114494114D01*
X120278219Y-114779828D02*
X119278219Y-114779828D01*
X119611552Y-113732209D02*
X120278219Y-113732209D01*
X119230600Y-113970304D02*
X119944885Y-114208399D01*
X119944885Y-114208399D02*
X119944885Y-113589352D01*
X121843619Y-117144923D02*
X122653142Y-117144923D01*
X122653142Y-117144923D02*
X122748380Y-117097304D01*
X122748380Y-117097304D02*
X122796000Y-117049685D01*
X122796000Y-117049685D02*
X122843619Y-116954447D01*
X122843619Y-116954447D02*
X122843619Y-116763971D01*
X122843619Y-116763971D02*
X122796000Y-116668733D01*
X122796000Y-116668733D02*
X122748380Y-116621114D01*
X122748380Y-116621114D02*
X122653142Y-116573495D01*
X122653142Y-116573495D02*
X121843619Y-116573495D01*
X122843619Y-115621114D02*
X122843619Y-116097304D01*
X122843619Y-116097304D02*
X121843619Y-116097304D01*
X121843619Y-115430637D02*
X121843619Y-114859209D01*
X122843619Y-115144923D02*
X121843619Y-115144923D01*
X110118219Y-106603923D02*
X109118219Y-106603923D01*
X110118219Y-106127733D02*
X109118219Y-106127733D01*
X109118219Y-106127733D02*
X110118219Y-105556305D01*
X110118219Y-105556305D02*
X109118219Y-105556305D01*
X109451552Y-104651543D02*
X110118219Y-104651543D01*
X109070600Y-104889638D02*
X109784885Y-105127733D01*
X109784885Y-105127733D02*
X109784885Y-104508686D01*
X112734419Y-106502323D02*
X111734419Y-106502323D01*
X112734419Y-106026133D02*
X111734419Y-106026133D01*
X111734419Y-106026133D02*
X112734419Y-105454705D01*
X112734419Y-105454705D02*
X111734419Y-105454705D01*
X111734419Y-105073752D02*
X111734419Y-104454705D01*
X111734419Y-104454705D02*
X112115371Y-104788038D01*
X112115371Y-104788038D02*
X112115371Y-104645181D01*
X112115371Y-104645181D02*
X112162990Y-104549943D01*
X112162990Y-104549943D02*
X112210609Y-104502324D01*
X112210609Y-104502324D02*
X112305847Y-104454705D01*
X112305847Y-104454705D02*
X112543942Y-104454705D01*
X112543942Y-104454705D02*
X112639180Y-104502324D01*
X112639180Y-104502324D02*
X112686800Y-104549943D01*
X112686800Y-104549943D02*
X112734419Y-104645181D01*
X112734419Y-104645181D02*
X112734419Y-104930895D01*
X112734419Y-104930895D02*
X112686800Y-105026133D01*
X112686800Y-105026133D02*
X112639180Y-105073752D01*
X114296638Y-106410314D02*
X114249019Y-106505552D01*
X114249019Y-106505552D02*
X114249019Y-106648409D01*
X114249019Y-106648409D02*
X114296638Y-106791266D01*
X114296638Y-106791266D02*
X114391876Y-106886504D01*
X114391876Y-106886504D02*
X114487114Y-106934123D01*
X114487114Y-106934123D02*
X114677590Y-106981742D01*
X114677590Y-106981742D02*
X114820447Y-106981742D01*
X114820447Y-106981742D02*
X115010923Y-106934123D01*
X115010923Y-106934123D02*
X115106161Y-106886504D01*
X115106161Y-106886504D02*
X115201400Y-106791266D01*
X115201400Y-106791266D02*
X115249019Y-106648409D01*
X115249019Y-106648409D02*
X115249019Y-106553171D01*
X115249019Y-106553171D02*
X115201400Y-106410314D01*
X115201400Y-106410314D02*
X115153780Y-106362695D01*
X115153780Y-106362695D02*
X114820447Y-106362695D01*
X114820447Y-106362695D02*
X114820447Y-106553171D01*
X115249019Y-105934123D02*
X114249019Y-105934123D01*
X114249019Y-105934123D02*
X115249019Y-105362695D01*
X115249019Y-105362695D02*
X114249019Y-105362695D01*
X115249019Y-104886504D02*
X114249019Y-104886504D01*
X114249019Y-104886504D02*
X114249019Y-104648409D01*
X114249019Y-104648409D02*
X114296638Y-104505552D01*
X114296638Y-104505552D02*
X114391876Y-104410314D01*
X114391876Y-104410314D02*
X114487114Y-104362695D01*
X114487114Y-104362695D02*
X114677590Y-104315076D01*
X114677590Y-104315076D02*
X114820447Y-104315076D01*
X114820447Y-104315076D02*
X115010923Y-104362695D01*
X115010923Y-104362695D02*
X115106161Y-104410314D01*
X115106161Y-104410314D02*
X115201400Y-104505552D01*
X115201400Y-104505552D02*
X115249019Y-104648409D01*
X115249019Y-104648409D02*
X115249019Y-104886504D01*
X116687419Y-106797580D02*
X117687419Y-106464247D01*
X117687419Y-106464247D02*
X116687419Y-106130914D01*
X117639800Y-105369009D02*
X117687419Y-105464247D01*
X117687419Y-105464247D02*
X117687419Y-105654723D01*
X117687419Y-105654723D02*
X117639800Y-105749961D01*
X117639800Y-105749961D02*
X117592180Y-105797580D01*
X117592180Y-105797580D02*
X117496942Y-105845199D01*
X117496942Y-105845199D02*
X117211228Y-105845199D01*
X117211228Y-105845199D02*
X117115990Y-105797580D01*
X117115990Y-105797580D02*
X117068371Y-105749961D01*
X117068371Y-105749961D02*
X117020752Y-105654723D01*
X117020752Y-105654723D02*
X117020752Y-105464247D01*
X117020752Y-105464247D02*
X117068371Y-105369009D01*
X117639800Y-104511866D02*
X117687419Y-104607104D01*
X117687419Y-104607104D02*
X117687419Y-104797580D01*
X117687419Y-104797580D02*
X117639800Y-104892818D01*
X117639800Y-104892818D02*
X117592180Y-104940437D01*
X117592180Y-104940437D02*
X117496942Y-104988056D01*
X117496942Y-104988056D02*
X117211228Y-104988056D01*
X117211228Y-104988056D02*
X117115990Y-104940437D01*
X117115990Y-104940437D02*
X117068371Y-104892818D01*
X117068371Y-104892818D02*
X117020752Y-104797580D01*
X117020752Y-104797580D02*
X117020752Y-104607104D01*
X117020752Y-104607104D02*
X117068371Y-104511866D01*
X120278219Y-106527723D02*
X119278219Y-106527723D01*
X120278219Y-106051533D02*
X119278219Y-106051533D01*
X119278219Y-106051533D02*
X120278219Y-105480105D01*
X120278219Y-105480105D02*
X119278219Y-105480105D01*
X119373457Y-105051533D02*
X119325838Y-105003914D01*
X119325838Y-105003914D02*
X119278219Y-104908676D01*
X119278219Y-104908676D02*
X119278219Y-104670581D01*
X119278219Y-104670581D02*
X119325838Y-104575343D01*
X119325838Y-104575343D02*
X119373457Y-104527724D01*
X119373457Y-104527724D02*
X119468695Y-104480105D01*
X119468695Y-104480105D02*
X119563933Y-104480105D01*
X119563933Y-104480105D02*
X119706790Y-104527724D01*
X119706790Y-104527724D02*
X120278219Y-105099152D01*
X120278219Y-105099152D02*
X120278219Y-104480105D01*
X122767419Y-106273723D02*
X121767419Y-106273723D01*
X122767419Y-105797533D02*
X121767419Y-105797533D01*
X121767419Y-105797533D02*
X122767419Y-105226105D01*
X122767419Y-105226105D02*
X121767419Y-105226105D01*
X122767419Y-104226105D02*
X122767419Y-104797533D01*
X122767419Y-104511819D02*
X121767419Y-104511819D01*
X121767419Y-104511819D02*
X121910276Y-104607057D01*
X121910276Y-104607057D02*
X122005514Y-104702295D01*
X122005514Y-104702295D02*
X122053133Y-104797533D01*
X122817421Y-84803143D02*
X121817421Y-84803143D01*
X122817421Y-84326953D02*
X121817421Y-84326953D01*
X121817421Y-84326953D02*
X122817421Y-83755525D01*
X122817421Y-83755525D02*
X121817421Y-83755525D01*
X122817421Y-82755525D02*
X122817421Y-83326953D01*
X122817421Y-83041239D02*
X121817421Y-83041239D01*
X121817421Y-83041239D02*
X121960278Y-83136477D01*
X121960278Y-83136477D02*
X122055516Y-83231715D01*
X122055516Y-83231715D02*
X122103135Y-83326953D01*
X120328221Y-85057143D02*
X119328221Y-85057143D01*
X120328221Y-84580953D02*
X119328221Y-84580953D01*
X119328221Y-84580953D02*
X120328221Y-84009525D01*
X120328221Y-84009525D02*
X119328221Y-84009525D01*
X119423459Y-83580953D02*
X119375840Y-83533334D01*
X119375840Y-83533334D02*
X119328221Y-83438096D01*
X119328221Y-83438096D02*
X119328221Y-83200001D01*
X119328221Y-83200001D02*
X119375840Y-83104763D01*
X119375840Y-83104763D02*
X119423459Y-83057144D01*
X119423459Y-83057144D02*
X119518697Y-83009525D01*
X119518697Y-83009525D02*
X119613935Y-83009525D01*
X119613935Y-83009525D02*
X119756792Y-83057144D01*
X119756792Y-83057144D02*
X120328221Y-83628572D01*
X120328221Y-83628572D02*
X120328221Y-83009525D01*
X116737421Y-85327000D02*
X117737421Y-84993667D01*
X117737421Y-84993667D02*
X116737421Y-84660334D01*
X117689802Y-83898429D02*
X117737421Y-83993667D01*
X117737421Y-83993667D02*
X117737421Y-84184143D01*
X117737421Y-84184143D02*
X117689802Y-84279381D01*
X117689802Y-84279381D02*
X117642182Y-84327000D01*
X117642182Y-84327000D02*
X117546944Y-84374619D01*
X117546944Y-84374619D02*
X117261230Y-84374619D01*
X117261230Y-84374619D02*
X117165992Y-84327000D01*
X117165992Y-84327000D02*
X117118373Y-84279381D01*
X117118373Y-84279381D02*
X117070754Y-84184143D01*
X117070754Y-84184143D02*
X117070754Y-83993667D01*
X117070754Y-83993667D02*
X117118373Y-83898429D01*
X117689802Y-83041286D02*
X117737421Y-83136524D01*
X117737421Y-83136524D02*
X117737421Y-83327000D01*
X117737421Y-83327000D02*
X117689802Y-83422238D01*
X117689802Y-83422238D02*
X117642182Y-83469857D01*
X117642182Y-83469857D02*
X117546944Y-83517476D01*
X117546944Y-83517476D02*
X117261230Y-83517476D01*
X117261230Y-83517476D02*
X117165992Y-83469857D01*
X117165992Y-83469857D02*
X117118373Y-83422238D01*
X117118373Y-83422238D02*
X117070754Y-83327000D01*
X117070754Y-83327000D02*
X117070754Y-83136524D01*
X117070754Y-83136524D02*
X117118373Y-83041286D01*
X114346640Y-84939734D02*
X114299021Y-85034972D01*
X114299021Y-85034972D02*
X114299021Y-85177829D01*
X114299021Y-85177829D02*
X114346640Y-85320686D01*
X114346640Y-85320686D02*
X114441878Y-85415924D01*
X114441878Y-85415924D02*
X114537116Y-85463543D01*
X114537116Y-85463543D02*
X114727592Y-85511162D01*
X114727592Y-85511162D02*
X114870449Y-85511162D01*
X114870449Y-85511162D02*
X115060925Y-85463543D01*
X115060925Y-85463543D02*
X115156163Y-85415924D01*
X115156163Y-85415924D02*
X115251402Y-85320686D01*
X115251402Y-85320686D02*
X115299021Y-85177829D01*
X115299021Y-85177829D02*
X115299021Y-85082591D01*
X115299021Y-85082591D02*
X115251402Y-84939734D01*
X115251402Y-84939734D02*
X115203782Y-84892115D01*
X115203782Y-84892115D02*
X114870449Y-84892115D01*
X114870449Y-84892115D02*
X114870449Y-85082591D01*
X115299021Y-84463543D02*
X114299021Y-84463543D01*
X114299021Y-84463543D02*
X115299021Y-83892115D01*
X115299021Y-83892115D02*
X114299021Y-83892115D01*
X115299021Y-83415924D02*
X114299021Y-83415924D01*
X114299021Y-83415924D02*
X114299021Y-83177829D01*
X114299021Y-83177829D02*
X114346640Y-83034972D01*
X114346640Y-83034972D02*
X114441878Y-82939734D01*
X114441878Y-82939734D02*
X114537116Y-82892115D01*
X114537116Y-82892115D02*
X114727592Y-82844496D01*
X114727592Y-82844496D02*
X114870449Y-82844496D01*
X114870449Y-82844496D02*
X115060925Y-82892115D01*
X115060925Y-82892115D02*
X115156163Y-82939734D01*
X115156163Y-82939734D02*
X115251402Y-83034972D01*
X115251402Y-83034972D02*
X115299021Y-83177829D01*
X115299021Y-83177829D02*
X115299021Y-83415924D01*
X112784421Y-85031743D02*
X111784421Y-85031743D01*
X112784421Y-84555553D02*
X111784421Y-84555553D01*
X111784421Y-84555553D02*
X112784421Y-83984125D01*
X112784421Y-83984125D02*
X111784421Y-83984125D01*
X111784421Y-83603172D02*
X111784421Y-82984125D01*
X111784421Y-82984125D02*
X112165373Y-83317458D01*
X112165373Y-83317458D02*
X112165373Y-83174601D01*
X112165373Y-83174601D02*
X112212992Y-83079363D01*
X112212992Y-83079363D02*
X112260611Y-83031744D01*
X112260611Y-83031744D02*
X112355849Y-82984125D01*
X112355849Y-82984125D02*
X112593944Y-82984125D01*
X112593944Y-82984125D02*
X112689182Y-83031744D01*
X112689182Y-83031744D02*
X112736802Y-83079363D01*
X112736802Y-83079363D02*
X112784421Y-83174601D01*
X112784421Y-83174601D02*
X112784421Y-83460315D01*
X112784421Y-83460315D02*
X112736802Y-83555553D01*
X112736802Y-83555553D02*
X112689182Y-83603172D01*
X110168221Y-85133343D02*
X109168221Y-85133343D01*
X110168221Y-84657153D02*
X109168221Y-84657153D01*
X109168221Y-84657153D02*
X110168221Y-84085725D01*
X110168221Y-84085725D02*
X109168221Y-84085725D01*
X109501554Y-83180963D02*
X110168221Y-83180963D01*
X109120602Y-83419058D02*
X109834887Y-83657153D01*
X109834887Y-83657153D02*
X109834887Y-83038106D01*
X121893621Y-95674343D02*
X122703144Y-95674343D01*
X122703144Y-95674343D02*
X122798382Y-95626724D01*
X122798382Y-95626724D02*
X122846002Y-95579105D01*
X122846002Y-95579105D02*
X122893621Y-95483867D01*
X122893621Y-95483867D02*
X122893621Y-95293391D01*
X122893621Y-95293391D02*
X122846002Y-95198153D01*
X122846002Y-95198153D02*
X122798382Y-95150534D01*
X122798382Y-95150534D02*
X122703144Y-95102915D01*
X122703144Y-95102915D02*
X121893621Y-95102915D01*
X122893621Y-94150534D02*
X122893621Y-94626724D01*
X122893621Y-94626724D02*
X121893621Y-94626724D01*
X121893621Y-93960057D02*
X121893621Y-93388629D01*
X122893621Y-93674343D02*
X121893621Y-93674343D01*
X119328221Y-95356867D02*
X119328221Y-95166391D01*
X119328221Y-95166391D02*
X119375840Y-95071153D01*
X119375840Y-95071153D02*
X119471078Y-94975915D01*
X119471078Y-94975915D02*
X119661554Y-94928296D01*
X119661554Y-94928296D02*
X119994887Y-94928296D01*
X119994887Y-94928296D02*
X120185363Y-94975915D01*
X120185363Y-94975915D02*
X120280602Y-95071153D01*
X120280602Y-95071153D02*
X120328221Y-95166391D01*
X120328221Y-95166391D02*
X120328221Y-95356867D01*
X120328221Y-95356867D02*
X120280602Y-95452105D01*
X120280602Y-95452105D02*
X120185363Y-95547343D01*
X120185363Y-95547343D02*
X119994887Y-95594962D01*
X119994887Y-95594962D02*
X119661554Y-95594962D01*
X119661554Y-95594962D02*
X119471078Y-95547343D01*
X119471078Y-95547343D02*
X119375840Y-95452105D01*
X119375840Y-95452105D02*
X119328221Y-95356867D01*
X119328221Y-94499724D02*
X120137744Y-94499724D01*
X120137744Y-94499724D02*
X120232982Y-94452105D01*
X120232982Y-94452105D02*
X120280602Y-94404486D01*
X120280602Y-94404486D02*
X120328221Y-94309248D01*
X120328221Y-94309248D02*
X120328221Y-94118772D01*
X120328221Y-94118772D02*
X120280602Y-94023534D01*
X120280602Y-94023534D02*
X120232982Y-93975915D01*
X120232982Y-93975915D02*
X120137744Y-93928296D01*
X120137744Y-93928296D02*
X119328221Y-93928296D01*
X119328221Y-93594962D02*
X119328221Y-93023534D01*
X120328221Y-93309248D02*
X119328221Y-93309248D01*
X119661554Y-92261629D02*
X120328221Y-92261629D01*
X119280602Y-92499724D02*
X119994887Y-92737819D01*
X119994887Y-92737819D02*
X119994887Y-92118772D01*
X116635821Y-95356867D02*
X116635821Y-95166391D01*
X116635821Y-95166391D02*
X116683440Y-95071153D01*
X116683440Y-95071153D02*
X116778678Y-94975915D01*
X116778678Y-94975915D02*
X116969154Y-94928296D01*
X116969154Y-94928296D02*
X117302487Y-94928296D01*
X117302487Y-94928296D02*
X117492963Y-94975915D01*
X117492963Y-94975915D02*
X117588202Y-95071153D01*
X117588202Y-95071153D02*
X117635821Y-95166391D01*
X117635821Y-95166391D02*
X117635821Y-95356867D01*
X117635821Y-95356867D02*
X117588202Y-95452105D01*
X117588202Y-95452105D02*
X117492963Y-95547343D01*
X117492963Y-95547343D02*
X117302487Y-95594962D01*
X117302487Y-95594962D02*
X116969154Y-95594962D01*
X116969154Y-95594962D02*
X116778678Y-95547343D01*
X116778678Y-95547343D02*
X116683440Y-95452105D01*
X116683440Y-95452105D02*
X116635821Y-95356867D01*
X116635821Y-94499724D02*
X117445344Y-94499724D01*
X117445344Y-94499724D02*
X117540582Y-94452105D01*
X117540582Y-94452105D02*
X117588202Y-94404486D01*
X117588202Y-94404486D02*
X117635821Y-94309248D01*
X117635821Y-94309248D02*
X117635821Y-94118772D01*
X117635821Y-94118772D02*
X117588202Y-94023534D01*
X117588202Y-94023534D02*
X117540582Y-93975915D01*
X117540582Y-93975915D02*
X117445344Y-93928296D01*
X117445344Y-93928296D02*
X116635821Y-93928296D01*
X116635821Y-93594962D02*
X116635821Y-93023534D01*
X117635821Y-93309248D02*
X116635821Y-93309248D01*
X116635821Y-92785438D02*
X116635821Y-92166391D01*
X116635821Y-92166391D02*
X117016773Y-92499724D01*
X117016773Y-92499724D02*
X117016773Y-92356867D01*
X117016773Y-92356867D02*
X117064392Y-92261629D01*
X117064392Y-92261629D02*
X117112011Y-92214010D01*
X117112011Y-92214010D02*
X117207249Y-92166391D01*
X117207249Y-92166391D02*
X117445344Y-92166391D01*
X117445344Y-92166391D02*
X117540582Y-92214010D01*
X117540582Y-92214010D02*
X117588202Y-92261629D01*
X117588202Y-92261629D02*
X117635821Y-92356867D01*
X117635821Y-92356867D02*
X117635821Y-92642581D01*
X117635821Y-92642581D02*
X117588202Y-92737819D01*
X117588202Y-92737819D02*
X117540582Y-92785438D01*
X114273621Y-95382267D02*
X114273621Y-95191791D01*
X114273621Y-95191791D02*
X114321240Y-95096553D01*
X114321240Y-95096553D02*
X114416478Y-95001315D01*
X114416478Y-95001315D02*
X114606954Y-94953696D01*
X114606954Y-94953696D02*
X114940287Y-94953696D01*
X114940287Y-94953696D02*
X115130763Y-95001315D01*
X115130763Y-95001315D02*
X115226002Y-95096553D01*
X115226002Y-95096553D02*
X115273621Y-95191791D01*
X115273621Y-95191791D02*
X115273621Y-95382267D01*
X115273621Y-95382267D02*
X115226002Y-95477505D01*
X115226002Y-95477505D02*
X115130763Y-95572743D01*
X115130763Y-95572743D02*
X114940287Y-95620362D01*
X114940287Y-95620362D02*
X114606954Y-95620362D01*
X114606954Y-95620362D02*
X114416478Y-95572743D01*
X114416478Y-95572743D02*
X114321240Y-95477505D01*
X114321240Y-95477505D02*
X114273621Y-95382267D01*
X114273621Y-94525124D02*
X115083144Y-94525124D01*
X115083144Y-94525124D02*
X115178382Y-94477505D01*
X115178382Y-94477505D02*
X115226002Y-94429886D01*
X115226002Y-94429886D02*
X115273621Y-94334648D01*
X115273621Y-94334648D02*
X115273621Y-94144172D01*
X115273621Y-94144172D02*
X115226002Y-94048934D01*
X115226002Y-94048934D02*
X115178382Y-94001315D01*
X115178382Y-94001315D02*
X115083144Y-93953696D01*
X115083144Y-93953696D02*
X114273621Y-93953696D01*
X114273621Y-93620362D02*
X114273621Y-93048934D01*
X115273621Y-93334648D02*
X114273621Y-93334648D01*
X114368859Y-92763219D02*
X114321240Y-92715600D01*
X114321240Y-92715600D02*
X114273621Y-92620362D01*
X114273621Y-92620362D02*
X114273621Y-92382267D01*
X114273621Y-92382267D02*
X114321240Y-92287029D01*
X114321240Y-92287029D02*
X114368859Y-92239410D01*
X114368859Y-92239410D02*
X114464097Y-92191791D01*
X114464097Y-92191791D02*
X114559335Y-92191791D01*
X114559335Y-92191791D02*
X114702192Y-92239410D01*
X114702192Y-92239410D02*
X115273621Y-92810838D01*
X115273621Y-92810838D02*
X115273621Y-92191791D01*
X111657421Y-95433067D02*
X111657421Y-95242591D01*
X111657421Y-95242591D02*
X111705040Y-95147353D01*
X111705040Y-95147353D02*
X111800278Y-95052115D01*
X111800278Y-95052115D02*
X111990754Y-95004496D01*
X111990754Y-95004496D02*
X112324087Y-95004496D01*
X112324087Y-95004496D02*
X112514563Y-95052115D01*
X112514563Y-95052115D02*
X112609802Y-95147353D01*
X112609802Y-95147353D02*
X112657421Y-95242591D01*
X112657421Y-95242591D02*
X112657421Y-95433067D01*
X112657421Y-95433067D02*
X112609802Y-95528305D01*
X112609802Y-95528305D02*
X112514563Y-95623543D01*
X112514563Y-95623543D02*
X112324087Y-95671162D01*
X112324087Y-95671162D02*
X111990754Y-95671162D01*
X111990754Y-95671162D02*
X111800278Y-95623543D01*
X111800278Y-95623543D02*
X111705040Y-95528305D01*
X111705040Y-95528305D02*
X111657421Y-95433067D01*
X111657421Y-94575924D02*
X112466944Y-94575924D01*
X112466944Y-94575924D02*
X112562182Y-94528305D01*
X112562182Y-94528305D02*
X112609802Y-94480686D01*
X112609802Y-94480686D02*
X112657421Y-94385448D01*
X112657421Y-94385448D02*
X112657421Y-94194972D01*
X112657421Y-94194972D02*
X112609802Y-94099734D01*
X112609802Y-94099734D02*
X112562182Y-94052115D01*
X112562182Y-94052115D02*
X112466944Y-94004496D01*
X112466944Y-94004496D02*
X111657421Y-94004496D01*
X111657421Y-93671162D02*
X111657421Y-93099734D01*
X112657421Y-93385448D02*
X111657421Y-93385448D01*
X112657421Y-92242591D02*
X112657421Y-92814019D01*
X112657421Y-92528305D02*
X111657421Y-92528305D01*
X111657421Y-92528305D02*
X111800278Y-92623543D01*
X111800278Y-92623543D02*
X111895516Y-92718781D01*
X111895516Y-92718781D02*
X111943135Y-92814019D01*
X109593611Y-95572743D02*
X109593611Y-95239410D01*
X110117421Y-95096553D02*
X110117421Y-95572743D01*
X110117421Y-95572743D02*
X109117421Y-95572743D01*
X109117421Y-95572743D02*
X109117421Y-95096553D01*
X109593611Y-94667981D02*
X109593611Y-94334648D01*
X110117421Y-94191791D02*
X110117421Y-94667981D01*
X110117421Y-94667981D02*
X109117421Y-94667981D01*
X109117421Y-94667981D02*
X109117421Y-94191791D01*
X110117421Y-93763219D02*
X109117421Y-93763219D01*
X109117421Y-93763219D02*
X109117421Y-93382267D01*
X109117421Y-93382267D02*
X109165040Y-93287029D01*
X109165040Y-93287029D02*
X109212659Y-93239410D01*
X109212659Y-93239410D02*
X109307897Y-93191791D01*
X109307897Y-93191791D02*
X109450754Y-93191791D01*
X109450754Y-93191791D02*
X109545992Y-93239410D01*
X109545992Y-93239410D02*
X109593611Y-93287029D01*
X109593611Y-93287029D02*
X109641230Y-93382267D01*
X109641230Y-93382267D02*
X109641230Y-93763219D01*
X123376221Y-92296143D02*
X122376221Y-92296143D01*
X122376221Y-92296143D02*
X122376221Y-92058048D01*
X122376221Y-92058048D02*
X122423840Y-91915191D01*
X122423840Y-91915191D02*
X122519078Y-91819953D01*
X122519078Y-91819953D02*
X122614316Y-91772334D01*
X122614316Y-91772334D02*
X122804792Y-91724715D01*
X122804792Y-91724715D02*
X122947649Y-91724715D01*
X122947649Y-91724715D02*
X123138125Y-91772334D01*
X123138125Y-91772334D02*
X123233363Y-91819953D01*
X123233363Y-91819953D02*
X123328602Y-91915191D01*
X123328602Y-91915191D02*
X123376221Y-92058048D01*
X123376221Y-92058048D02*
X123376221Y-92296143D01*
X123376221Y-90724715D02*
X122900030Y-91058048D01*
X123376221Y-91296143D02*
X122376221Y-91296143D01*
X122376221Y-91296143D02*
X122376221Y-90915191D01*
X122376221Y-90915191D02*
X122423840Y-90819953D01*
X122423840Y-90819953D02*
X122471459Y-90772334D01*
X122471459Y-90772334D02*
X122566697Y-90724715D01*
X122566697Y-90724715D02*
X122709554Y-90724715D01*
X122709554Y-90724715D02*
X122804792Y-90772334D01*
X122804792Y-90772334D02*
X122852411Y-90819953D01*
X122852411Y-90819953D02*
X122900030Y-90915191D01*
X122900030Y-90915191D02*
X122900030Y-91296143D01*
X122376221Y-90439000D02*
X123376221Y-90105667D01*
X123376221Y-90105667D02*
X122376221Y-89772334D01*
X122804792Y-89296143D02*
X122757173Y-89391381D01*
X122757173Y-89391381D02*
X122709554Y-89439000D01*
X122709554Y-89439000D02*
X122614316Y-89486619D01*
X122614316Y-89486619D02*
X122566697Y-89486619D01*
X122566697Y-89486619D02*
X122471459Y-89439000D01*
X122471459Y-89439000D02*
X122423840Y-89391381D01*
X122423840Y-89391381D02*
X122376221Y-89296143D01*
X122376221Y-89296143D02*
X122376221Y-89105667D01*
X122376221Y-89105667D02*
X122423840Y-89010429D01*
X122423840Y-89010429D02*
X122471459Y-88962810D01*
X122471459Y-88962810D02*
X122566697Y-88915191D01*
X122566697Y-88915191D02*
X122614316Y-88915191D01*
X122614316Y-88915191D02*
X122709554Y-88962810D01*
X122709554Y-88962810D02*
X122757173Y-89010429D01*
X122757173Y-89010429D02*
X122804792Y-89105667D01*
X122804792Y-89105667D02*
X122804792Y-89296143D01*
X122804792Y-89296143D02*
X122852411Y-89391381D01*
X122852411Y-89391381D02*
X122900030Y-89439000D01*
X122900030Y-89439000D02*
X122995268Y-89486619D01*
X122995268Y-89486619D02*
X123185744Y-89486619D01*
X123185744Y-89486619D02*
X123280982Y-89439000D01*
X123280982Y-89439000D02*
X123328602Y-89391381D01*
X123328602Y-89391381D02*
X123376221Y-89296143D01*
X123376221Y-89296143D02*
X123376221Y-89105667D01*
X123376221Y-89105667D02*
X123328602Y-89010429D01*
X123328602Y-89010429D02*
X123280982Y-88962810D01*
X123280982Y-88962810D02*
X123185744Y-88915191D01*
X123185744Y-88915191D02*
X122995268Y-88915191D01*
X122995268Y-88915191D02*
X122900030Y-88962810D01*
X122900030Y-88962810D02*
X122852411Y-89010429D01*
X122852411Y-89010429D02*
X122804792Y-89105667D01*
X122804792Y-88343762D02*
X122757173Y-88439000D01*
X122757173Y-88439000D02*
X122709554Y-88486619D01*
X122709554Y-88486619D02*
X122614316Y-88534238D01*
X122614316Y-88534238D02*
X122566697Y-88534238D01*
X122566697Y-88534238D02*
X122471459Y-88486619D01*
X122471459Y-88486619D02*
X122423840Y-88439000D01*
X122423840Y-88439000D02*
X122376221Y-88343762D01*
X122376221Y-88343762D02*
X122376221Y-88153286D01*
X122376221Y-88153286D02*
X122423840Y-88058048D01*
X122423840Y-88058048D02*
X122471459Y-88010429D01*
X122471459Y-88010429D02*
X122566697Y-87962810D01*
X122566697Y-87962810D02*
X122614316Y-87962810D01*
X122614316Y-87962810D02*
X122709554Y-88010429D01*
X122709554Y-88010429D02*
X122757173Y-88058048D01*
X122757173Y-88058048D02*
X122804792Y-88153286D01*
X122804792Y-88153286D02*
X122804792Y-88343762D01*
X122804792Y-88343762D02*
X122852411Y-88439000D01*
X122852411Y-88439000D02*
X122900030Y-88486619D01*
X122900030Y-88486619D02*
X122995268Y-88534238D01*
X122995268Y-88534238D02*
X123185744Y-88534238D01*
X123185744Y-88534238D02*
X123280982Y-88486619D01*
X123280982Y-88486619D02*
X123328602Y-88439000D01*
X123328602Y-88439000D02*
X123376221Y-88343762D01*
X123376221Y-88343762D02*
X123376221Y-88153286D01*
X123376221Y-88153286D02*
X123328602Y-88058048D01*
X123328602Y-88058048D02*
X123280982Y-88010429D01*
X123280982Y-88010429D02*
X123185744Y-87962810D01*
X123185744Y-87962810D02*
X122995268Y-87962810D01*
X122995268Y-87962810D02*
X122900030Y-88010429D01*
X122900030Y-88010429D02*
X122852411Y-88058048D01*
X122852411Y-88058048D02*
X122804792Y-88153286D01*
X122376221Y-87629476D02*
X122376221Y-87010429D01*
X122376221Y-87010429D02*
X122757173Y-87343762D01*
X122757173Y-87343762D02*
X122757173Y-87200905D01*
X122757173Y-87200905D02*
X122804792Y-87105667D01*
X122804792Y-87105667D02*
X122852411Y-87058048D01*
X122852411Y-87058048D02*
X122947649Y-87010429D01*
X122947649Y-87010429D02*
X123185744Y-87010429D01*
X123185744Y-87010429D02*
X123280982Y-87058048D01*
X123280982Y-87058048D02*
X123328602Y-87105667D01*
X123328602Y-87105667D02*
X123376221Y-87200905D01*
X123376221Y-87200905D02*
X123376221Y-87486619D01*
X123376221Y-87486619D02*
X123328602Y-87581857D01*
X123328602Y-87581857D02*
X123280982Y-87629476D01*
X122376221Y-86677095D02*
X122376221Y-86058048D01*
X122376221Y-86058048D02*
X122757173Y-86391381D01*
X122757173Y-86391381D02*
X122757173Y-86248524D01*
X122757173Y-86248524D02*
X122804792Y-86153286D01*
X122804792Y-86153286D02*
X122852411Y-86105667D01*
X122852411Y-86105667D02*
X122947649Y-86058048D01*
X122947649Y-86058048D02*
X123185744Y-86058048D01*
X123185744Y-86058048D02*
X123280982Y-86105667D01*
X123280982Y-86105667D02*
X123328602Y-86153286D01*
X123328602Y-86153286D02*
X123376221Y-86248524D01*
X123376221Y-86248524D02*
X123376221Y-86534238D01*
X123376221Y-86534238D02*
X123328602Y-86629476D01*
X123328602Y-86629476D02*
X123280982Y-86677095D01*
X197031980Y-84200921D02*
X197031980Y-83629493D01*
X197031980Y-83915207D02*
X198031980Y-83915207D01*
X198031980Y-83915207D02*
X197889123Y-83819969D01*
X197889123Y-83819969D02*
X197793885Y-83724731D01*
X197793885Y-83724731D02*
X197746266Y-83629493D01*
X195396742Y-83654893D02*
X195444361Y-83702512D01*
X195444361Y-83702512D02*
X195491980Y-83797750D01*
X195491980Y-83797750D02*
X195491980Y-84035845D01*
X195491980Y-84035845D02*
X195444361Y-84131083D01*
X195444361Y-84131083D02*
X195396742Y-84178702D01*
X195396742Y-84178702D02*
X195301504Y-84226321D01*
X195301504Y-84226321D02*
X195206266Y-84226321D01*
X195206266Y-84226321D02*
X195063409Y-84178702D01*
X195063409Y-84178702D02*
X194491980Y-83607274D01*
X194491980Y-83607274D02*
X194491980Y-84226321D01*
X192875780Y-83607274D02*
X192875780Y-84226321D01*
X192875780Y-84226321D02*
X192494828Y-83892988D01*
X192494828Y-83892988D02*
X192494828Y-84035845D01*
X192494828Y-84035845D02*
X192447209Y-84131083D01*
X192447209Y-84131083D02*
X192399590Y-84178702D01*
X192399590Y-84178702D02*
X192304352Y-84226321D01*
X192304352Y-84226321D02*
X192066257Y-84226321D01*
X192066257Y-84226321D02*
X191971019Y-84178702D01*
X191971019Y-84178702D02*
X191923400Y-84131083D01*
X191923400Y-84131083D02*
X191875780Y-84035845D01*
X191875780Y-84035845D02*
X191875780Y-83750131D01*
X191875780Y-83750131D02*
X191923400Y-83654893D01*
X191923400Y-83654893D02*
X191971019Y-83607274D01*
X189926247Y-84029483D02*
X189259580Y-84029483D01*
X190307200Y-83791388D02*
X189592914Y-83553293D01*
X189592914Y-83553293D02*
X189592914Y-84172340D01*
X186795780Y-83296112D02*
X187795780Y-83296112D01*
X187319590Y-83296112D02*
X187319590Y-83867540D01*
X186795780Y-83867540D02*
X187795780Y-83867540D01*
X186795780Y-84819921D02*
X186795780Y-84343731D01*
X186795780Y-84343731D02*
X187795780Y-84343731D01*
X181811019Y-93036940D02*
X181763400Y-92989321D01*
X181763400Y-92989321D02*
X181715780Y-92846464D01*
X181715780Y-92846464D02*
X181715780Y-92751226D01*
X181715780Y-92751226D02*
X181763400Y-92608369D01*
X181763400Y-92608369D02*
X181858638Y-92513131D01*
X181858638Y-92513131D02*
X181953876Y-92465512D01*
X181953876Y-92465512D02*
X182144352Y-92417893D01*
X182144352Y-92417893D02*
X182287209Y-92417893D01*
X182287209Y-92417893D02*
X182477685Y-92465512D01*
X182477685Y-92465512D02*
X182572923Y-92513131D01*
X182572923Y-92513131D02*
X182668161Y-92608369D01*
X182668161Y-92608369D02*
X182715780Y-92751226D01*
X182715780Y-92751226D02*
X182715780Y-92846464D01*
X182715780Y-92846464D02*
X182668161Y-92989321D01*
X182668161Y-92989321D02*
X182620542Y-93036940D01*
X181715780Y-93941702D02*
X181715780Y-93465512D01*
X181715780Y-93465512D02*
X182715780Y-93465512D01*
X182096733Y-94275036D02*
X182096733Y-95036941D01*
X181715780Y-95989321D02*
X181715780Y-95513131D01*
X181715780Y-95513131D02*
X182715780Y-95513131D01*
X184249419Y-92859140D02*
X184201800Y-92811521D01*
X184201800Y-92811521D02*
X184154180Y-92668664D01*
X184154180Y-92668664D02*
X184154180Y-92573426D01*
X184154180Y-92573426D02*
X184201800Y-92430569D01*
X184201800Y-92430569D02*
X184297038Y-92335331D01*
X184297038Y-92335331D02*
X184392276Y-92287712D01*
X184392276Y-92287712D02*
X184582752Y-92240093D01*
X184582752Y-92240093D02*
X184725609Y-92240093D01*
X184725609Y-92240093D02*
X184916085Y-92287712D01*
X184916085Y-92287712D02*
X185011323Y-92335331D01*
X185011323Y-92335331D02*
X185106561Y-92430569D01*
X185106561Y-92430569D02*
X185154180Y-92573426D01*
X185154180Y-92573426D02*
X185154180Y-92668664D01*
X185154180Y-92668664D02*
X185106561Y-92811521D01*
X185106561Y-92811521D02*
X185058942Y-92859140D01*
X184154180Y-93763902D02*
X184154180Y-93287712D01*
X184154180Y-93287712D02*
X185154180Y-93287712D01*
X184535133Y-94097236D02*
X184535133Y-94859141D01*
X184154180Y-95906759D02*
X184630371Y-95573426D01*
X184154180Y-95335331D02*
X185154180Y-95335331D01*
X185154180Y-95335331D02*
X185154180Y-95716283D01*
X185154180Y-95716283D02*
X185106561Y-95811521D01*
X185106561Y-95811521D02*
X185058942Y-95859140D01*
X185058942Y-95859140D02*
X184963704Y-95906759D01*
X184963704Y-95906759D02*
X184820847Y-95906759D01*
X184820847Y-95906759D02*
X184725609Y-95859140D01*
X184725609Y-95859140D02*
X184677990Y-95811521D01*
X184677990Y-95811521D02*
X184630371Y-95716283D01*
X184630371Y-95716283D02*
X184630371Y-95335331D01*
X197543114Y-92903674D02*
X197543114Y-93760817D01*
X197514533Y-94751512D02*
X197514533Y-95513417D01*
X197133580Y-95132464D02*
X197895485Y-95132464D01*
X197127219Y-97100940D02*
X197079600Y-97053321D01*
X197079600Y-97053321D02*
X197031980Y-96910464D01*
X197031980Y-96910464D02*
X197031980Y-96815226D01*
X197031980Y-96815226D02*
X197079600Y-96672369D01*
X197079600Y-96672369D02*
X197174838Y-96577131D01*
X197174838Y-96577131D02*
X197270076Y-96529512D01*
X197270076Y-96529512D02*
X197460552Y-96481893D01*
X197460552Y-96481893D02*
X197603409Y-96481893D01*
X197603409Y-96481893D02*
X197793885Y-96529512D01*
X197793885Y-96529512D02*
X197889123Y-96577131D01*
X197889123Y-96577131D02*
X197984361Y-96672369D01*
X197984361Y-96672369D02*
X198031980Y-96815226D01*
X198031980Y-96815226D02*
X198031980Y-96910464D01*
X198031980Y-96910464D02*
X197984361Y-97053321D01*
X197984361Y-97053321D02*
X197936742Y-97100940D01*
X197031980Y-97529512D02*
X198031980Y-97529512D01*
X197555790Y-97529512D02*
X197555790Y-98100940D01*
X197031980Y-98100940D02*
X198031980Y-98100940D01*
D11*
G36*
X184200394Y-124152268D02*
G01*
X184202654Y-124399930D01*
X184210818Y-124563051D01*
X184226960Y-124657216D01*
X184253156Y-124698008D01*
X184273779Y-124703352D01*
X184360343Y-124746779D01*
X184415435Y-124852080D01*
X184420658Y-124981791D01*
X184417423Y-124995845D01*
X184401002Y-125056325D01*
X184376012Y-125092481D01*
X184319944Y-125111666D01*
X184210293Y-125121231D01*
X184024552Y-125128526D01*
X184009482Y-125129090D01*
X183794822Y-125126333D01*
X183663145Y-125096942D01*
X183621218Y-125068893D01*
X183561361Y-124986912D01*
X183549112Y-124946974D01*
X183579373Y-124839298D01*
X183649258Y-124743722D01*
X183726220Y-124703352D01*
X183759200Y-124686381D01*
X183780922Y-124625076D01*
X183793461Y-124503855D01*
X183798893Y-124307134D01*
X183799605Y-124152268D01*
X183799605Y-123601183D01*
X183999999Y-123601183D01*
X184200394Y-123601183D01*
X184200394Y-124152268D01*
G37*
G36*
X181639558Y-123641887D02*
G01*
X181700721Y-123694073D01*
X181725103Y-123696199D01*
X181801930Y-123705667D01*
X181893324Y-123735930D01*
X181930840Y-123757375D01*
X181934992Y-123784657D01*
X181895683Y-123824586D01*
X181802818Y-123883970D01*
X181646301Y-123969619D01*
X181416036Y-124088342D01*
X181235049Y-124179912D01*
X180939603Y-124332943D01*
X180710868Y-124460008D01*
X180556025Y-124556796D01*
X180482253Y-124619000D01*
X180477436Y-124634608D01*
X180474212Y-124723335D01*
X180445093Y-124799635D01*
X180353193Y-124881717D01*
X180224978Y-124905151D01*
X180103212Y-124869169D01*
X180043971Y-124806843D01*
X180001151Y-124695193D01*
X179992110Y-124637632D01*
X179956627Y-124546844D01*
X179916962Y-124502958D01*
X179852670Y-124393177D01*
X179851604Y-124257533D01*
X179901932Y-124162287D01*
X180016531Y-124108506D01*
X180152461Y-124116799D01*
X180233229Y-124162933D01*
X180277331Y-124178252D01*
X180360119Y-124163329D01*
X180494049Y-124113581D01*
X180691580Y-124024424D01*
X180946757Y-123900401D01*
X181218192Y-123768922D01*
X181412847Y-123682253D01*
X181541447Y-123636394D01*
X181614716Y-123627341D01*
X181639558Y-123641887D01*
G37*
G36*
X186461481Y-123626885D02*
G01*
X186607732Y-123685688D01*
X186827152Y-123788418D01*
X187016304Y-123881931D01*
X187283893Y-124013700D01*
X187477637Y-124102575D01*
X187611607Y-124153724D01*
X187699875Y-124172319D01*
X187756510Y-124163531D01*
X187767104Y-124157831D01*
X187917249Y-124105833D01*
X188053974Y-124129971D01*
X188098066Y-124162287D01*
X188153141Y-124277631D01*
X188140487Y-124409897D01*
X188065016Y-124510174D01*
X188062986Y-124511463D01*
X187997225Y-124582318D01*
X187991696Y-124633219D01*
X187989628Y-124747943D01*
X187914744Y-124847313D01*
X187793305Y-124901009D01*
X187757396Y-124903747D01*
X187613845Y-124865928D01*
X187554906Y-124799635D01*
X187519956Y-124693581D01*
X187522562Y-124634608D01*
X187487781Y-124589447D01*
X187368683Y-124507753D01*
X187172450Y-124393836D01*
X186906261Y-124252005D01*
X186764950Y-124179912D01*
X186484741Y-124037669D01*
X186284440Y-123932653D01*
X186153952Y-123858056D01*
X186083183Y-123807071D01*
X186062039Y-123772890D01*
X186080424Y-123748705D01*
X186106675Y-123735978D01*
X186222541Y-123701260D01*
X186292011Y-123695798D01*
X186346522Y-123664908D01*
X186354635Y-123628070D01*
X186379936Y-123608761D01*
X186461481Y-123626885D01*
G37*
G36*
X182179750Y-123617882D02*
G01*
X182185745Y-123677338D01*
X182179750Y-123684681D01*
X182149966Y-123677804D01*
X182146351Y-123651281D01*
X182164681Y-123610045D01*
X182179750Y-123617882D01*
G37*
G36*
X185836949Y-123617882D02*
G01*
X185842945Y-123677338D01*
X185836949Y-123684681D01*
X185807165Y-123677804D01*
X185803550Y-123651281D01*
X185821880Y-123610045D01*
X185836949Y-123617882D01*
G37*
G36*
X183006477Y-121103589D02*
G01*
X183234206Y-121137324D01*
X183323668Y-121167515D01*
X183473964Y-121234260D01*
X183341758Y-121287146D01*
X183154232Y-121397307D01*
X182962269Y-121566691D01*
X182800414Y-121762222D01*
X182739182Y-121864102D01*
X182660850Y-122113999D01*
X182654856Y-122387133D01*
X182718419Y-122647436D01*
X182812527Y-122815793D01*
X182946982Y-122992074D01*
X182720927Y-123078405D01*
X182581524Y-123141197D01*
X182522680Y-123198153D01*
X182523044Y-123253497D01*
X182523397Y-123346743D01*
X182468967Y-123374262D01*
X182396844Y-123325640D01*
X182321636Y-123274145D01*
X182277182Y-123302238D01*
X182290886Y-123389365D01*
X182296646Y-123400788D01*
X182319744Y-123493854D01*
X182299295Y-123524398D01*
X182242654Y-123509768D01*
X182196449Y-123450887D01*
X182129108Y-123380311D01*
X182070701Y-123400338D01*
X182046153Y-123500986D01*
X182025488Y-123602011D01*
X181979499Y-123615742D01*
X181932198Y-123542095D01*
X181921003Y-123501423D01*
X181879280Y-123387888D01*
X181832422Y-123354440D01*
X181797815Y-123406147D01*
X181790628Y-123463412D01*
X181779064Y-123495858D01*
X181754467Y-123436940D01*
X181738828Y-123376306D01*
X181716591Y-123224419D01*
X181741607Y-123160068D01*
X181743860Y-123159212D01*
X181791643Y-123106030D01*
X181783117Y-123034801D01*
X181725872Y-122999999D01*
X181649445Y-122959423D01*
X181625675Y-122920754D01*
X181600244Y-122842031D01*
X181628609Y-122822489D01*
X181716761Y-122836725D01*
X181887062Y-122831818D01*
X182088388Y-122772443D01*
X182278305Y-122672271D01*
X182318565Y-122642821D01*
X182411542Y-122538902D01*
X182445379Y-122399811D01*
X182446942Y-122345081D01*
X182429881Y-122201858D01*
X182379186Y-122152737D01*
X182295586Y-122197700D01*
X182179813Y-122336730D01*
X182169273Y-122351787D01*
X182031533Y-122529742D01*
X181899046Y-122664672D01*
X181786504Y-122744611D01*
X181708600Y-122757594D01*
X181690577Y-122741601D01*
X181636364Y-122704533D01*
X181613654Y-122714419D01*
X181578426Y-122694659D01*
X181527969Y-122606652D01*
X181473687Y-122478744D01*
X181426980Y-122339281D01*
X181399252Y-122216610D01*
X181396012Y-122173372D01*
X181442356Y-121961598D01*
X181565083Y-121737769D01*
X181746039Y-121523033D01*
X181967073Y-121338538D01*
X182210031Y-121205433D01*
X182235346Y-121195571D01*
X182470532Y-121133654D01*
X182739747Y-121102680D01*
X183006477Y-121103589D01*
G37*
G36*
X185406775Y-121115721D02*
G01*
X185666627Y-121164761D01*
X185771254Y-121198041D01*
X186014635Y-121327262D01*
X186243341Y-121516115D01*
X186430860Y-121737882D01*
X186550677Y-121965846D01*
X186559151Y-121992030D01*
X186591581Y-122132836D01*
X186588520Y-122258259D01*
X186547158Y-122415845D01*
X186531288Y-122463531D01*
X186474608Y-122615498D01*
X186423676Y-122694308D01*
X186356980Y-122723225D01*
X186288368Y-122726225D01*
X186190806Y-122709547D01*
X186096203Y-122650695D01*
X185981565Y-122532742D01*
X185911658Y-122448915D01*
X185760850Y-122273240D01*
X185656808Y-122179837D01*
X185592339Y-122166548D01*
X185560251Y-122231219D01*
X185553057Y-122341408D01*
X185571914Y-122499645D01*
X185641371Y-122608069D01*
X185681433Y-122642821D01*
X185864272Y-122752082D01*
X186068831Y-122822538D01*
X186252608Y-122840599D01*
X186286145Y-122836169D01*
X186374392Y-122831992D01*
X186386114Y-122875117D01*
X186382591Y-122885242D01*
X186357578Y-122962046D01*
X186354635Y-122979048D01*
X186313733Y-122997682D01*
X186279487Y-122999999D01*
X186217918Y-123036233D01*
X186207525Y-123107997D01*
X186253424Y-123158645D01*
X186278571Y-123214419D01*
X186276236Y-123333197D01*
X186272080Y-123362220D01*
X186243229Y-123475065D01*
X186209070Y-123524782D01*
X186200133Y-123523436D01*
X186178480Y-123461784D01*
X186186837Y-123424233D01*
X186187216Y-123360703D01*
X186166847Y-123350690D01*
X186121170Y-123393431D01*
X186073384Y-123497897D01*
X186068340Y-123513510D01*
X186027186Y-123612265D01*
X185995539Y-123612158D01*
X185990751Y-123601183D01*
X185951826Y-123489669D01*
X185930494Y-123426165D01*
X185902805Y-123360730D01*
X185868221Y-123369889D01*
X185811048Y-123440946D01*
X185731673Y-123514568D01*
X185682686Y-123510655D01*
X185686487Y-123438462D01*
X185705251Y-123397242D01*
X185724889Y-123306714D01*
X185682765Y-123274063D01*
X185608144Y-123319813D01*
X185603155Y-123325640D01*
X185525804Y-123374870D01*
X185474365Y-123341868D01*
X185476955Y-123253497D01*
X185473060Y-123189828D01*
X185403941Y-123133157D01*
X185275615Y-123077085D01*
X185141831Y-123021393D01*
X185087484Y-122979449D01*
X185096696Y-122934101D01*
X185118193Y-122907044D01*
X185277701Y-122656194D01*
X185348403Y-122383315D01*
X185334251Y-122104270D01*
X185239193Y-121834922D01*
X185067181Y-121591132D01*
X184822167Y-121388764D01*
X184726429Y-121334017D01*
X184526035Y-121230268D01*
X184676331Y-121165520D01*
X184874956Y-121115011D01*
X185130661Y-121098774D01*
X185406775Y-121115721D01*
G37*
G36*
X183143468Y-123072153D02*
G01*
X183143971Y-123072458D01*
X183190224Y-123117053D01*
X183173430Y-123165991D01*
X183083488Y-123229960D01*
X182910354Y-123319618D01*
X182773973Y-123381601D01*
X182691491Y-123410315D01*
X182680432Y-123399687D01*
X182680996Y-123399098D01*
X182720372Y-123314593D01*
X182716489Y-123277984D01*
X182742600Y-123224215D01*
X182831917Y-123160609D01*
X182950878Y-123103306D01*
X183065916Y-123068441D01*
X183143468Y-123072153D01*
G37*
G36*
X184212735Y-121235206D02*
G01*
X184378526Y-121271904D01*
X184549619Y-121349265D01*
X184604010Y-121379128D01*
X184883599Y-121577277D01*
X185082303Y-121804629D01*
X185198582Y-122049059D01*
X185230900Y-122298440D01*
X185177719Y-122540643D01*
X185037500Y-122763544D01*
X184808706Y-122955014D01*
X184804200Y-122957828D01*
X184658230Y-123049569D01*
X184581865Y-123108109D01*
X184560534Y-123154602D01*
X184579670Y-123210202D01*
X184601820Y-123251683D01*
X184622474Y-123337901D01*
X184557294Y-123397465D01*
X184484756Y-123418172D01*
X184433181Y-123369746D01*
X184400283Y-123299371D01*
X184335783Y-123181989D01*
X184284471Y-123159501D01*
X184254696Y-123231633D01*
X184250493Y-123304265D01*
X184237440Y-123412549D01*
X184189194Y-123444339D01*
X184162820Y-123441607D01*
X184088102Y-123381090D01*
X184059295Y-123287638D01*
X184034069Y-123187764D01*
X183999999Y-123150295D01*
X183963410Y-123193602D01*
X183940704Y-123287638D01*
X183897935Y-123401855D01*
X183837179Y-123441607D01*
X183774111Y-123430645D01*
X183750799Y-123350337D01*
X183749506Y-123304265D01*
X183734990Y-123184133D01*
X183694298Y-123159633D01*
X183631714Y-123230938D01*
X183595775Y-123297969D01*
X183535515Y-123395558D01*
X183475983Y-123412975D01*
X183436059Y-123395492D01*
X183377219Y-123339258D01*
X183395667Y-123256943D01*
X183404179Y-123240471D01*
X183434332Y-123149803D01*
X183392903Y-123097385D01*
X183391986Y-123096861D01*
X183205231Y-122966975D01*
X183908463Y-122966975D01*
X183918805Y-123036814D01*
X183982925Y-123041437D01*
X184060077Y-122992783D01*
X184075147Y-122949215D01*
X184043875Y-122885405D01*
X183978088Y-122881751D01*
X183919834Y-122933774D01*
X183908463Y-122966975D01*
X183205231Y-122966975D01*
X183099876Y-122893702D01*
X182896149Y-122668073D01*
X182784584Y-122425774D01*
X182775884Y-122284774D01*
X182954266Y-122284774D01*
X182966823Y-122374393D01*
X183015997Y-122488658D01*
X183091364Y-122598854D01*
X183130474Y-122638952D01*
X183215646Y-122702068D01*
X183311919Y-122734416D01*
X183452182Y-122743145D01*
X183591482Y-122739150D01*
X183773216Y-122727039D01*
X183877588Y-122705959D01*
X183927421Y-122668547D01*
X183942637Y-122625855D01*
X183945756Y-122574159D01*
X184025944Y-122574159D01*
X184050098Y-122649309D01*
X184096963Y-122706069D01*
X184177921Y-122736694D01*
X184319508Y-122748441D01*
X184416453Y-122749506D01*
X184666232Y-122731474D01*
X184829776Y-122678283D01*
X184843691Y-122669303D01*
X184942273Y-122570236D01*
X185009937Y-122448648D01*
X185031508Y-122338954D01*
X185011690Y-122288298D01*
X184949073Y-122290047D01*
X184819956Y-122336314D01*
X184643570Y-122419752D01*
X184580308Y-122453090D01*
X184375307Y-122557801D01*
X184239920Y-122611454D01*
X184160504Y-122618736D01*
X184136594Y-122605548D01*
X184058105Y-122551491D01*
X184025944Y-122574159D01*
X183945756Y-122574159D01*
X183946683Y-122558787D01*
X183903782Y-122575685D01*
X183881833Y-122593335D01*
X183830214Y-122619293D01*
X183758058Y-122613261D01*
X183645135Y-122569114D01*
X183471215Y-122480732D01*
X183421320Y-122453969D01*
X183242950Y-122360807D01*
X183096023Y-122289691D01*
X183004170Y-122251845D01*
X182988749Y-122248520D01*
X182954266Y-122284774D01*
X182775884Y-122284774D01*
X182768962Y-122172601D01*
X182772754Y-122147310D01*
X182859906Y-121904874D01*
X183029144Y-121669795D01*
X183263311Y-121463219D01*
X183395989Y-121379128D01*
X183577583Y-121288393D01*
X183739640Y-121241931D01*
X183934409Y-121226489D01*
X183999999Y-121225919D01*
X184212735Y-121235206D01*
G37*
G36*
X185030422Y-123096180D02*
G01*
X185152798Y-123145922D01*
X185248977Y-123208269D01*
X185285521Y-123269098D01*
X185283509Y-123277984D01*
X185293596Y-123362663D01*
X185316498Y-123394684D01*
X185352387Y-123436265D01*
X185335290Y-123441347D01*
X185253889Y-123406266D01*
X185096870Y-123327359D01*
X185077120Y-123317199D01*
X184916918Y-123233788D01*
X184830375Y-123182037D01*
X184802263Y-123147366D01*
X184817350Y-123115197D01*
X184840830Y-123091004D01*
X184915286Y-123073166D01*
X185030422Y-123096180D01*
G37*
G36*
X179881079Y-122175879D02*
G01*
X179913725Y-122214278D01*
X179960834Y-122268293D01*
X180013244Y-122305484D01*
X180089844Y-122329524D01*
X180209521Y-122344089D01*
X180391166Y-122352856D01*
X180653667Y-122359498D01*
X180660885Y-122359656D01*
X181303375Y-122373767D01*
X181371754Y-122536587D01*
X181440133Y-122699408D01*
X180714549Y-122699408D01*
X180428194Y-122700573D01*
X180226439Y-122705272D01*
X180093704Y-122715306D01*
X180014407Y-122732478D01*
X179972966Y-122758591D01*
X179956618Y-122787080D01*
X179873471Y-122902171D01*
X179754291Y-122951669D01*
X179632023Y-122932215D01*
X179539606Y-122840448D01*
X179534598Y-122830123D01*
X179507295Y-122688299D01*
X179531424Y-122618498D01*
X179553590Y-122488057D01*
X179534199Y-122435791D01*
X179507291Y-122296725D01*
X179565857Y-122178340D01*
X179678478Y-122115783D01*
X179788880Y-122111091D01*
X179881079Y-122175879D01*
G37*
G36*
X188321521Y-122115783D02*
G01*
X188442848Y-122188232D01*
X188494631Y-122307777D01*
X188467151Y-122432171D01*
X188448558Y-122562731D01*
X188469250Y-122627240D01*
X188490650Y-122765132D01*
X188437815Y-122874416D01*
X188335913Y-122939045D01*
X188210116Y-122942971D01*
X188086615Y-122871174D01*
X188023380Y-122789046D01*
X188007889Y-122745928D01*
X187960422Y-122728749D01*
X187828504Y-122714651D01*
X187627862Y-122704643D01*
X187374219Y-122699736D01*
X187283877Y-122699408D01*
X186559866Y-122699408D01*
X186628245Y-122536587D01*
X186696624Y-122373767D01*
X187339114Y-122359656D01*
X187603720Y-122353020D01*
X187787030Y-122344345D01*
X187907935Y-122329956D01*
X187985321Y-122306178D01*
X188038079Y-122269335D01*
X188085097Y-122215753D01*
X188086274Y-122214278D01*
X188181591Y-122123455D01*
X188281548Y-122107789D01*
X188321521Y-122115783D01*
G37*
G36*
X180357265Y-120312431D02*
G01*
X180434509Y-120380082D01*
X180443527Y-120395860D01*
X180479252Y-120503482D01*
X180476768Y-120565554D01*
X180510587Y-120614316D01*
X180631673Y-120697816D01*
X180834611Y-120812722D01*
X181099143Y-120948365D01*
X181328727Y-121063340D01*
X181522403Y-121162751D01*
X181664269Y-121238245D01*
X181738422Y-121281469D01*
X181745562Y-121287875D01*
X181716613Y-121335046D01*
X181645388Y-121426105D01*
X181629767Y-121444846D01*
X181513973Y-121582459D01*
X180918045Y-121283664D01*
X180665419Y-121159630D01*
X180485442Y-121078754D01*
X180363084Y-121035703D01*
X180283313Y-121025142D01*
X180232941Y-121040560D01*
X180080993Y-121093801D01*
X179949453Y-121068233D01*
X179862754Y-120974460D01*
X179841814Y-120870808D01*
X179868926Y-120755861D01*
X179901895Y-120705520D01*
X179958560Y-120617672D01*
X180012848Y-120487986D01*
X180014617Y-120482581D01*
X180071879Y-120364345D01*
X180164221Y-120313653D01*
X180226750Y-120304273D01*
X180357265Y-120312431D01*
G37*
G36*
X187881884Y-120332555D02*
G01*
X187948433Y-120390568D01*
X187985382Y-120482581D01*
X188038979Y-120612807D01*
X188096093Y-120703450D01*
X188098104Y-120705520D01*
X188148264Y-120803155D01*
X188158185Y-120870808D01*
X188118834Y-121007073D01*
X188017071Y-121082761D01*
X187877333Y-121087267D01*
X187767078Y-121040573D01*
X187714032Y-121025045D01*
X187632681Y-121036817D01*
X187508030Y-121081189D01*
X187325085Y-121163465D01*
X187078901Y-121283928D01*
X186479881Y-121582962D01*
X186361292Y-121437321D01*
X186289295Y-121339579D01*
X186259716Y-121280150D01*
X186261095Y-121274820D01*
X186310271Y-121247427D01*
X186432103Y-121184194D01*
X186609514Y-121093867D01*
X186825429Y-120985190D01*
X186881260Y-120957259D01*
X187127850Y-120832113D01*
X187299208Y-120738434D01*
X187410793Y-120665086D01*
X187478062Y-120600936D01*
X187516475Y-120534848D01*
X187532542Y-120488140D01*
X187578985Y-120373155D01*
X187651384Y-120327149D01*
X187757396Y-120319723D01*
X187881884Y-120332555D01*
G37*
G36*
X184191329Y-119906832D02*
G01*
X184307375Y-119923184D01*
X184372857Y-119957834D01*
X184404952Y-120001862D01*
X184429303Y-120106090D01*
X184378145Y-120222886D01*
X184305304Y-120310901D01*
X184249338Y-120344773D01*
X184225401Y-120391029D01*
X184208136Y-120514562D01*
X184200521Y-120692521D01*
X184200394Y-120720512D01*
X184200394Y-121096252D01*
X183999999Y-121096252D01*
X183799605Y-121096252D01*
X183799605Y-120720512D01*
X183793580Y-120536750D01*
X183777488Y-120404211D01*
X183754307Y-120345746D01*
X183750661Y-120344773D01*
X183690564Y-120306992D01*
X183621854Y-120222886D01*
X183570652Y-120105725D01*
X183595047Y-120001862D01*
X183638137Y-119948580D01*
X183712357Y-119918353D01*
X183842430Y-119905130D01*
X183999999Y-119902726D01*
X184191329Y-119906832D01*
G37*
D10*
X127521600Y-96854728D02*
X178221600Y-96854728D01*
X178221600Y-124854728D01*
X127521600Y-124854728D01*
X127521600Y-96854728D01*
X188200000Y-100800000D02*
X204000000Y-100800000D01*
X204000000Y-119000000D01*
X188200000Y-119000000D01*
X188200000Y-100800000D01*
X180500000Y-75216628D02*
X190400000Y-75216628D01*
X190400000Y-80916628D01*
X180500000Y-80916628D01*
X180500000Y-75216628D01*
X133307300Y-74516628D02*
X176307300Y-74516628D01*
X176307300Y-95516628D01*
X133307300Y-95516628D01*
X133307300Y-74516628D01*
X119500000Y-73166628D02*
X129400000Y-73166628D01*
X129400000Y-78866628D01*
X119500000Y-78866628D01*
X119500000Y-73166628D01*
X114011400Y-121437208D02*
X123911400Y-121437208D01*
X123911400Y-127137208D01*
X114011400Y-127137208D01*
X114011400Y-121437208D01*
X194020000Y-121000000D02*
X203920000Y-121000000D01*
X203920000Y-126700000D01*
X194020000Y-126700000D01*
X194020000Y-121000000D01*
X108500000Y-73166628D02*
X118400000Y-73166628D01*
X118400000Y-78866628D01*
X108500000Y-78866628D01*
X108500000Y-73166628D01*
X108061400Y-101687208D02*
X123861400Y-101687208D01*
X123861400Y-119887208D01*
X108061400Y-119887208D01*
X108061400Y-101687208D01*
X107861400Y-124387208D02*
X110861400Y-124387208D01*
X110861400Y-127387208D01*
X107861400Y-127387208D01*
X107861400Y-124387208D01*
X107861400Y-120887208D02*
X110861400Y-120887208D01*
X110861400Y-123887208D01*
X107861400Y-123887208D01*
X107861400Y-120887208D01*
X193020000Y-73516628D02*
X196020000Y-73516628D01*
X196020000Y-76516628D01*
X193020000Y-76516628D01*
X193020000Y-73516628D01*
X133420000Y-70916628D02*
X136420000Y-70916628D01*
X136420000Y-73916628D01*
X133420000Y-73916628D01*
X133420000Y-70916628D01*
X125500000Y-90000000D02*
X128500000Y-90000000D01*
X128500000Y-93000000D01*
X125500000Y-93000000D01*
X125500000Y-90000000D01*
X125500000Y-86516628D02*
X128500000Y-86516628D01*
X128500000Y-89516628D01*
X125500000Y-89516628D01*
X125500000Y-86516628D01*
X196520000Y-73516628D02*
X199520000Y-73516628D01*
X199520000Y-76516628D01*
X196520000Y-76516628D01*
X196520000Y-73516628D01*
X108111402Y-80216628D02*
X123911402Y-80216628D01*
X123911402Y-98416628D01*
X108111402Y-98416628D01*
X108111402Y-80216628D01*
X136620000Y-70916628D02*
X139620000Y-70916628D01*
X139620000Y-73916628D01*
X136620000Y-73916628D01*
X136620000Y-70916628D01*
X179200000Y-82636628D02*
X199800000Y-82636628D01*
X199800000Y-98786628D01*
X179200000Y-98786628D01*
X179200000Y-82636628D01*
%LPC*%
D12*
X177120000Y-123338528D03*
X174580000Y-123338528D03*
X172040000Y-123338528D03*
X169500000Y-123338528D03*
X166960000Y-123338528D03*
X164420000Y-123338528D03*
X161880000Y-123338528D03*
X159340000Y-123338528D03*
X156800000Y-123338528D03*
X154260000Y-123338528D03*
X151720000Y-123338528D03*
X149180000Y-123338528D03*
X146640000Y-123338528D03*
X144100000Y-123338528D03*
X141560000Y-123338528D03*
X139020000Y-123338528D03*
X136480000Y-123338528D03*
X133940000Y-123338528D03*
X131400000Y-123338528D03*
X128860000Y-123338528D03*
X128860000Y-98218528D03*
X131400000Y-98218528D03*
X133940000Y-98218528D03*
X136480000Y-98218528D03*
X139020000Y-98218528D03*
X141560000Y-98218528D03*
X144100000Y-98218528D03*
X146640000Y-98218528D03*
X149180000Y-98218528D03*
X151720000Y-98218528D03*
X154260000Y-98218528D03*
X156800000Y-98218528D03*
X159340000Y-98218528D03*
X161880000Y-98218528D03*
X164420000Y-98218528D03*
X166960000Y-98218528D03*
X169500000Y-98218528D03*
X172040000Y-98218528D03*
X174580000Y-98218528D03*
X177120000Y-98218528D03*
D13*
X189698600Y-117559000D03*
X189698600Y-102200000D03*
X192238600Y-117559000D03*
X192238600Y-102200000D03*
X194778600Y-117559000D03*
X194778600Y-102200000D03*
X197318600Y-117559000D03*
X197318600Y-102200000D03*
X199858600Y-117559000D03*
X199858600Y-102200000D03*
X202398600Y-117559000D03*
X202398600Y-102200000D03*
D12*
X188000000Y-78416628D03*
X185460000Y-78416628D03*
X182920000Y-78416628D03*
X134772700Y-94076628D03*
X134772700Y-75956628D03*
X174892700Y-94076628D03*
X174892700Y-75956628D03*
X127000000Y-76366628D03*
X124460000Y-76366628D03*
X121920000Y-76366628D03*
X116411400Y-123937208D03*
X118951400Y-123937208D03*
X121491400Y-123937208D03*
X196420000Y-123500000D03*
X198960000Y-123500000D03*
X201500000Y-123500000D03*
X116000000Y-76366628D03*
X113460000Y-76366628D03*
X110920000Y-76366628D03*
D13*
X122260000Y-103087208D03*
X122260000Y-118446208D03*
X119720000Y-103087208D03*
X119720000Y-118446208D03*
X117180000Y-103087208D03*
X117180000Y-118446208D03*
X114640000Y-103087208D03*
X114640000Y-118446208D03*
X112100000Y-103087208D03*
X112100000Y-118446208D03*
X109560000Y-103087208D03*
X109560000Y-118446208D03*
D14*
X109361400Y-125887208D03*
X109361400Y-122387208D03*
X194520000Y-75016628D03*
X134920000Y-72416628D03*
X127000000Y-91500000D03*
X127000000Y-88016628D03*
X198020000Y-75016628D03*
D13*
X109610002Y-96975628D03*
X109610002Y-81616628D03*
X112150002Y-96975628D03*
X112150002Y-81616628D03*
X114690002Y-96975628D03*
X114690002Y-81616628D03*
X117230002Y-96975628D03*
X117230002Y-81616628D03*
X119770002Y-96975628D03*
X119770002Y-81616628D03*
X122310002Y-96975628D03*
X122310002Y-81616628D03*
D14*
X138120000Y-72416628D03*
D12*
X182260000Y-90916628D03*
X182260000Y-88376628D03*
X182260000Y-85836628D03*
X184800000Y-90916628D03*
X184800000Y-88376628D03*
X184800000Y-85836628D03*
X187340000Y-90916628D03*
X187340000Y-88376628D03*
X187340000Y-85836628D03*
X189880000Y-90916628D03*
X189880000Y-88376628D03*
X189880000Y-85836628D03*
X192420000Y-90916628D03*
X192420000Y-88376628D03*
X192420000Y-85836628D03*
X194960000Y-90916628D03*
X194960000Y-88376628D03*
X194960000Y-85836628D03*
X197500000Y-90916628D03*
X197500000Y-88376628D03*
X197500000Y-85836628D03*
%LPD*%
M02*
