G04 #@! TF.GenerationSoftware,KiCad,Pcbnew,10.0.3*
G04 #@! TF.CreationDate,2026-05-31T23:35:21-04:00*
G04 #@! TF.ProjectId,BattleBot,42617474-6c65-4426-9f74-2e6b69636164,rev?*
G04 #@! TF.SameCoordinates,Original*
G04 #@! TF.FileFunction,Copper,L1,Top*
G04 #@! TF.FilePolarity,Positive*
%FSLAX46Y46*%
G04 Gerber Fmt 4.6, Leading zero omitted, Abs format (unit mm)*
G04 Created by KiCad (PCBNEW 10.0.3) date 2026-05-31 23:35:21*
%MOMM*%
%LPD*%
G01*
G04 APERTURE LIST*
G04 Aperture macros list*
%AMRoundRect*
0 Rectangle with rounded corners*
0 $1 Rounding radius*
0 $2 $3 $4 $5 $6 $7 $8 $9 X,Y pos of 4 corners*
0 Add a 4 corners polygon primitive as box body*
4,1,4,$2,$3,$4,$5,$6,$7,$8,$9,$2,$3,0*
0 Add four circle primitives for the rounded corners*
1,1,$1+$1,$2,$3*
1,1,$1+$1,$4,$5*
1,1,$1+$1,$6,$7*
1,1,$1+$1,$8,$9*
0 Add four rect primitives between the rounded corners*
20,1,$1+$1,$2,$3,$4,$5,0*
20,1,$1+$1,$4,$5,$6,$7,0*
20,1,$1+$1,$6,$7,$8,$9,0*
20,1,$1+$1,$8,$9,$2,$3,0*%
G04 Aperture macros list end*
%ADD10C,0.300000*%
G04 #@! TA.AperFunction,ComponentPad*
%ADD11C,1.800000*%
G04 #@! TD*
G04 #@! TA.AperFunction,ComponentPad*
%ADD12O,1.800000X1.800000*%
G04 #@! TD*
G04 #@! TA.AperFunction,SMDPad,CuDef*
%ADD13RoundRect,0.381000X-0.889000X-0.889000X0.889000X-0.889000X0.889000X0.889000X-0.889000X0.889000X0*%
G04 #@! TD*
G04 #@! TA.AperFunction,ViaPad*
%ADD14C,0.600000*%
G04 #@! TD*
G04 #@! TA.AperFunction,Conductor*
%ADD15C,0.200000*%
G04 #@! TD*
G04 #@! TA.AperFunction,Conductor*
%ADD16C,0.500000*%
G04 #@! TD*
G04 APERTURE END LIST*
D10*
G36*
X179986725Y-126051419D02*
G01*
X180088177Y-126069338D01*
X180175403Y-126097499D01*
X180250401Y-126135103D01*
X180342686Y-126202086D01*
X180424999Y-126285207D01*
X180497880Y-126386154D01*
X180539877Y-126467950D01*
X180570883Y-126560463D01*
X180590346Y-126665358D01*
X180597165Y-126784576D01*
X180589285Y-126912165D01*
X180566840Y-127023565D01*
X180531098Y-127121109D01*
X180482600Y-127206756D01*
X180421127Y-127282007D01*
X180325914Y-127366872D01*
X180236392Y-127422391D01*
X180150929Y-127453589D01*
X180067493Y-127463632D01*
X180003801Y-127455548D01*
X179958146Y-127433676D01*
X179925779Y-127398827D01*
X179905011Y-127348135D01*
X179838859Y-127404928D01*
X179787500Y-127437620D01*
X179732931Y-127456764D01*
X179664859Y-127463632D01*
X179590459Y-127455900D01*
X179525730Y-127433570D01*
X179468590Y-127396740D01*
X179417746Y-127343922D01*
X179378695Y-127282282D01*
X179349709Y-127209889D01*
X179331313Y-127124774D01*
X179328649Y-127083895D01*
X179543776Y-127083895D01*
X179548614Y-127146680D01*
X179562297Y-127199984D01*
X179584076Y-127245462D01*
X179615140Y-127283030D01*
X179650376Y-127304141D01*
X179691512Y-127311224D01*
X179732925Y-127305605D01*
X179770955Y-127288782D01*
X179806825Y-127259567D01*
X179834751Y-127221159D01*
X179865829Y-127153762D01*
X179899790Y-127045427D01*
X179932349Y-126884216D01*
X179942746Y-126735300D01*
X179938012Y-126675275D01*
X179924903Y-126626807D01*
X179904461Y-126587655D01*
X179875491Y-126556107D01*
X179841636Y-126537852D01*
X179801147Y-126531601D01*
X179746726Y-126541156D01*
X179697968Y-126570178D01*
X179652724Y-126622703D01*
X179610912Y-126706723D01*
X179573939Y-126825129D01*
X179551435Y-126950476D01*
X179543776Y-127083895D01*
X179328649Y-127083895D01*
X179324781Y-127024544D01*
X179333168Y-126897418D01*
X179357694Y-126779840D01*
X179397906Y-126670340D01*
X179454016Y-126567688D01*
X179512201Y-126490901D01*
X179572144Y-126435209D01*
X179634250Y-126397279D01*
X179699498Y-126374966D01*
X179769364Y-126367470D01*
X179840845Y-126376828D01*
X179904095Y-126404381D01*
X179958609Y-126448070D01*
X180004387Y-126507787D01*
X180019958Y-126396779D01*
X180228877Y-126396779D01*
X180098176Y-127215054D01*
X180094055Y-127250591D01*
X180102978Y-127278665D01*
X180129043Y-127287777D01*
X180167588Y-127282161D01*
X180210992Y-127263823D01*
X180261025Y-127229342D01*
X180304380Y-127186734D01*
X180346105Y-127129688D01*
X180386047Y-127055410D01*
X180415078Y-126976759D01*
X180433260Y-126887421D01*
X180439628Y-126785583D01*
X180429088Y-126657029D01*
X180398989Y-126545871D01*
X180350488Y-126449020D01*
X180283190Y-126364173D01*
X180200128Y-126294643D01*
X180105678Y-126244849D01*
X179997613Y-126214086D01*
X179872862Y-126203339D01*
X179756398Y-126211882D01*
X179651140Y-126236673D01*
X179555259Y-126277110D01*
X179467295Y-126333480D01*
X179386239Y-126406946D01*
X179318954Y-126491180D01*
X179266046Y-126585949D01*
X179227213Y-126692743D01*
X179202935Y-126813503D01*
X179194447Y-126950539D01*
X179202756Y-127082640D01*
X179226486Y-127198570D01*
X179264393Y-127300664D01*
X179316010Y-127390874D01*
X179381659Y-127470684D01*
X179460405Y-127539717D01*
X179546247Y-127592922D01*
X179640206Y-127631237D01*
X179743722Y-127654799D01*
X179858574Y-127662934D01*
X179952927Y-127657470D01*
X180043189Y-127641289D01*
X180130050Y-127614482D01*
X180213262Y-127577450D01*
X180294746Y-127529382D01*
X180374873Y-127469494D01*
X180597256Y-127469494D01*
X180524058Y-127552802D01*
X180444085Y-127624106D01*
X180356927Y-127684174D01*
X180261941Y-127733459D01*
X180127873Y-127782624D01*
X179994160Y-127811602D01*
X179859582Y-127821203D01*
X179721028Y-127811302D01*
X179594885Y-127782497D01*
X179479155Y-127735427D01*
X179372224Y-127669768D01*
X179272941Y-127584257D01*
X179189315Y-127485323D01*
X179124130Y-127375242D01*
X179076661Y-127252448D01*
X179047173Y-127114822D01*
X179036911Y-126959789D01*
X179046275Y-126806317D01*
X179073461Y-126666338D01*
X179117617Y-126538004D01*
X179178587Y-126419741D01*
X179256912Y-126310317D01*
X179334252Y-126229974D01*
X179419919Y-126164748D01*
X179514755Y-126113643D01*
X179620030Y-126076323D01*
X179737379Y-126053130D01*
X179868741Y-126045069D01*
X179986725Y-126051419D01*
G37*
G36*
X181725841Y-126807107D02*
G01*
X181288586Y-126807107D01*
X181288586Y-126516855D01*
X181284047Y-126403758D01*
X181275213Y-126362249D01*
X181255274Y-126340493D01*
X181216687Y-126332299D01*
X181184956Y-126336935D01*
X181164273Y-126349221D01*
X181151474Y-126369027D01*
X181142174Y-126416608D01*
X181137643Y-126531143D01*
X181137643Y-127301241D01*
X181142159Y-127411148D01*
X181151474Y-127457312D01*
X181172948Y-127483426D01*
X181213664Y-127492941D01*
X181252636Y-127483484D01*
X181274206Y-127456946D01*
X181283783Y-127408496D01*
X181288586Y-127283838D01*
X181288586Y-127070889D01*
X181725841Y-127070889D01*
X181725841Y-127138758D01*
X181720555Y-127314128D01*
X181707237Y-127432115D01*
X181689205Y-127507229D01*
X181656778Y-127574141D01*
X181604179Y-127637524D01*
X181527363Y-127698196D01*
X181440369Y-127742601D01*
X181338599Y-127770370D01*
X181218793Y-127780170D01*
X181093376Y-127771649D01*
X180989965Y-127747943D01*
X180904727Y-127711019D01*
X180830125Y-127657770D01*
X180776309Y-127594453D01*
X180740688Y-127519685D01*
X180720382Y-127436452D01*
X180706009Y-127317458D01*
X180700479Y-127152955D01*
X180700479Y-126668163D01*
X180704081Y-126499830D01*
X180712752Y-126398428D01*
X180726079Y-126340212D01*
X180750337Y-126282528D01*
X180786575Y-126224679D01*
X180831780Y-126173798D01*
X180887987Y-126129970D01*
X180956751Y-126093063D01*
X181030681Y-126066978D01*
X181113460Y-126050729D01*
X181206520Y-126045069D01*
X181332367Y-126054149D01*
X181436473Y-126079486D01*
X181522692Y-126119166D01*
X181598960Y-126174921D01*
X181652426Y-126236171D01*
X181686640Y-126303722D01*
X181706303Y-126379275D01*
X181720377Y-126490180D01*
X181725841Y-126646823D01*
X181725841Y-126807107D01*
G37*
G36*
X182500127Y-126089538D02*
G01*
X182618213Y-126112114D01*
X182683841Y-126140368D01*
X182740371Y-126182811D01*
X182789030Y-126240983D01*
X182822087Y-126309348D01*
X182845203Y-126409780D01*
X182854152Y-126552942D01*
X182847641Y-126649862D01*
X182831130Y-126714753D01*
X182807898Y-126756457D01*
X182772790Y-126788832D01*
X182718583Y-126817802D01*
X182639004Y-126842278D01*
X182727090Y-126870942D01*
X182789107Y-126908259D01*
X182830979Y-126953286D01*
X182858726Y-127009252D01*
X182877702Y-127087985D01*
X182884926Y-127196461D01*
X182884926Y-127350883D01*
X182879590Y-127464519D01*
X182865749Y-127545969D01*
X182846092Y-127602575D01*
X182814825Y-127651887D01*
X182774069Y-127688866D01*
X182722444Y-127714866D01*
X182662611Y-127729140D01*
X182554505Y-127740352D01*
X182376779Y-127745000D01*
X181874860Y-127745000D01*
X181874860Y-127457678D01*
X182312116Y-127457678D01*
X182390093Y-127447340D01*
X182423399Y-127429651D01*
X182439758Y-127394335D01*
X182447670Y-127304355D01*
X182447670Y-127148101D01*
X182440315Y-127052765D01*
X182425963Y-127019690D01*
X182394602Y-127004441D01*
X182312116Y-126994777D01*
X182312116Y-127457678D01*
X181874860Y-127457678D01*
X181874860Y-126730812D01*
X182312116Y-126730812D01*
X182352233Y-126729896D01*
X182405952Y-126721070D01*
X182430818Y-126699762D01*
X182441806Y-126655328D01*
X182447670Y-126522534D01*
X182443387Y-126451205D01*
X182433749Y-126414822D01*
X182416880Y-126389106D01*
X182397479Y-126376446D01*
X182370123Y-126370798D01*
X182312116Y-126367470D01*
X182312116Y-126730812D01*
X181874860Y-126730812D01*
X181874860Y-126080240D01*
X182308177Y-126080240D01*
X182500127Y-126089538D01*
G37*
G36*
X183953886Y-126590219D02*
G01*
X183547404Y-126590219D01*
X183547404Y-126463457D01*
X183542531Y-126385670D01*
X183532658Y-126355013D01*
X183513890Y-126338351D01*
X183483749Y-126332299D01*
X183450742Y-126339958D01*
X183427054Y-126362616D01*
X183413310Y-126397657D01*
X183407728Y-126455947D01*
X183414122Y-126531590D01*
X183429893Y-126578129D01*
X183463584Y-126617595D01*
X183550793Y-126678879D01*
X183742106Y-126803962D01*
X183855400Y-126896120D01*
X183914410Y-126962995D01*
X183944079Y-127018423D01*
X183967767Y-127092807D01*
X183983805Y-127190897D01*
X183989789Y-127318185D01*
X183984018Y-127437446D01*
X183969088Y-127522340D01*
X183947932Y-127580868D01*
X183913816Y-127631590D01*
X183861434Y-127678891D01*
X183786366Y-127722926D01*
X183704762Y-127754015D01*
X183612676Y-127773402D01*
X183508295Y-127780170D01*
X183393932Y-127772280D01*
X183295758Y-127749924D01*
X183211174Y-127714408D01*
X183135411Y-127663994D01*
X183082930Y-127608305D01*
X183049699Y-127546705D01*
X183030109Y-127477402D01*
X183016606Y-127383288D01*
X183011505Y-127258285D01*
X183011505Y-127147093D01*
X183417986Y-127147093D01*
X183417986Y-127350425D01*
X183423293Y-127433660D01*
X183434198Y-127467570D01*
X183455531Y-127486034D01*
X183491900Y-127492941D01*
X183528338Y-127484604D01*
X183553633Y-127460243D01*
X183568199Y-127422740D01*
X183574057Y-127361782D01*
X183568133Y-127264124D01*
X183553804Y-127205199D01*
X183534856Y-127172372D01*
X183477676Y-127122702D01*
X183333448Y-127022071D01*
X183187112Y-126920606D01*
X183119857Y-126866641D01*
X183073206Y-126811081D01*
X183032663Y-126732552D01*
X183007609Y-126640329D01*
X182998133Y-126514199D01*
X183004915Y-126386123D01*
X183022418Y-126295754D01*
X183047226Y-126234022D01*
X183085515Y-126180310D01*
X183137554Y-126134102D01*
X183205678Y-126095078D01*
X183280217Y-126068209D01*
X183367374Y-126051129D01*
X183469369Y-126045069D01*
X183580855Y-126051734D01*
X183675958Y-126070507D01*
X183757148Y-126100024D01*
X183831708Y-126142666D01*
X183882741Y-126188771D01*
X183915051Y-126238510D01*
X183934250Y-126296487D01*
X183948310Y-126387010D01*
X183953886Y-126521434D01*
X183953886Y-126590219D01*
G37*
G36*
X184549960Y-126197477D02*
G01*
X184549960Y-126414364D01*
X184661701Y-126414364D01*
X184661701Y-126637114D01*
X184549960Y-126637114D01*
X184549960Y-127360500D01*
X184554923Y-127479500D01*
X184562966Y-127507870D01*
X184587124Y-127516955D01*
X184679104Y-127522250D01*
X184679104Y-127745000D01*
X184509111Y-127745000D01*
X184377514Y-127741416D01*
X184306420Y-127733184D01*
X184249117Y-127713659D01*
X184198617Y-127678413D01*
X184160288Y-127631584D01*
X184140457Y-127580136D01*
X184132870Y-127506834D01*
X184129099Y-127322398D01*
X184129099Y-126637114D01*
X184039981Y-126637114D01*
X184039981Y-126414364D01*
X184129099Y-126414364D01*
X184129099Y-126197477D01*
X184549960Y-126197477D01*
G37*
G36*
X185290941Y-126360807D02*
G01*
X185370465Y-126375081D01*
X185438760Y-126397512D01*
X185503039Y-126429495D01*
X185554152Y-126465783D01*
X185594007Y-126506230D01*
X185640828Y-126575587D01*
X185668837Y-126644350D01*
X185683040Y-126724623D01*
X185688987Y-126860047D01*
X185688987Y-127192522D01*
X185683443Y-127363786D01*
X185670394Y-127461892D01*
X185641727Y-127544102D01*
X185590893Y-127622634D01*
X185546762Y-127667838D01*
X185494981Y-127704487D01*
X185434547Y-127732909D01*
X185334841Y-127759123D01*
X185215736Y-127768447D01*
X185083627Y-127760227D01*
X184982087Y-127738130D01*
X184920788Y-127713352D01*
X184871676Y-127682659D01*
X184832885Y-127646264D01*
X184787693Y-127579347D01*
X184756864Y-127497887D01*
X184740889Y-127400099D01*
X184734241Y-127237585D01*
X184734241Y-126889722D01*
X184739687Y-126762633D01*
X184740432Y-126757648D01*
X185154095Y-126757648D01*
X185154095Y-127370667D01*
X185157930Y-127457932D01*
X185165819Y-127494315D01*
X185182805Y-127515038D01*
X185211614Y-127522250D01*
X185241418Y-127515464D01*
X185257868Y-127496788D01*
X185265447Y-127463656D01*
X185269133Y-127383948D01*
X185269133Y-126757648D01*
X185265489Y-126663304D01*
X185258326Y-126627863D01*
X185242260Y-126608841D01*
X185212622Y-126601943D01*
X185182759Y-126608825D01*
X185165819Y-126627955D01*
X185158044Y-126663412D01*
X185154095Y-126757648D01*
X184740432Y-126757648D01*
X184754202Y-126665558D01*
X184775457Y-126592784D01*
X184809876Y-126526708D01*
X184858815Y-126469662D01*
X184924110Y-126420684D01*
X184998403Y-126385950D01*
X185088642Y-126363727D01*
X185198333Y-126355746D01*
X185290941Y-126360807D01*
G37*
G36*
X186246502Y-126379193D02*
G01*
X186239724Y-126495148D01*
X186285709Y-126437302D01*
X186344870Y-126393115D01*
X186414458Y-126365384D01*
X186496454Y-126355746D01*
X186566525Y-126361896D01*
X186624378Y-126379153D01*
X186672400Y-126406579D01*
X186713148Y-126443959D01*
X186742108Y-126486220D01*
X186760419Y-126534257D01*
X186774136Y-126623875D01*
X186780111Y-126789796D01*
X186780111Y-127745000D01*
X186360349Y-127745000D01*
X186360349Y-126800787D01*
X186357256Y-126674163D01*
X186351465Y-126631435D01*
X186335829Y-126609891D01*
X186302830Y-126601943D01*
X186267961Y-126610888D01*
X186249890Y-126636106D01*
X186242809Y-126684527D01*
X186239083Y-126823319D01*
X186239083Y-127745000D01*
X185819321Y-127745000D01*
X185819321Y-126379193D01*
X186246502Y-126379193D01*
G37*
G36*
X187480718Y-126363899D02*
G01*
X187575865Y-126386624D01*
X187654531Y-126422150D01*
X187724222Y-126472373D01*
X187776825Y-126530766D01*
X187814357Y-126598188D01*
X187838047Y-126672890D01*
X187854245Y-126773283D01*
X187860336Y-126905659D01*
X187860336Y-127088475D01*
X187324437Y-127088475D01*
X187324437Y-127379643D01*
X187328630Y-127462943D01*
X187337168Y-127496696D01*
X187355013Y-127515437D01*
X187386078Y-127522250D01*
X187424587Y-127513251D01*
X187446619Y-127488087D01*
X187457122Y-127445466D01*
X187462007Y-127352898D01*
X187462007Y-127170540D01*
X187860336Y-127170540D01*
X187860336Y-127273855D01*
X187855697Y-127392971D01*
X187844308Y-127468303D01*
X187819224Y-127535562D01*
X187769478Y-127613750D01*
X187726754Y-127661021D01*
X187677302Y-127699534D01*
X187620368Y-127729795D01*
X187558990Y-127750312D01*
X187484434Y-127763637D01*
X187394229Y-127768447D01*
X187267270Y-127758436D01*
X187161496Y-127730345D01*
X187096906Y-127700561D01*
X187045069Y-127665640D01*
X187004143Y-127625748D01*
X186956288Y-127555392D01*
X186926199Y-127479385D01*
X186910871Y-127390605D01*
X186904583Y-127247843D01*
X186904583Y-126851803D01*
X186909210Y-126764426D01*
X187324437Y-126764426D01*
X187324437Y-126859863D01*
X187439475Y-126859863D01*
X187439475Y-126764426D01*
X187435908Y-126669650D01*
X187428668Y-126631252D01*
X187412517Y-126609373D01*
X187385070Y-126601943D01*
X187350280Y-126608926D01*
X187334237Y-126626673D01*
X187327826Y-126661987D01*
X187324437Y-126764426D01*
X186909210Y-126764426D01*
X186910881Y-126732877D01*
X186927843Y-126640487D01*
X186953127Y-126569611D01*
X186991972Y-126506384D01*
X187044334Y-126453778D01*
X187112037Y-126410884D01*
X187187428Y-126380810D01*
X187271420Y-126362204D01*
X187365561Y-126355746D01*
X187480718Y-126363899D01*
G37*
G36*
X188840819Y-126818831D02*
G01*
X188468135Y-126818831D01*
X188468135Y-126742627D01*
X188464693Y-126658053D01*
X188457876Y-126625757D01*
X188441573Y-126608713D01*
X188406494Y-126601943D01*
X188376699Y-126607741D01*
X188356485Y-126624016D01*
X188344539Y-126649671D01*
X188339815Y-126691061D01*
X188342363Y-126748887D01*
X188348333Y-126781645D01*
X188363410Y-126809026D01*
X188399899Y-126844568D01*
X188455364Y-126880871D01*
X188577952Y-126945318D01*
X188696779Y-127010510D01*
X188772124Y-127065505D01*
X188815723Y-127111922D01*
X188845479Y-127167373D01*
X188865238Y-127241566D01*
X188872601Y-127339801D01*
X188866747Y-127451024D01*
X188851366Y-127532811D01*
X188829095Y-127591584D01*
X188794593Y-127642952D01*
X188746979Y-127686495D01*
X188684015Y-127722651D01*
X188614762Y-127747257D01*
X188533861Y-127762899D01*
X188439283Y-127768447D01*
X188334478Y-127762431D01*
X188244752Y-127745470D01*
X188167899Y-127718804D01*
X188097515Y-127679680D01*
X188046909Y-127634803D01*
X188012561Y-127583982D01*
X187990980Y-127525276D01*
X187975924Y-127442062D01*
X187970154Y-127327253D01*
X187970154Y-127258468D01*
X188342838Y-127258468D01*
X188342838Y-127348319D01*
X188347190Y-127448762D01*
X188356119Y-127490376D01*
X188375464Y-127513998D01*
X188408600Y-127522250D01*
X188446618Y-127516317D01*
X188467860Y-127501276D01*
X188479235Y-127473641D01*
X188484529Y-127410601D01*
X188477398Y-127324187D01*
X188462822Y-127290799D01*
X188416172Y-127257875D01*
X188222670Y-127146086D01*
X188103449Y-127070178D01*
X188034030Y-127008935D01*
X187999188Y-126959240D01*
X187977408Y-126901787D01*
X187963709Y-126835792D01*
X187958888Y-126759754D01*
X187964842Y-126650543D01*
X187980300Y-126572505D01*
X188002394Y-126518320D01*
X188036640Y-126471790D01*
X188084767Y-126431745D01*
X188149581Y-126398061D01*
X188219919Y-126375165D01*
X188299611Y-126360785D01*
X188390099Y-126355746D01*
X188520202Y-126365025D01*
X188621275Y-126390184D01*
X188708236Y-126431852D01*
X188767821Y-126481318D01*
X188810665Y-126538867D01*
X188829919Y-126586464D01*
X188837576Y-126641656D01*
X188840819Y-126737315D01*
X188840819Y-126818831D01*
G37*
G36*
X189409508Y-126080240D02*
G01*
X189409508Y-126302990D01*
X188977381Y-126302990D01*
X188977381Y-126080240D01*
X189409508Y-126080240D01*
G37*
G36*
X189409508Y-126379193D02*
G01*
X189409508Y-127745000D01*
X188977381Y-127745000D01*
X188977381Y-126379193D01*
X189409508Y-126379193D01*
G37*
G36*
X190085358Y-126080240D02*
G01*
X190085358Y-126297128D01*
X189967891Y-126301224D01*
X189933042Y-126308485D01*
X189917920Y-126326935D01*
X189911152Y-126373881D01*
X189911152Y-126414364D01*
X190085358Y-126414364D01*
X190085358Y-126637114D01*
X189986989Y-126637114D01*
X189986989Y-127745000D01*
X189567136Y-127745000D01*
X189567136Y-126637114D01*
X189482139Y-126637114D01*
X189482139Y-126414364D01*
X189567136Y-126414364D01*
X189570096Y-126292652D01*
X189576478Y-126235945D01*
X189592434Y-126192914D01*
X189622732Y-126153788D01*
X189665145Y-126122989D01*
X189725863Y-126098925D01*
X189801139Y-126085788D01*
X189930752Y-126080240D01*
X190085358Y-126080240D01*
G37*
G36*
X190722309Y-126363899D02*
G01*
X190817456Y-126386624D01*
X190896122Y-126422150D01*
X190965814Y-126472373D01*
X191018416Y-126530766D01*
X191055949Y-126598188D01*
X191079638Y-126672890D01*
X191095836Y-126773283D01*
X191101927Y-126905659D01*
X191101927Y-127088475D01*
X190566028Y-127088475D01*
X190566028Y-127379643D01*
X190570221Y-127462943D01*
X190578759Y-127496696D01*
X190596604Y-127515437D01*
X190627669Y-127522250D01*
X190666178Y-127513251D01*
X190688210Y-127488087D01*
X190698713Y-127445466D01*
X190703598Y-127352898D01*
X190703598Y-127170540D01*
X191101927Y-127170540D01*
X191101927Y-127273855D01*
X191097288Y-127392971D01*
X191085899Y-127468303D01*
X191060815Y-127535562D01*
X191011069Y-127613750D01*
X190968345Y-127661021D01*
X190918893Y-127699534D01*
X190861959Y-127729795D01*
X190800581Y-127750312D01*
X190726025Y-127763637D01*
X190635820Y-127768447D01*
X190508861Y-127758436D01*
X190403087Y-127730345D01*
X190338497Y-127700561D01*
X190286660Y-127665640D01*
X190245734Y-127625748D01*
X190197879Y-127555392D01*
X190167790Y-127479385D01*
X190152462Y-127390605D01*
X190146174Y-127247843D01*
X190146174Y-126851803D01*
X190150801Y-126764426D01*
X190566028Y-126764426D01*
X190566028Y-126859863D01*
X190681066Y-126859863D01*
X190681066Y-126764426D01*
X190677499Y-126669650D01*
X190670259Y-126631252D01*
X190654108Y-126609373D01*
X190626661Y-126601943D01*
X190591871Y-126608926D01*
X190575828Y-126626673D01*
X190569417Y-126661987D01*
X190566028Y-126764426D01*
X190150801Y-126764426D01*
X190152472Y-126732877D01*
X190169434Y-126640487D01*
X190194718Y-126569611D01*
X190233563Y-126506384D01*
X190285925Y-126453778D01*
X190353628Y-126410884D01*
X190429019Y-126380810D01*
X190513011Y-126362204D01*
X190607152Y-126355746D01*
X190722309Y-126363899D01*
G37*
G36*
X191651290Y-126379193D02*
G01*
X191631690Y-126564665D01*
X191673471Y-126488723D01*
X191720353Y-126432542D01*
X191772342Y-126392757D01*
X191830313Y-126367295D01*
X191895930Y-126355563D01*
X191895930Y-126842278D01*
X191788748Y-126851177D01*
X191727677Y-126872411D01*
X191684960Y-126908971D01*
X191663106Y-126956400D01*
X191655029Y-127027726D01*
X191651016Y-127206994D01*
X191651016Y-127745000D01*
X191231254Y-127745000D01*
X191231254Y-126379193D01*
X191651290Y-126379193D01*
G37*
D11*
X177120000Y-123338528D03*
X174580000Y-123338528D03*
X172040000Y-123338528D03*
X169500000Y-123338528D03*
X166960000Y-123338528D03*
X164420000Y-123338528D03*
X161880000Y-123338528D03*
X159340000Y-123338528D03*
X156800000Y-123338528D03*
X154260000Y-123338528D03*
X151720000Y-123338528D03*
X149180000Y-123338528D03*
X146640000Y-123338528D03*
X144100000Y-123338528D03*
X141560000Y-123338528D03*
X139020000Y-123338528D03*
X136480000Y-123338528D03*
X133940000Y-123338528D03*
X131400000Y-123338528D03*
X128860000Y-123338528D03*
X128860000Y-98218528D03*
X131400000Y-98218528D03*
X133940000Y-98218528D03*
X136480000Y-98218528D03*
X139020000Y-98218528D03*
X141560000Y-98218528D03*
X144100000Y-98218528D03*
X146640000Y-98218528D03*
X149180000Y-98218528D03*
X151720000Y-98218528D03*
X154260000Y-98218528D03*
X156800000Y-98218528D03*
X159340000Y-98218528D03*
X161880000Y-98218528D03*
X164420000Y-98218528D03*
X166960000Y-98218528D03*
X169500000Y-98218528D03*
X172040000Y-98218528D03*
X174580000Y-98218528D03*
X177120000Y-98218528D03*
D12*
X189698600Y-117559000D03*
X189698600Y-102200000D03*
X192238600Y-117559000D03*
X192238600Y-102200000D03*
X194778600Y-117559000D03*
X194778600Y-102200000D03*
X197318600Y-117559000D03*
X197318600Y-102200000D03*
X199858600Y-117559000D03*
X199858600Y-102200000D03*
X202398600Y-117559000D03*
X202398600Y-102200000D03*
D11*
X188000000Y-78416628D03*
X185460000Y-78416628D03*
X182920000Y-78416628D03*
X134772700Y-94076628D03*
X134772700Y-75956628D03*
X174892700Y-94076628D03*
X174892700Y-75956628D03*
X127000000Y-76366628D03*
X124460000Y-76366628D03*
X121920000Y-76366628D03*
X116411400Y-123937208D03*
X118951400Y-123937208D03*
X121491400Y-123937208D03*
X196420000Y-123500000D03*
X198960000Y-123500000D03*
X201500000Y-123500000D03*
X116000000Y-76366628D03*
X113460000Y-76366628D03*
X110920000Y-76366628D03*
D12*
X122260000Y-103087208D03*
X122260000Y-118446208D03*
X119720000Y-103087208D03*
X119720000Y-118446208D03*
X117180000Y-103087208D03*
X117180000Y-118446208D03*
X114640000Y-103087208D03*
X114640000Y-118446208D03*
X112100000Y-103087208D03*
X112100000Y-118446208D03*
X109560000Y-103087208D03*
X109560000Y-118446208D03*
D13*
X109361400Y-125887208D03*
X109361400Y-122387208D03*
X194520000Y-75016628D03*
X134920000Y-72416628D03*
X127000000Y-91500000D03*
X127000000Y-88016628D03*
X198020000Y-75016628D03*
D12*
X109610002Y-96975628D03*
X109610002Y-81616628D03*
X112150002Y-96975628D03*
X112150002Y-81616628D03*
X114690002Y-96975628D03*
X114690002Y-81616628D03*
X117230002Y-96975628D03*
X117230002Y-81616628D03*
X119770002Y-96975628D03*
X119770002Y-81616628D03*
X122310002Y-96975628D03*
X122310002Y-81616628D03*
D13*
X138120000Y-72416628D03*
D11*
X182260000Y-90916628D03*
X182260000Y-88376628D03*
X182260000Y-85836628D03*
X184800000Y-90916628D03*
X184800000Y-88376628D03*
X184800000Y-85836628D03*
X187340000Y-90916628D03*
X187340000Y-88376628D03*
X187340000Y-85836628D03*
X189880000Y-90916628D03*
X189880000Y-88376628D03*
X189880000Y-85836628D03*
X192420000Y-90916628D03*
X192420000Y-88376628D03*
X192420000Y-85836628D03*
X194960000Y-90916628D03*
X194960000Y-88376628D03*
X194960000Y-85836628D03*
X197500000Y-90916628D03*
X197500000Y-88376628D03*
X197500000Y-85836628D03*
D14*
X113500000Y-79000000D03*
X117411402Y-85916628D03*
X112411402Y-93916628D03*
X116911402Y-93916628D03*
X119911402Y-83916628D03*
X110411402Y-83916628D03*
X125836628Y-99000000D03*
X119411402Y-94916628D03*
X114911402Y-94916628D03*
X112411402Y-84916628D03*
X121911402Y-84916628D03*
X114911402Y-85916628D03*
X134920000Y-74416628D03*
X109361400Y-125887208D03*
X109361400Y-122387208D03*
X189420000Y-98416628D03*
X187420000Y-98416628D03*
X184920000Y-97016628D03*
X175920000Y-91916628D03*
X139920000Y-83916628D03*
X137420000Y-84916628D03*
X154420000Y-106416628D03*
X156920000Y-104916628D03*
X119050000Y-79416628D03*
X151000000Y-105916628D03*
X148816628Y-105316628D03*
X119361400Y-116387208D03*
X114861400Y-116487208D03*
X116861400Y-115887208D03*
X112361400Y-115887208D03*
X122361400Y-105387208D03*
X112361400Y-105387208D03*
X109861400Y-106387208D03*
X119861400Y-106387208D03*
X132420000Y-96416628D03*
X197920000Y-96416628D03*
X131920000Y-95416628D03*
X197920000Y-95416628D03*
X126920000Y-99916628D03*
X128920000Y-81916628D03*
X200000000Y-105000000D03*
X190000000Y-105500000D03*
X202500000Y-107000000D03*
X193500000Y-107000000D03*
X192500000Y-114500000D03*
X197000000Y-114500000D03*
X195000000Y-113500000D03*
X199000000Y-113500000D03*
X174920000Y-81416628D03*
D15*
X121911402Y-84916628D02*
X137420000Y-84916628D01*
X119911402Y-83916628D02*
X139920000Y-83916628D01*
D16*
X113583372Y-78916628D02*
X113500000Y-79000000D01*
X114530002Y-78916628D02*
X113583372Y-78916628D01*
D15*
X114911402Y-85916628D02*
X119011402Y-90016628D01*
X119011402Y-90016628D02*
X125516628Y-90016628D01*
X125516628Y-90016628D02*
X127000000Y-91500000D01*
X120011402Y-88016628D02*
X127000000Y-88016628D01*
D16*
X125836628Y-99000000D02*
X132110000Y-92726628D01*
D15*
X112411402Y-93916628D02*
X116911402Y-93916628D01*
X118411402Y-86916628D02*
X117411402Y-85916628D01*
X118911402Y-86916628D02*
X120011402Y-88016628D01*
X118411402Y-86916628D02*
X118911402Y-86916628D01*
D16*
X114530002Y-78916628D02*
X117230002Y-81616628D01*
D15*
X114911402Y-94916628D02*
X119411402Y-94916628D01*
X121911402Y-84916628D02*
X112411402Y-84916628D01*
X110411402Y-83916628D02*
X119911402Y-83916628D01*
X122431980Y-105316628D02*
X122361400Y-105387208D01*
X148816628Y-105316628D02*
X122431980Y-105316628D01*
X151000000Y-105916628D02*
X150529420Y-106387208D01*
X150529420Y-106387208D02*
X119861400Y-106387208D01*
D16*
X126920000Y-99916628D02*
X117810580Y-99916628D01*
X117810580Y-99916628D02*
X114640000Y-103087208D01*
D15*
X154420000Y-106416628D02*
X192916628Y-106416628D01*
X192916628Y-106416628D02*
X193500000Y-107000000D01*
X156920000Y-104916628D02*
X189416628Y-104916628D01*
X189416628Y-104916628D02*
X190000000Y-105500000D01*
X134920000Y-72416628D02*
X134920000Y-74416628D01*
X138120000Y-72416628D02*
X138120000Y-72609328D01*
X138120000Y-72609328D02*
X134772700Y-75956628D01*
X198020000Y-75016628D02*
X194620000Y-78416628D01*
X194620000Y-78416628D02*
X188000000Y-78416628D01*
X194520000Y-75016628D02*
X186320000Y-75016628D01*
X186320000Y-75016628D02*
X182920000Y-78416628D01*
X189420000Y-98416628D02*
X187420000Y-100416628D01*
X166618100Y-100416628D02*
X164420000Y-98218528D01*
X187420000Y-100416628D02*
X166618100Y-100416628D01*
X167420000Y-99416628D02*
X167420000Y-98678528D01*
X167420000Y-98678528D02*
X166960000Y-98218528D01*
X187420000Y-98416628D02*
X186237205Y-99599423D01*
X186237205Y-99599423D02*
X167602795Y-99599423D01*
X167602795Y-99599423D02*
X167420000Y-99416628D01*
X184720000Y-96816628D02*
X161920000Y-96816628D01*
X161920000Y-96816628D02*
X161880000Y-96856628D01*
X184920000Y-97016628D02*
X184720000Y-96816628D01*
X161880000Y-96856628D02*
X161880000Y-98218528D01*
X188380000Y-92416628D02*
X176420000Y-92416628D01*
X176420000Y-92416628D02*
X175920000Y-91916628D01*
X189880000Y-90916628D02*
X188380000Y-92416628D01*
X126050000Y-79416628D02*
X127000000Y-78466628D01*
X119050000Y-79416628D02*
X126050000Y-79416628D01*
X127000000Y-78466628D02*
X127000000Y-76366628D01*
X148920000Y-98478528D02*
X149180000Y-98218528D01*
X119261400Y-116487208D02*
X119361400Y-116387208D01*
X114861400Y-116487208D02*
X119261400Y-116487208D01*
X112361400Y-115887208D02*
X116861400Y-115887208D01*
X112361400Y-105387208D02*
X122361400Y-105387208D01*
X109861400Y-106387208D02*
X119861400Y-106387208D01*
X197920000Y-96416628D02*
X132420000Y-96416628D01*
X197920000Y-95416628D02*
X131920000Y-95416628D01*
X128420000Y-122898528D02*
X128860000Y-123338528D01*
X129420000Y-97658528D02*
X128860000Y-98218528D01*
D16*
X173542700Y-92726628D02*
X132110000Y-92726628D01*
X174892700Y-94076628D02*
X173542700Y-92726628D01*
X174892700Y-75956628D02*
X168932700Y-81916628D01*
X168932700Y-81916628D02*
X128920000Y-81916628D01*
X174892700Y-81443928D02*
X174892700Y-94076628D01*
D15*
X197000000Y-114500000D02*
X192500000Y-114500000D01*
X195000000Y-113500000D02*
X199000000Y-113500000D01*
X193500000Y-107000000D02*
X202500000Y-107000000D01*
X190000000Y-105500000D02*
X199500000Y-105500000D01*
X199500000Y-105500000D02*
X200000000Y-105000000D01*
X174920000Y-81416628D02*
X174892700Y-81443928D01*
M02*
