G04 #@! TF.GenerationSoftware,KiCad,Pcbnew,10.0.3*
G04 #@! TF.CreationDate,2026-05-31T23:35:21-04:00*
G04 #@! TF.ProjectId,BattleBot,42617474-6c65-4426-9f74-2e6b69636164,rev?*
G04 #@! TF.SameCoordinates,Original*
G04 #@! TF.FileFunction,Copper,L4,Bot*
G04 #@! TF.FilePolarity,Positive*
%FSLAX46Y46*%
G04 Gerber Fmt 4.6, Leading zero omitted, Abs format (unit mm)*
G04 Created by KiCad (PCBNEW 10.0.3) date 2026-05-31 23:35:21*
%MOMM*%
%LPD*%
G01*
G04 APERTURE LIST*
G04 #@! TA.AperFunction,ComponentPad*
%ADD10C,1.800000*%
G04 #@! TD*
G04 #@! TA.AperFunction,ComponentPad*
%ADD11O,1.800000X1.800000*%
G04 #@! TD*
G04 #@! TA.AperFunction,ViaPad*
%ADD12C,0.600000*%
G04 #@! TD*
G04 #@! TA.AperFunction,Conductor*
%ADD13C,0.500000*%
G04 #@! TD*
G04 #@! TA.AperFunction,Conductor*
%ADD14C,0.200000*%
G04 #@! TD*
G04 APERTURE END LIST*
D10*
X177120000Y-123338528D03*
X174580000Y-123338528D03*
X172040000Y-123338528D03*
X169500000Y-123338528D03*
X166960000Y-123338528D03*
X164420000Y-123338528D03*
X161880000Y-123338528D03*
X159340000Y-123338528D03*
X156800000Y-123338528D03*
X154260000Y-123338528D03*
X151720000Y-123338528D03*
X149180000Y-123338528D03*
X146640000Y-123338528D03*
X144100000Y-123338528D03*
X141560000Y-123338528D03*
X139020000Y-123338528D03*
X136480000Y-123338528D03*
X133940000Y-123338528D03*
X131400000Y-123338528D03*
X128860000Y-123338528D03*
X128860000Y-98218528D03*
X131400000Y-98218528D03*
X133940000Y-98218528D03*
X136480000Y-98218528D03*
X139020000Y-98218528D03*
X141560000Y-98218528D03*
X144100000Y-98218528D03*
X146640000Y-98218528D03*
X149180000Y-98218528D03*
X151720000Y-98218528D03*
X154260000Y-98218528D03*
X156800000Y-98218528D03*
X159340000Y-98218528D03*
X161880000Y-98218528D03*
X164420000Y-98218528D03*
X166960000Y-98218528D03*
X169500000Y-98218528D03*
X172040000Y-98218528D03*
X174580000Y-98218528D03*
X177120000Y-98218528D03*
D11*
X189698600Y-117559000D03*
X189698600Y-102200000D03*
X192238600Y-117559000D03*
X192238600Y-102200000D03*
X194778600Y-117559000D03*
X194778600Y-102200000D03*
X197318600Y-117559000D03*
X197318600Y-102200000D03*
X199858600Y-117559000D03*
X199858600Y-102200000D03*
X202398600Y-117559000D03*
X202398600Y-102200000D03*
D10*
X188000000Y-78416628D03*
X185460000Y-78416628D03*
X182920000Y-78416628D03*
X134772700Y-94076628D03*
X134772700Y-75956628D03*
X174892700Y-94076628D03*
X174892700Y-75956628D03*
X127000000Y-76366628D03*
X124460000Y-76366628D03*
X121920000Y-76366628D03*
X116411400Y-123937208D03*
X118951400Y-123937208D03*
X121491400Y-123937208D03*
X196420000Y-123500000D03*
X198960000Y-123500000D03*
X201500000Y-123500000D03*
X116000000Y-76366628D03*
X113460000Y-76366628D03*
X110920000Y-76366628D03*
D11*
X122260000Y-103087208D03*
X122260000Y-118446208D03*
X119720000Y-103087208D03*
X119720000Y-118446208D03*
X117180000Y-103087208D03*
X117180000Y-118446208D03*
X114640000Y-103087208D03*
X114640000Y-118446208D03*
X112100000Y-103087208D03*
X112100000Y-118446208D03*
X109560000Y-103087208D03*
X109560000Y-118446208D03*
X109610002Y-96975628D03*
X109610002Y-81616628D03*
X112150002Y-96975628D03*
X112150002Y-81616628D03*
X114690002Y-96975628D03*
X114690002Y-81616628D03*
X117230002Y-96975628D03*
X117230002Y-81616628D03*
X119770002Y-96975628D03*
X119770002Y-81616628D03*
X122310002Y-96975628D03*
X122310002Y-81616628D03*
D10*
X182260000Y-90916628D03*
X182260000Y-88376628D03*
X182260000Y-85836628D03*
X184800000Y-90916628D03*
X184800000Y-88376628D03*
X184800000Y-85836628D03*
X187340000Y-90916628D03*
X187340000Y-88376628D03*
X187340000Y-85836628D03*
X189880000Y-90916628D03*
X189880000Y-88376628D03*
X189880000Y-85836628D03*
X192420000Y-90916628D03*
X192420000Y-88376628D03*
X192420000Y-85836628D03*
X194960000Y-90916628D03*
X194960000Y-88376628D03*
X194960000Y-85836628D03*
X197500000Y-90916628D03*
X197500000Y-88376628D03*
X197500000Y-85836628D03*
D12*
X113500000Y-79000000D03*
X117411402Y-85916628D03*
X112411402Y-93916628D03*
X116911402Y-93916628D03*
X119911402Y-83916628D03*
X110411402Y-83916628D03*
X125836628Y-99000000D03*
X119411402Y-94916628D03*
X114911402Y-94916628D03*
X112411402Y-84916628D03*
X121911402Y-84916628D03*
X114911402Y-85916628D03*
X134920000Y-74416628D03*
X109361400Y-125887208D03*
X109361400Y-122387208D03*
X189420000Y-98416628D03*
X187420000Y-98416628D03*
X184920000Y-97016628D03*
X175920000Y-91916628D03*
X139920000Y-83916628D03*
X137420000Y-84916628D03*
X154420000Y-106416628D03*
X156920000Y-104916628D03*
X119050000Y-79416628D03*
X151000000Y-105916628D03*
X148816628Y-105316628D03*
X119361400Y-116387208D03*
X114861400Y-116487208D03*
X116861400Y-115887208D03*
X112361400Y-115887208D03*
X122361400Y-105387208D03*
X112361400Y-105387208D03*
X109861400Y-106387208D03*
X119861400Y-106387208D03*
X132420000Y-96416628D03*
X197920000Y-96416628D03*
X131920000Y-95416628D03*
X197920000Y-95416628D03*
X126920000Y-99916628D03*
X128920000Y-81916628D03*
X200000000Y-105000000D03*
X190000000Y-105500000D03*
X202500000Y-107000000D03*
X193500000Y-107000000D03*
X192500000Y-114500000D03*
X197000000Y-114500000D03*
X195000000Y-113500000D03*
X199000000Y-113500000D03*
X174920000Y-81416628D03*
D13*
X113500000Y-78946628D02*
X110920000Y-76366628D01*
X113500000Y-79000000D02*
X113500000Y-78946628D01*
X114690002Y-81616628D02*
X114690002Y-81195228D01*
X116000000Y-78328030D02*
X116000000Y-76366628D01*
X114690002Y-81195228D02*
X113911402Y-80416628D01*
X113911402Y-80416628D02*
X116000000Y-78328030D01*
D14*
X120970002Y-77500000D02*
X120970002Y-77316626D01*
X120970002Y-77316626D02*
X121920000Y-76366628D01*
X116911402Y-93916628D02*
X116911402Y-94916628D01*
X117230002Y-95235228D02*
X117230002Y-96975628D01*
X112150002Y-96975628D02*
X112150002Y-94178028D01*
X112150002Y-94178028D02*
X112411402Y-93916628D01*
X116911402Y-94916628D02*
X117230002Y-95235228D01*
X120970002Y-93358028D02*
X120970002Y-77500000D01*
X119411402Y-94916628D02*
X120970002Y-93358028D01*
X117230002Y-85735228D02*
X117230002Y-81616628D01*
X117411402Y-85916628D02*
X117230002Y-85735228D01*
X118500000Y-92328030D02*
X118500000Y-79828030D01*
X118500000Y-79828030D02*
X118911402Y-79416628D01*
X116911402Y-93916628D02*
X118500000Y-92328030D01*
X119411402Y-94916628D02*
X119411402Y-96617028D01*
X119411402Y-96617028D02*
X119770002Y-96975628D01*
X114690002Y-96975628D02*
X114690002Y-95138028D01*
X114690002Y-95138028D02*
X114911402Y-94916628D01*
X122310002Y-84518028D02*
X121911402Y-84916628D01*
X112150002Y-84655228D02*
X112150002Y-81616628D01*
X112411402Y-84916628D02*
X112150002Y-84655228D01*
X122310002Y-81616628D02*
X122310002Y-84518028D01*
X109610002Y-83115228D02*
X110411402Y-83916628D01*
X119911402Y-83916628D02*
X119911402Y-81758028D01*
X119911402Y-81758028D02*
X119770002Y-81616628D01*
X109610002Y-81616628D02*
X109610002Y-83115228D01*
X114911402Y-85916628D02*
X114690002Y-85695228D01*
X114690002Y-85695228D02*
X114690002Y-81616628D01*
X148816628Y-105316628D02*
X149183372Y-105316628D01*
X149183372Y-105316628D02*
X149420000Y-105080000D01*
X149420000Y-105080000D02*
X149420000Y-100416628D01*
X149420000Y-100416628D02*
X149180000Y-100176628D01*
X149180000Y-100176628D02*
X149180000Y-98218528D01*
X151000000Y-105916628D02*
X151520000Y-105916628D01*
X151720000Y-105716628D02*
X151720000Y-98218528D01*
X151520000Y-105916628D02*
X151720000Y-105716628D01*
D13*
X125836628Y-99000000D02*
X119000000Y-99000000D01*
X119000000Y-101267208D02*
X117180000Y-103087208D01*
X119000000Y-99000000D02*
X119000000Y-101267208D01*
D14*
X192238600Y-117559000D02*
X192238600Y-119318600D01*
X192238600Y-119318600D02*
X196420000Y-123500000D01*
X195580000Y-119080000D02*
X197080000Y-119080000D01*
X197080000Y-119080000D02*
X201500000Y-123500000D01*
D13*
X205000000Y-109000000D02*
X196500000Y-109000000D01*
X194778600Y-107278600D02*
X194778600Y-102200000D01*
X196500000Y-109000000D02*
X194778600Y-107278600D01*
X200920000Y-78416628D02*
X205000000Y-82496628D01*
X182920000Y-78416628D02*
X186420000Y-81916628D01*
X186420000Y-81916628D02*
X199920000Y-81916628D01*
X199920000Y-81916628D02*
X199920000Y-99598600D01*
X199920000Y-99598600D02*
X197318600Y-102200000D01*
D14*
X134772700Y-89003266D02*
X134772700Y-75956628D01*
X134772700Y-89003266D02*
X127660000Y-96115966D01*
X127660000Y-96115966D02*
X127660000Y-122138528D01*
X127660000Y-122138528D02*
X128860000Y-123338528D01*
X134920000Y-74416628D02*
X134929757Y-74416628D01*
X134929757Y-74416628D02*
X135972700Y-75459571D01*
X135972700Y-75459571D02*
X135972700Y-92876628D01*
X135972700Y-92876628D02*
X134772700Y-94076628D01*
X134772700Y-75956628D02*
X134880000Y-75956628D01*
X109361400Y-125887208D02*
X110760000Y-124488608D01*
X110760000Y-124488608D02*
X110760000Y-109507208D01*
X110760000Y-109507208D02*
X117180000Y-103087208D01*
X109361400Y-122387208D02*
X108360000Y-121385808D01*
X108360000Y-110640000D02*
X114640000Y-104360000D01*
X108360000Y-121385808D02*
X108360000Y-110640000D01*
X114640000Y-104360000D02*
X114640000Y-103087208D01*
X197500000Y-90916628D02*
X196920000Y-90916628D01*
X196920000Y-90916628D02*
X189420000Y-98416628D01*
X194920000Y-90916628D02*
X187420000Y-98416628D01*
X194960000Y-90916628D02*
X194920000Y-90916628D01*
X186320000Y-97016628D02*
X184920000Y-97016628D01*
X192420000Y-90916628D02*
X186320000Y-97016628D01*
X161920000Y-98258528D02*
X161880000Y-98218528D01*
X175920000Y-91916628D02*
X163944843Y-91916628D01*
X163944843Y-91916628D02*
X158000000Y-97861471D01*
X158000000Y-97861471D02*
X158000000Y-122138528D01*
X158000000Y-122138528D02*
X156800000Y-123338528D01*
X139920000Y-83916628D02*
X139920000Y-94416628D01*
X140220000Y-121998528D02*
X141560000Y-123338528D01*
X139920000Y-94416628D02*
X140220000Y-94716628D01*
X140220000Y-94716628D02*
X140220000Y-121998528D01*
X137420000Y-84916628D02*
X137820000Y-85316628D01*
X137820000Y-85316628D02*
X137820000Y-122138528D01*
X137820000Y-122138528D02*
X139020000Y-123338528D01*
X154260000Y-106256628D02*
X154260000Y-98218528D01*
X154420000Y-106416628D02*
X154260000Y-106256628D01*
X156920000Y-104916628D02*
X156800000Y-104796628D01*
X156800000Y-104796628D02*
X156800000Y-98218528D01*
X129420000Y-96916628D02*
X129420000Y-97658528D01*
X129420000Y-97658528D02*
X128860000Y-98218528D01*
X119720000Y-118446208D02*
X119720000Y-122165808D01*
X119720000Y-122165808D02*
X121491400Y-123937208D01*
X117180000Y-118446208D02*
X117180000Y-118568608D01*
X117180000Y-118568608D02*
X116411400Y-119337208D01*
X116411400Y-119337208D02*
X116411400Y-123937208D01*
X114640000Y-118446208D02*
X114640000Y-116708608D01*
X114640000Y-116708608D02*
X114861400Y-116487208D01*
X119361400Y-116387208D02*
X119720000Y-116745808D01*
X119720000Y-116745808D02*
X119720000Y-118446208D01*
X117180000Y-116205808D02*
X117180000Y-118446208D01*
X112100000Y-116148608D02*
X112361400Y-115887208D01*
X112100000Y-118446208D02*
X112100000Y-116148608D01*
X116861400Y-115887208D02*
X117180000Y-116205808D01*
X112100000Y-103087208D02*
X112100000Y-105125808D01*
X112100000Y-105125808D02*
X112361400Y-105387208D01*
X122361400Y-103188608D02*
X122260000Y-103087208D01*
X122361400Y-105387208D02*
X122361400Y-103188608D01*
X119861400Y-106387208D02*
X119720000Y-106245808D01*
X119720000Y-106245808D02*
X119720000Y-103087208D01*
X109560000Y-103087208D02*
X109560000Y-106085808D01*
X109560000Y-106085808D02*
X109861400Y-106387208D01*
X132420000Y-96416628D02*
X132740000Y-96736628D01*
X132740000Y-96736628D02*
X132740000Y-122138528D01*
X132740000Y-122138528D02*
X133940000Y-123338528D01*
X199100000Y-95236628D02*
X197920000Y-96416628D01*
X199100000Y-87436628D02*
X199100000Y-95236628D01*
X197500000Y-85836628D02*
X199100000Y-87436628D01*
X197500000Y-88376628D02*
X198700000Y-89576628D01*
X198700000Y-89576628D02*
X198700000Y-94636628D01*
X198700000Y-94636628D02*
X197920000Y-95416628D01*
X197500000Y-88376628D02*
X197460000Y-88376628D01*
X131920000Y-95416628D02*
X131400000Y-95936628D01*
X131400000Y-95936628D02*
X131400000Y-98218528D01*
X134772700Y-94076628D02*
X132260000Y-94076628D01*
X132260000Y-94076628D02*
X129420000Y-96916628D01*
D13*
X128920000Y-81916628D02*
X126920000Y-83916628D01*
X126920000Y-83916628D02*
X126920000Y-99916628D01*
X177920000Y-78416628D02*
X174920000Y-81416628D01*
X182920000Y-78416628D02*
X177920000Y-78416628D01*
D14*
X197318600Y-117559000D02*
X197318600Y-114818600D01*
X197318600Y-114818600D02*
X197000000Y-114500000D01*
X192238600Y-114761400D02*
X192238600Y-117559000D01*
X192500000Y-114500000D02*
X192238600Y-114761400D01*
X194778600Y-113721400D02*
X195000000Y-113500000D01*
X194778600Y-117559000D02*
X194778600Y-113721400D01*
X199858600Y-114358600D02*
X199858600Y-117559000D01*
X199000000Y-113500000D02*
X199858600Y-114358600D01*
X194778600Y-118278600D02*
X195580000Y-119080000D01*
X192238600Y-102200000D02*
X192238600Y-105738600D01*
X192238600Y-105738600D02*
X193500000Y-107000000D01*
X202500000Y-106000000D02*
X202398600Y-105898600D01*
X202500000Y-107000000D02*
X202500000Y-106000000D01*
X202398600Y-105898600D02*
X202398600Y-102200000D01*
X199858600Y-104858600D02*
X199858600Y-102200000D01*
X189698600Y-102200000D02*
X189698600Y-105198600D01*
D13*
X188000000Y-78416628D02*
X200920000Y-78416628D01*
D14*
X200000000Y-105000000D02*
X199858600Y-104858600D01*
X189698600Y-105198600D02*
X190000000Y-105500000D01*
X194778600Y-117559000D02*
X194778600Y-118278600D01*
X194960000Y-85836628D02*
X197500000Y-85836628D01*
X192420000Y-85836628D02*
X194960000Y-85836628D01*
X189880000Y-85836628D02*
X192420000Y-85836628D01*
X189880000Y-88376628D02*
X192420000Y-88376628D01*
X194960000Y-88376628D02*
X192420000Y-88376628D01*
X197460000Y-88376628D02*
X197420000Y-88416628D01*
X197420000Y-88416628D02*
X197380000Y-88376628D01*
X197380000Y-88376628D02*
X194960000Y-88376628D01*
D13*
X188000000Y-78416628D02*
X185540000Y-75956628D01*
X185540000Y-75956628D02*
X174892700Y-75956628D01*
X205000000Y-82496628D02*
X205000000Y-109000000D01*
M02*
