M48
; DRILL file KiCad 10.0.3 date 2026-05-31T23:34:43
; FORMAT={-:-/ absolute / metric / decimal}
; #@! TF.CreationDate,2026-05-31T23:34:43-04:00
; #@! TF.GenerationSoftware,Kicad,Pcbnew,10.0.3
; #@! TF.FileFunction,Plated,1,4,PTH
FMAT,2
METRIC
; #@! TA.AperFunction,Plated,PTH,ViaDrill
T1C0.300
; #@! TA.AperFunction,Plated,PTH,ComponentDrill
T2C0.800
%
G90
G05
T1
X109.361Y-122.387
X109.361Y-125.887
X109.861Y-106.387
X110.411Y-83.917
X112.361Y-105.387
X112.361Y-115.887
X112.411Y-84.917
X112.411Y-93.917
X113.5Y-79.0
X114.861Y-116.487
X114.911Y-85.917
X114.911Y-94.917
X116.861Y-115.887
X116.911Y-93.917
X117.411Y-85.917
X119.05Y-79.417
X119.361Y-116.387
X119.411Y-94.917
X119.861Y-106.387
X119.911Y-83.917
X121.911Y-84.917
X122.361Y-105.387
X125.837Y-99.0
X126.92Y-99.917
X128.92Y-81.917
X131.92Y-95.417
X132.42Y-96.417
X134.92Y-74.417
X137.42Y-84.917
X139.92Y-83.917
X148.817Y-105.317
X151.0Y-105.917
X154.42Y-106.417
X156.92Y-104.917
X174.92Y-81.417
X175.92Y-91.917
X184.92Y-97.017
X187.42Y-98.417
X189.42Y-98.417
X190.0Y-105.5
X192.5Y-114.5
X193.5Y-107.0
X195.0Y-113.5
X197.0Y-114.5
X197.92Y-95.417
X197.92Y-96.417
X199.0Y-113.5
X200.0Y-105.0
X202.5Y-107.0
T2
X109.56Y-103.087
X109.56Y-118.446
X109.61Y-81.617
X109.61Y-96.976
X110.92Y-76.367
X112.1Y-103.087
X112.1Y-118.446
X112.15Y-81.617
X112.15Y-96.976
X113.46Y-76.367
X114.64Y-103.087
X114.64Y-118.446
X114.69Y-81.617
X114.69Y-96.976
X116.0Y-76.367
X116.411Y-123.937
X117.18Y-103.087
X117.18Y-118.446
X117.23Y-81.617
X117.23Y-96.976
X118.951Y-123.937
X119.72Y-103.087
X119.72Y-118.446
X119.77Y-81.617
X119.77Y-96.976
X121.491Y-123.937
X121.92Y-76.367
X122.26Y-103.087
X122.26Y-118.446
X122.31Y-81.617
X122.31Y-96.976
X124.46Y-76.367
X127.0Y-76.367
X128.86Y-98.219
X128.86Y-123.339
X131.4Y-98.219
X131.4Y-123.339
X133.94Y-98.219
X133.94Y-123.339
X134.773Y-75.957
X134.773Y-94.077
X136.48Y-98.219
X136.48Y-123.339
X139.02Y-98.219
X139.02Y-123.339
X141.56Y-98.219
X141.56Y-123.339
X144.1Y-98.219
X144.1Y-123.339
X146.64Y-98.219
X146.64Y-123.339
X149.18Y-98.219
X149.18Y-123.339
X151.72Y-98.219
X151.72Y-123.339
X154.26Y-98.219
X154.26Y-123.339
X156.8Y-98.219
X156.8Y-123.339
X159.34Y-98.219
X159.34Y-123.339
X161.88Y-98.219
X161.88Y-123.339
X164.42Y-98.219
X164.42Y-123.339
X166.96Y-98.219
X166.96Y-123.339
X169.5Y-98.219
X169.5Y-123.339
X172.04Y-98.219
X172.04Y-123.339
X174.58Y-98.219
X174.58Y-123.339
X174.893Y-75.957
X174.893Y-94.077
X177.12Y-98.219
X177.12Y-123.339
X182.26Y-85.837
X182.26Y-88.377
X182.26Y-90.917
X182.92Y-78.417
X184.8Y-85.837
X184.8Y-88.377
X184.8Y-90.917
X185.46Y-78.417
X187.34Y-85.837
X187.34Y-88.377
X187.34Y-90.917
X188.0Y-78.417
X189.699Y-102.2
X189.699Y-117.559
X189.88Y-85.837
X189.88Y-88.377
X189.88Y-90.917
X192.239Y-102.2
X192.239Y-117.559
X192.42Y-85.837
X192.42Y-88.377
X192.42Y-90.917
X194.779Y-102.2
X194.779Y-117.559
X194.96Y-85.837
X194.96Y-88.377
X194.96Y-90.917
X196.42Y-123.5
X197.319Y-102.2
X197.319Y-117.559
X197.5Y-85.837
X197.5Y-88.377
X197.5Y-90.917
X198.96Y-123.5
X199.859Y-102.2
X199.859Y-117.559
X201.5Y-123.5
X202.399Y-102.2
X202.399Y-117.559
M30
