G04 #@! TF.GenerationSoftware,KiCad,Pcbnew,10.0.3*
G04 #@! TF.CreationDate,2026-05-31T23:35:21-04:00*
G04 #@! TF.ProjectId,BattleBot,42617474-6c65-4426-9f74-2e6b69636164,rev?*
G04 #@! TF.SameCoordinates,Original*
G04 #@! TF.FileFunction,Profile,NP*
%FSLAX46Y46*%
G04 Gerber Fmt 4.6, Leading zero omitted, Abs format (unit mm)*
G04 Created by KiCad (PCBNEW 10.0.3) date 2026-05-31 23:35:21*
%MOMM*%
%LPD*%
G01*
G04 APERTURE LIST*
G04 #@! TA.AperFunction,Profile*
%ADD10C,0.050000*%
G04 #@! TD*
G04 APERTURE END LIST*
D10*
X106618034Y-113707629D02*
G75*
G02*
X104381966Y-113707629I-1118034J0D01*
G01*
X104381966Y-113707629D02*
G75*
G02*
X106618034Y-113707629I1118034J0D01*
G01*
X106618034Y-88000000D02*
G75*
G02*
X104381966Y-88000000I-1118034J0D01*
G01*
X104381966Y-88000000D02*
G75*
G02*
X106618034Y-88000000I1118034J0D01*
G01*
X209118034Y-113500000D02*
G75*
G02*
X206881966Y-113500000I-1118034J0D01*
G01*
X206881966Y-113500000D02*
G75*
G02*
X209118034Y-113500000I1118034J0D01*
G01*
X209118034Y-87792371D02*
G75*
G02*
X206881966Y-87792371I-1118034J0D01*
G01*
X206881966Y-87792371D02*
G75*
G02*
X209118034Y-87792371I1118034J0D01*
G01*
X205013707Y-128584742D02*
X109013707Y-128584742D01*
X107013707Y-126584742D02*
X107013707Y-122912954D01*
X206513707Y-72084742D02*
X206513707Y-78256315D01*
X207013707Y-122913937D02*
X207013707Y-126584742D01*
X211513164Y-84913937D02*
X211492278Y-116784153D01*
X207099494Y-79670529D02*
X210927378Y-83498413D01*
X210905565Y-118197982D02*
X207600421Y-121498797D01*
X109013707Y-70084742D02*
X204513707Y-70084742D01*
X107013707Y-78256315D02*
X107013707Y-72084742D01*
X102599079Y-83499370D02*
X106427921Y-79670528D01*
X106428181Y-121499000D02*
X102583119Y-117652523D01*
X101997592Y-116237568D02*
X102013292Y-84912582D01*
X109013707Y-128584742D02*
G75*
G02*
X107013658Y-126584742I-7J2000042D01*
G01*
X207013707Y-126584742D02*
G75*
G02*
X205013707Y-128584707I-2000007J42D01*
G01*
X106428181Y-121499000D02*
G75*
G02*
X107013738Y-122912954I-1414481J-1414000D01*
G01*
X207099494Y-79670529D02*
G75*
G02*
X206513694Y-78256315I1414206J1414229D01*
G01*
X204513707Y-70084742D02*
G75*
G02*
X206513658Y-72084742I-7J-1999958D01*
G01*
X207013707Y-122913937D02*
G75*
G02*
X207600404Y-121498780I1999993J37D01*
G01*
X210927378Y-83498413D02*
G75*
G02*
X211513156Y-84913937I-1414178J-1414187D01*
G01*
X211492278Y-116784153D02*
G75*
G02*
X210905540Y-118197956I-1999978J1353D01*
G01*
X107013707Y-72084742D02*
G75*
G02*
X109013707Y-70084707I1999993J42D01*
G01*
X107013707Y-78256315D02*
G75*
G02*
X106427915Y-79670522I-2000007J15D01*
G01*
X102013292Y-84912582D02*
G75*
G02*
X102599085Y-83499376I2000008J-1018D01*
G01*
X102583119Y-117652523D02*
G75*
G02*
X101997617Y-116237568I1414481J1413923D01*
G01*
M02*
