G04 #@! TF.GenerationSoftware,KiCad,Pcbnew,10.0.3*
G04 #@! TF.CreationDate,2026-05-31T23:35:21-04:00*
G04 #@! TF.ProjectId,BattleBot,42617474-6c65-4426-9f74-2e6b69636164,rev?*
G04 #@! TF.SameCoordinates,Original*
G04 #@! TF.FileFunction,Soldermask,Top*
G04 #@! TF.FilePolarity,Negative*
%FSLAX46Y46*%
G04 Gerber Fmt 4.6, Leading zero omitted, Abs format (unit mm)*
G04 Created by KiCad (PCBNEW 10.0.3) date 2026-05-31 23:35:21*
%MOMM*%
%LPD*%
G01*
G04 APERTURE LIST*
G04 Aperture macros list*
%AMRoundRect*
0 Rectangle with rounded corners*
0 $1 Rounding radius*
0 $2 $3 $4 $5 $6 $7 $8 $9 X,Y pos of 4 corners*
0 Add a 4 corners polygon primitive as box body*
4,1,4,$2,$3,$4,$5,$6,$7,$8,$9,$2,$3,0*
0 Add four circle primitives for the rounded corners*
1,1,$1+$1,$2,$3*
1,1,$1+$1,$4,$5*
1,1,$1+$1,$6,$7*
1,1,$1+$1,$8,$9*
0 Add four rect primitives between the rounded corners*
20,1,$1+$1,$2,$3,$4,$5,0*
20,1,$1+$1,$4,$5,$6,$7,0*
20,1,$1+$1,$6,$7,$8,$9,0*
20,1,$1+$1,$8,$9,$2,$3,0*%
G04 Aperture macros list end*
%ADD10C,1.800000*%
%ADD11O,1.800000X1.800000*%
%ADD12RoundRect,0.381000X-0.889000X-0.889000X0.889000X-0.889000X0.889000X0.889000X-0.889000X0.889000X0*%
G04 APERTURE END LIST*
D10*
X177120000Y-123338528D03*
X174580000Y-123338528D03*
X172040000Y-123338528D03*
X169500000Y-123338528D03*
X166960000Y-123338528D03*
X164420000Y-123338528D03*
X161880000Y-123338528D03*
X159340000Y-123338528D03*
X156800000Y-123338528D03*
X154260000Y-123338528D03*
X151720000Y-123338528D03*
X149180000Y-123338528D03*
X146640000Y-123338528D03*
X144100000Y-123338528D03*
X141560000Y-123338528D03*
X139020000Y-123338528D03*
X136480000Y-123338528D03*
X133940000Y-123338528D03*
X131400000Y-123338528D03*
X128860000Y-123338528D03*
X128860000Y-98218528D03*
X131400000Y-98218528D03*
X133940000Y-98218528D03*
X136480000Y-98218528D03*
X139020000Y-98218528D03*
X141560000Y-98218528D03*
X144100000Y-98218528D03*
X146640000Y-98218528D03*
X149180000Y-98218528D03*
X151720000Y-98218528D03*
X154260000Y-98218528D03*
X156800000Y-98218528D03*
X159340000Y-98218528D03*
X161880000Y-98218528D03*
X164420000Y-98218528D03*
X166960000Y-98218528D03*
X169500000Y-98218528D03*
X172040000Y-98218528D03*
X174580000Y-98218528D03*
X177120000Y-98218528D03*
D11*
X189698600Y-117559000D03*
X189698600Y-102200000D03*
X192238600Y-117559000D03*
X192238600Y-102200000D03*
X194778600Y-117559000D03*
X194778600Y-102200000D03*
X197318600Y-117559000D03*
X197318600Y-102200000D03*
X199858600Y-117559000D03*
X199858600Y-102200000D03*
X202398600Y-117559000D03*
X202398600Y-102200000D03*
D10*
X188000000Y-78416628D03*
X185460000Y-78416628D03*
X182920000Y-78416628D03*
X134772700Y-94076628D03*
X134772700Y-75956628D03*
X174892700Y-94076628D03*
X174892700Y-75956628D03*
X127000000Y-76366628D03*
X124460000Y-76366628D03*
X121920000Y-76366628D03*
X116411400Y-123937208D03*
X118951400Y-123937208D03*
X121491400Y-123937208D03*
X196420000Y-123500000D03*
X198960000Y-123500000D03*
X201500000Y-123500000D03*
X116000000Y-76366628D03*
X113460000Y-76366628D03*
X110920000Y-76366628D03*
D11*
X122260000Y-103087208D03*
X122260000Y-118446208D03*
X119720000Y-103087208D03*
X119720000Y-118446208D03*
X117180000Y-103087208D03*
X117180000Y-118446208D03*
X114640000Y-103087208D03*
X114640000Y-118446208D03*
X112100000Y-103087208D03*
X112100000Y-118446208D03*
X109560000Y-103087208D03*
X109560000Y-118446208D03*
D12*
X109361400Y-125887208D03*
X109361400Y-122387208D03*
X194520000Y-75016628D03*
X134920000Y-72416628D03*
X127000000Y-91500000D03*
X127000000Y-88016628D03*
X198020000Y-75016628D03*
D11*
X109610002Y-96975628D03*
X109610002Y-81616628D03*
X112150002Y-96975628D03*
X112150002Y-81616628D03*
X114690002Y-96975628D03*
X114690002Y-81616628D03*
X117230002Y-96975628D03*
X117230002Y-81616628D03*
X119770002Y-96975628D03*
X119770002Y-81616628D03*
X122310002Y-96975628D03*
X122310002Y-81616628D03*
D12*
X138120000Y-72416628D03*
D10*
X182260000Y-90916628D03*
X182260000Y-88376628D03*
X182260000Y-85836628D03*
X184800000Y-90916628D03*
X184800000Y-88376628D03*
X184800000Y-85836628D03*
X187340000Y-90916628D03*
X187340000Y-88376628D03*
X187340000Y-85836628D03*
X189880000Y-90916628D03*
X189880000Y-88376628D03*
X189880000Y-85836628D03*
X192420000Y-90916628D03*
X192420000Y-88376628D03*
X192420000Y-85836628D03*
X194960000Y-90916628D03*
X194960000Y-88376628D03*
X194960000Y-85836628D03*
X197500000Y-90916628D03*
X197500000Y-88376628D03*
X197500000Y-85836628D03*
M02*
